<?xml version="1.0" encoding="UTF-8"?>
<svg id="_圖層_2" data-name="圖層 2" xmlns="http://www.w3.org/2000/svg" viewBox="0 0 217.56 445.27">
  <defs>
    <style>
      .cls-1 {
        fill: #bd8068;
        stroke: #000;
        stroke-miterlimit: 10;
      }
    </style>
  </defs>
  <g id="_圖層_1-2" data-name="圖層 1">
    <path class="cls-1" d="M210.98,286.58c-3.7,6.93-10.3,11-15.9,16.1-8.47,7.72-14.54,17.28-20.25,27.15-9.43,16.3-16.87,33.49-23.29,51.1-5.59,15.35-10.23,31.04-15.2,46.61-.9,2.81-2.12,4.73-5.31,5.68-11.69,3.47-23.25,7.39-34.93,10.89-2.52,.76-5.37,.53-8.07,.66-2.83,.13-3.9-1.56-3.31-3.99,.95-3.92,1.86-7.92,3.46-11.59,6.47-14.8,13.12-29.53,19.86-44.21,4.97-10.82,10.12-21.56,15.32-32.27,4.2-8.66,8.62-17.21,12.92-25.82,5.56-11.1,11.07-22.23,16.66-33.31,2.79-5.54,5.76-10.98,8.59-16.5,.74-1.44,1.25-3,1.95-4.71-.57,0-.97-.04-1.35,.03-7.52,1.46-14.06-.54-19.55-5.8-5.45-5.24-12.21-7.14-19.4-8.37-4.21-.72-8.32-2.05-12.45-3.19-3.21-.89-5.62-2.85-7.88-5.35-6.83-7.55-13.93-14.86-20.92-22.26-.31,.18-.61,.36-.92,.54,.22,2.99,.81,6.01,.6,8.97-.47,6.45-1.08,12.93-2.22,19.28-.42,2.35-2.19,4.69-3.89,6.53-3.62,3.9-9.45,2.99-11.09-2.08-1.6-4.96-2-10.31-2.69-15.51-.46-3.48-.34-7.02-.79-10.5-.18-1.4-.91-3.41-1.94-3.84-.99-.41-3.07,.48-4.01,1.44-4.44,4.53-10.06,5.97-16.12,6.5-2.33,.2-4.64,.4-6.08-2.03-1.55-2.61-.73-5,.68-7.31,1.18-1.93,2.58-3.76,3.54-5.79,1.44-3.07,.76-4.76-2.32-6.32-2.99-1.52-6.17-2.69-9.04-4.39-2.09-1.24-3.78-3.13-5.72-4.63-.89-.68-1.96-1.13-2.96-1.66-4.15-2.17-8.71-3.79-12.37-6.6-6.33-4.85-5.13-11.43,2.27-14.41,7.25-2.92,14.79-2.02,22.21-.72,5.94,1.04,11.78,2.69,17.99,4.15,1.64-4.01,2.93-8.42,5.18-12.27,1.59-2.73,4.12-5.29,6.85-6.89,5.45-3.18,8.99-7.84,12.02-13.04,5.39-9.26,10.48-18.7,16.12-27.82,3.32-5.37,4.51-5.38,10.83-1.68,5.42,3.18,9.3,8.16,12.12,13.67,6.26,12.27,15.62,21.82,26.5,30,2.6,1.95,5.94,3.12,9.1,4.1,3.08,.96,5.26-.73,5.12-3.98-.11-2.64-.69-5.37-1.64-7.85-6.15-15.96-15.27-30.35-25.14-44.24-7.1-10-13.76-20.2-18.8-31.36-2.1-4.66-5.14-8.39-9.3-11.48-5.36-3.99-10.48-8.32-13.64-14.42-1.93-3.73-5.39-5.58-8.98-7.46-11.02-5.8-21.14-12.81-27.82-23.6-3.66-5.9-5.45-12.32-3.87-19.33,1.27-5.61,4.24-9.53,10.12-10.85,.58,.24,1.17,.48,1.75,.72,4.34,5.28,8.34,10.9,13.12,15.76,5.47,5.56,11.08,10.8,15.62,17.31,7.37,10.57,15.71,20.48,23.69,30.62,1.02,1.29,2.21,2.51,3.52,3.51,3.38,2.6,6.87,5.06,10.32,7.57,3.45,2.51,6.76,4.97,8.82,9.02,4.01,7.89,8.32,15.65,12.89,23.24,5.38,8.93,11.3,17.55,20.21,23.51,4.19,2.8,6.55,6.53,7.87,11.22,.48,1.71,1.39,3.59,2.69,4.76,2.66,2.39,4.08,5.18,4.57,8.6,1.6,11.2,5.29,21.77,9.98,32.06,9.21,20.22,18.36,40.46,27.48,60.72,2.49,5.53,3.4,11.27,2.13,17.27-.89,4.21-1.64,8.46-2.46,12.69-1.02,2.5-2.04,4.99-3.06,7.49Zm-83.54-86.22c-1.58-.12-3.13-.18-4.66-.37-3.3-.41-6.86-.23-9.82-1.46-9.08-3.77-18.38-6.56-28.15-7.34-3.97-.32-8.04,.25-12.02,.71-2.24,.26-3.4,1.95-3.29,4.22,.12,2.41-.33,5.04,2.71,6.37,5.58,2.45,11.11,5,16.63,7.59,3.17,1.48,6.23,1.97,9.69,.78,4.63-1.61,9.25-.59,12.42,3.01,3.46,3.93,7.62,6.49,12.28,8.37,6.46,2.61,13.22,3.17,20.01,1.79,3.13-.64,3.97-2.53,2.49-5.37-4.13-7.93-11.02-13.2-18.27-18.3Zm-38.81-24.72c6.27,2.41,12.68,2.39,19.04,2.51,1.5,.03,3.09-.59,4.5-1.21,3.23-1.4,3.99-3.71,2.31-6.83-1.94-3.6-5.27-5.49-8.89-7.12-3.39-1.53-6.63-3.41-10.02-4.96-1.1-.5-2.78-1.04-3.64-.57-4.79,2.59-8.06,6.56-8.86,12.01-.19,1.31,.85,3.1,1.85,4.2,.91,1.01,2.54,1.38,3.71,1.96Z"/>
  </g>
</svg>