<?xml version="1.0" encoding="UTF-8"?>
<svg id="_圖層_2" data-name="圖層 2" xmlns="http://www.w3.org/2000/svg" xmlns:xlink="http://www.w3.org/1999/xlink" viewBox="0 0 403.83 224.65">
  <defs>
    <style>
      .cls-1, .cls-2 {
        fill: none;
      }

      .cls-3 {
        clip-path: url(#clippath);
      }

      .cls-4 {
        fill: #f5e7d3;
      }

      .cls-5, .cls-6 {
        fill: #ff6044;
      }

      .cls-7 {
        fill: #2b2a2a;
      }

      .cls-6, .cls-2 {
        stroke: #2b2a2a;
        stroke-miterlimit: 10;
        stroke-width: 2px;
      }

      .cls-8 {
        clip-path: url(#clippath-1);
      }
    </style>
    <clipPath id="clippath">
      <rect class="cls-1" x="2" y="2" width="399.83" height="220.65"/>
    </clipPath>
    <clipPath id="clippath-1">
      <rect class="cls-1" x="44.98" y="2" width="356.85" height="220.65"/>
    </clipPath>
  </defs>
  <g id="_圖層_1-2" data-name="圖層 1">
    <g>
      <g>
        <rect class="cls-4" x="1" y="1" width="401.83" height="222.65"/>
        <path d="M401.83,2V222.65H2V2H401.83m2-2H0V224.65H403.83V0h0Z"/>
      </g>
      <path class="cls-5" d="M401.83,2H246.91c-5.23,11.8-8.16,24.85-8.16,38.59,0,52.64,42.67,95.31,95.31,95.31,26.52,0,50.51-10.84,67.79-28.33V2Z"/>
      <g class="cls-3">
        <g>
          <line class="cls-2" x1="405.2" y1="-.56" x2="225.08" y2="-240.83"/>
          <line class="cls-2" x1="405.2" y1="-.56" x2="154.11" y2="-193.9"/>
          <line class="cls-2" x1="405.2" y1="-.56" x2="90.76" y2="-141.11"/>
          <line class="cls-2" x1="405.2" y1="-.56" x2="36.98" y2="-84.04"/>
          <line class="cls-2" x1="405.2" y1="-.56" x2="-5.62" y2="-24.44"/>
          <line class="cls-2" x1="405.2" y1="-.56" x2="-35.74" y2="35.89"/>
          <line class="cls-2" x1="405.2" y1="-.56" x2="-52.46" y2="95.11"/>
          <line class="cls-2" x1="405.2" y1="-.56" x2="-55.27" y2="151.42"/>
          <line class="cls-2" x1="405.2" y1="-.56" x2="-44.09" y2="203.12"/>
          <line class="cls-2" x1="405.2" y1="-.56" x2="-19.26" y2="248.63"/>
          <line class="cls-2" x1="405.2" y1="-.56" x2="18.46" y2="286.56"/>
          <line class="cls-2" x1="405.2" y1="-.56" x2="67.94" y2="315.78"/>
          <line class="cls-2" x1="405.2" y1="-.56" x2="127.67" y2="335.38"/>
          <line class="cls-2" x1="405.2" y1="-.56" x2="195.83" y2="344.77"/>
          <line class="cls-2" x1="405.2" y1="-.56" x2="270.35" y2="343.67"/>
          <line class="cls-2" x1="405.2" y1="-.56" x2="348.97" y2="332.11"/>
        </g>
      </g>
      <g class="cls-8">
        <g>
          <circle class="cls-6" cx="368.84" cy="41.28" r="71.04"/>
          <path class="cls-2" d="M365.86,26.65q20.04,0,20.04-20.04,0,20.04,20.04,20.04-20.04,0-20.04,20.04,0-20.04-20.04-20.04Z"/>
          <path class="cls-2" d="M330.27,51.5c-10.75-23.93-5.26-53.73,10.13-71.11,0,0,.92-.41,0,0-29.57,13.29-45.58,54.07-31.58,86.03,14.23,32.49,55.71,47.74,85.33,33.95l17.96-9.82c-28.99,11.19-67.99-8.22-81.85-39.05Z"/>
          <circle class="cls-2" cx="385.91" cy="57.83" r="3.34"/>
          <circle class="cls-7" cx="385.91" cy="70.7" r="2.54"/>
        </g>
      </g>
    </g>
  </g>
</svg>