<?xml version="1.0" encoding="UTF-8"?>
<svg id="_圖層_2" data-name="圖層 2" xmlns="http://www.w3.org/2000/svg" viewBox="0 0 688.76 728.18">
  <g id="_圖層_1-2" data-name="圖層 1">
    <path d="M482.79,416.12c-5.92,3.3-10.56,4.35-12.9,9.08-9.2,18.61-23.05,34.49-41.8,43.41-19.87,9.46-28.29,22.04-18.38,33.79,9.39,11.13,20.46,20.83,30.54,31.4,3.3,3.46,8.13,7.87,7.9,11.57-.22,3.57-5.8,9.23-9.52,9.66-9.06,1.06-18.4-.47-27.64-.8-6.92-.24-13.88,.08-20.78-.39-26.27-1.79-40.78,13.21-52.72,34.23-3.12,5.49-12.65,8.23-19.79,10.32-7.37,2.15-15.45,1.72-23.17,2.85-10.66,1.55-20.52,2.07-27.99-8.26-2.03-2.81-7.2-3.36-11.43-5.16,.86,49.28-14.1,91.54-53.35,119.14-33.28,23.41-74.02,27.36-111.73,12.26-37.74-15.12-62.94-44.75-70.66-86.68-10.86-58.98,19.17-106.65,68.25-131.5,27.81-14.08,59.18-14.98,89.37-2.83,19.59,7.89,23.53,6.91,37.43-9.45,3.55-4.18,7.54-7.98,12.33-13.02,.38,4.18,.59,6.56,.95,10.51,9.39-10.67,17.93-20.38,27.1-30.8-6.33-4.43-21.85,4.8-16.53-13.01-9.71,.59-10.45,5.17-9.44,12.31,2.09,14.75-3.88,20.5-17.45,15.34-13.1-4.98-25.11-12.8-37.83-18.87-8.45-4.03-17.73-6.42-25.93-10.86-31.7-17.18-60.86-37.45-79.59-69.55-1.73-2.97-2.85-6.52-5.2-8.86-17.08-17.05-34.17-34.1-51.71-50.69-14.33-13.55-15.16-19.69-.59-32.6,23.81-21.09,50.47-37.6,82.28-43.21,14.44-2.54,24.34-10.42,33.26-20.77,17.52-20.34,35.15-40.58,52.39-61.16,10.47-12.49,23.69-20.09,39.32-23.42,9.92-2.11,14.18-7.04,15.29-17.5,4.27-40.19,35.17-62.54,75.25-53.6,6.87,1.53,15.31,10.05,17.21,16.94,4.08,14.79,5,30.58,5.9,46.04,.38,6.5-2.93,13.13-3.91,19.8-1.07,7.3-3.61,15.4-1.57,21.92,3.82,12.21,9.2,24.4,16.45,34.86,3.95,5.7,12.68,9.02,19.92,11.32,11.28,3.59,23.13,5.39,37.05,8.46-.62-6.86-1.1-12.29-1.61-17.71-1.96-20.71-3.23-41.51-6.04-62.1-6.41-46.9,14.77-79.74,51.86-104.87,2.1-1.43,4.71-2.09,7.02-3.23,17.68-8.72,35.32-17.53,53.03-26.17,3.67-1.79,7.92-4.77,11.39-4.17,11.99,2.05,23.78,5.3,35.57,8.41,3.69,.97,8.75,1.93,10.39,4.61,9.69,15.81,27.63,27.7,26.21,48.84-.57,8.41-2.76,19.83-8.52,24.17-14.94,11.26-10.3,23.25-6.25,36.86,9.85-.89,19.5-3.4,28.57-2.05,6.58,.98,16.35,5.98,17.75,11.09,3.09,11.26,2.61,23.76,2.05,35.68-.67,14.17-2.63,28.15-12.02,40.19-2.04,2.62-.3,9.17,1.2,13.38,4.9,13.82,11.22,27.16,15.65,41.1,7.61,23.95-4.89,48.05-28.2,56.79-16.08,6.03-32.28,11.88-47.83,19.1-4.17,1.94-9.15,8.98-8.63,13.02,2.59,20.09,6.49,40.06,11.09,59.8,.58,2.51,8.14,5.22,12.16,4.81,49.56-5.07,83.2,22.2,108.26,58.73,24.15,35.2,21.53,94.37-8.51,131.39-20.73,25.55-44.83,43.08-77.56,46.59-55.1,5.91-101.62-22.08-124.3-75.38-9.5-22.32-12.95-43.49-6.03-66.46,1.12-3.72,1.89-7.7,3.76-11.02,8.5-15.11,16.68-30.49,26.35-44.84,4.74-7.04,6.01-12.67,2.41-20.22-2.36-4.95-3.38-10.53-5.82-18.54Zm126.13,125.06c-9.37,4.9-16.6,9.75-24.55,12.49-5.62,1.94-13.58,3.49-18.14,.96-17.04-9.44-27.71-25-35.87-42.49-3.9-8.35-7.8-17.09-13.6-24.07-7.37-8.88-14.59-8.21-18.41,2.93-6.06,17.68-10.07,36.24-12.9,54.75-1.15,7.53,1.2,16.96,5.13,23.67,23.14,39.49,56.96,57.57,103.28,47.54,30.65-6.64,51.63-28.06,58.07-55.25,6.76-28.55,5.81-60.74-17.81-85.25-16.12-16.73-35.03-28.27-59.42-26.05-3.4,.31-9.35,4.89-9.16,7.08,1.19,14.17,3.04,28.38,6.11,42.25,2.34,10.56,9.35,16,21.23,13.24,6-1.39,12.36-1.27,18.55-1.83,1.17,1.6,2.34,3.2,3.51,4.81-5.53,3.33-11.06,6.67-16.58,10,1.1,.91,2.21,1.83,3.31,2.74,2.76,4.75,5.52,9.5,7.26,12.49Zm-429.78-3.47c-12.6-13.67-26.34-12.14-40.25-12.7-29.14-1.17-53.05,10.12-70.64,31.57-25.01,30.5-27.19,62.99-4.35,100.75,17.76,29.37,43.3,41.53,76.32,36.92,12.78-1.79,24.9-8.31,37.34-12.6,26.65-9.18,35.74-32.26,43.04-55.96,2.5-8.12-2.32-13.58-10.62-11.76-12.14,2.66-24.06,7.52-36.31,8.48-24.02,1.9-47.4,4.44-66.73,20.86-.32,.27-1.5-.47-.87-.25,2.2-12.33,1.91-25.54,7.15-35.97,5.32-10.61,15.94-18.62,24.52-27.5,3.56-3.69,8.2-6.33,11.75-10.03,10.03-10.43,19.76-21.15,29.65-31.81Zm269.47-232.43c-5.26,20.15-18.45,18.62-33.61,13.5-4.05-1.37-9.36,.5-13.98,1.44-12.53,2.56-25.17,4.83-37.43,8.39-8.47,2.45-16.37,6.85-25.5,10.8,13.36,10.05,27.16,15.9,33.28,26.27,6.51,11.04,5.73,26.37,8.21,40.23,2.74-.03,5.01,.49,6.86-.17,20.22-7.25,40.56-14.24,60.48-22.25,11.7-4.7,14.92-15.14,11.28-28.07-1.3-4.63-2.47-10.46-.8-14.56,5.71-14.03,4.55-21.86-8.79-35.57Zm-72.54-13.23c.46,1.19,.93,2.39,1.39,3.58,14.9-5.79,29.99-11.16,44.63-17.54,8.29-3.61,7.25-10.93,1.71-15.69-16.41-14.08-33.93-25.64-57.46-17.44-4.79,1.67-10.44,2.53-15.39,1.79-14.12-2.11-14.74,4.59-12.82,15.86,5.55,32.55,5.21,32.61,37.93,29.43Zm10.11,186.98c1.87-.47,4.23-.37,5.52-1.5,14.23-12.45,28.79-24.6,42.14-37.96,4.83-4.83,7.69-12.38,9.59-19.21,3.36-12.07-2.3-17.97-14.25-14.54-12.37,3.55-23.9,11.09-36.37,12.91-16.94,2.47-12.77,13.04-11.38,22.62,.71,4.9,3.54,9.79,6.41,14.01,5.65,8.3,7.65,15.79-1.66,23.67Zm148.77-64.92c-4.52-18.8-8.75-37.69-13.89-56.32-1.02-3.69-5.02-6.26-8.8-5.67-29.85,4.63-35.82,17.28-20.8,43.21,2.79,4.82,6.54,9.06,9.62,13.72,2.57,3.89,5.82,7.73,6.95,12.07,1.85,7.09,5.77,8.04,11.5,5.7,6.08-2.49,16.2-.62,15.41-12.71Zm-206.79,61.32c-7.25,6.5-14.85,11.76-20.28,18.72-3.53,4.52-6.12,12.03-4.88,17.18,.8,3.32,9.11,5.41,14.38,6.93,6.02,1.74,12.39,2.24,21.07,3.68-6.18-15.35,8.55-33.61-10.29-46.51Zm-46.07,83.18c11.26-2.38,18.68-3.37,15.97-13.07-.93-3.32-5.21-5.69-7.96-8.5l-8.01,21.57Zm27.8-29.71c-.95,1.37-1.9,2.74-2.85,4.11,3.91,3.84,7.29,8.91,11.98,10.93,1.9,.82,6.66-4.98,12.74-9.89-10.06-2.37-15.97-3.76-21.87-5.15Zm7.83,54.46c-8.33-3.6-14.66-6.39-21.12-8.85-.18-.07-1.71,3.38-2.61,5.19,6.26,2.63,12.51,5.27,18.79,7.84,.18,.08,.64-.52,4.94-4.18Z"/>
  </g>
</svg>