<?xml version="1.0" encoding="UTF-8"?>
<svg id="_圖層_2" data-name="圖層 2" xmlns="http://www.w3.org/2000/svg" viewBox="0 0 179.43 183.18">
  <defs>
    <style>
      .cls-1 {
        fill: none;
        stroke: #2b2a2a;
        stroke-miterlimit: 10;
      }
    </style>
  </defs>
  <g id="_圖層_1-2" data-name="圖層 1">
    <path d="m173.86,109.12c-6.85-7.88-15.47-13.35-26.93-10.83-.93.2-2.77-.23-2.98-.8-1.61-4.5-3.06-9.07-4.21-13.7-.23-.93.74-2.71,1.67-3.28,3.45-2.11,7.08-3.92,10.68-5.76,5.22-2.68,7.5-8.66,5.07-14.06-1.41-3.15-3.25-6.1-4.77-9.2-.46-.95-1.05-2.43-.64-3.1,1.87-3.07,1.96-6.4,1.73-9.73-.19-2.81-.42-5.75-1.44-8.3-.47-1.16-2.89-2.07-4.46-2.12-2.16-.07-4.35.78-6.63,1.25-1.32-3.08-2.73-5.76.47-8.8,1.23-1.17,1.44-3.91,1.34-5.89-.24-4.99-4.76-7.29-7.46-10.73-.46-.58-1.67-.67-2.56-.8-2.84-.41-5.69-.85-8.56-1.01-.83-.05-1.74.77-2.55,1.29-3.91,2.5-7.81,5.04-11.71,7.56-.51.33-1.1.56-1.56.95-8.01,6.89-12.08,15.15-9.31,25.95,1.21,4.74,2.07,9.58,3.09,14.38.27,1.26.52,2.51.85,4.1-3.34-.34-6.16-.45-8.9-.98-1.76-.34-3.89-.88-4.97-2.11-1.98-2.25-3.57-4.96-4.79-7.72-.65-1.47-.28-3.44-.23-5.17.05-1.59.65-3.23.38-4.74-.63-3.59-1.27-7.27-2.62-10.62-.63-1.56-2.84-3.33-4.49-3.5-9.62-1.01-16.26,5.06-16.17,14.58.02,2.48-.84,3.75-3.11,4.51-3.57,1.2-6.46,3.34-8.57,6.54-3.48,5.28-7.06,10.5-10.61,15.73-1.81,2.66-3.91,4.78-7.23,5.76-7.29,2.17-13.09,6.76-18.1,12.34-3.06,3.41-2.7,4.83,1.02,7.62,4.55,3.41,9.02,6.94,13.47,10.47.61.48.97,1.29,1.46,1.93,5.25,7.01,12.63,10.97,20.51,14.14,2.04.82,4.28,1.13,6.36,1.84,3.14,1.08,6.16,2.58,9.37,3.4,3.32.84,4.56-.66,3.67-4.06-.43-1.64-.38-2.74,1.88-3.14-.76,4.31,2.62,1.73,4.22,2.6-1.87,2.69-3.6,5.19-5.51,7.94-.19-.92-.31-1.47-.51-2.43-.99,1.31-1.82,2.31-2.54,3.38-2.81,4.21-3.71,4.54-8.51,3.22-7.4-2.03-14.72-.97-20.85,3.08-10.82,7.14-16.56,19.12-12.43,32.63,2.94,9.61,9.64,15.87,18.88,18.39,9.24,2.52,18.67.49,25.83-5.89,8.44-7.52,10.8-17.82,9.27-29.33,1.04.31,2.27.3,2.82.9,2.03,2.22,4.32,1.83,6.78,1.18,1.77-.47,3.68-.59,5.35-1.29,1.62-.68,3.77-1.58,4.35-2.95,2.23-5.24,5.22-9.15,11.42-9.44,1.63-.08,3.25-.34,4.88-.47,2.17-.17,4.4-.07,6.49-.56.86-.2,2.01-1.68,1.97-2.52-.05-.87-1.3-1.78-2.16-2.5-2.65-2.2-5.5-4.17-8-6.53-1.8-1.7-1.61-3.71.09-5.7,4.18-4.87,8.21-9.86,12.35-14.76.54-.63,1.37-1.02,2.33-1.71.79,1.81,1.18,3.09,1.86,4.18,1.05,1.67.9,3.02-.02,4.8-1.87,3.62-3.37,7.44-4.96,11.21-.35.83-.42,1.78-.58,2.68-1,5.57.38,10.43,3.21,15.4,6.75,11.86,18.4,17.16,31.14,14.29,7.57-1.71,12.74-6.46,16.9-13,6.03-9.48,5.05-23.4-1.56-30.99Zm-101.72,47.56c-1.07,5.75-2.57,11.4-8.57,14.27-2.8,1.34-5.46,3.2-8.4,3.96-7.6,1.97-13.91-.19-18.86-6.58-6.37-8.22-6.73-15.89-1.7-23.71,3.54-5.5,8.83-8.79,15.69-9.3,3.27-.24,6.45-.97,9.77,1.89-2.03,2.76-4.02,5.54-6.08,8.25-.73.96-1.75,1.71-2.48,2.66-1.77,2.31-4.04,4.47-5,7.1-.94,2.58-.52,5.67-.7,8.61-.15-.03.14.11.21.04,4.08-4.37,9.49-5.59,15.06-6.69,2.74-.54,5.31-1.92,7.98-2.86,2.67-.95,3.61-.43,3.1,2.36Zm20.29-92.23c1.18.04,2.48-.31,3.56-.83,5.29-2.56,9.7-.32,13.92,2.53,1.43.96,1.87,2.65.02,3.72-3.26,1.89-6.64,3.55-9.98,5.31-.14-.27-.28-.53-.42-.8-7.58,1.63-7.5,1.61-9.68-5.87-.75-2.59-.79-4.17,2.57-4.06Zm-7.7,74.87c.54-2.19.92-3.73,1.29-5.27.72.58,1.79,1.02,2.09,1.78.9,2.2-.81,2.63-3.39,3.49Zm7.97,5.94c-1.54-.43-3.07-.88-4.61-1.33.16-.45.43-1.3.47-1.28,1.58.4,3.14.88,5.18,1.5-.91.97-1,1.13-1.04,1.11Zm.28-10.38c-1.15-.35-2.08-1.44-3.1-2.24.19-.35.37-.69.56-1.04,1.42.17,2.84.33,5.26.61-1.29,1.31-2.25,2.8-2.72,2.66Zm-1.08-5.97c-1.27-.21-3.28-.48-3.55-1.23-.43-1.17-.02-3,.68-4.15,1.08-1.77,2.72-3.21,4.24-4.93,4.76,2.51,1.8,7.19,3.66,10.61-2.07-.1-3.58-.05-5.03-.29Zm26.87-26.32c-.26,1.65-.73,3.5-1.73,4.76-2.76,3.49-5.85,6.72-8.84,10.02-.27.3-.83.34-1.25.5,1.97-2.1,1.3-3.8-.25-5.59-.79-.91-1.58-1.98-1.88-3.11-.58-2.21-1.85-4.57,2.05-5.6,2.87-.76,5.37-2.84,8.17-4,2.71-1.13,4.19.1,3.73,3.02Zm-.18-8.73c-4.45,2.41-9.02,4.6-13.56,6.84-.41.21-.96.14-1.6.23-.95-3.18-1.19-6.79-3.01-9.2-1.71-2.26-5.1-3.26-8.5-5.25,2.03-1.17,3.76-2.41,5.68-3.22,2.77-1.16,5.67-2.04,8.54-2.97,1.06-.35,2.25-.93,3.23-.72,3.69.79,6.82.79,7.5-4.07,3.49,2.85,3.98,4.65,3.02,8.09-.28,1.01.15,2.34.58,3.39,1.2,2.93.73,5.46-1.88,6.88Zm10.75,1.57c-4.22-5.67-3.16-8.79,3.71-10.68.62-.17,1.97.52,2.22,1.12,1.7,4.22,3.2,8.51,4.76,12.79.51,2.81-1.91,2.64-3.26,3.39-1.28.7-2.22.59-2.85-1.02-.38-.98-1.25-1.8-1.95-2.64-.85-1.01-1.84-1.9-2.62-2.95Zm42.06,34.62c-.77,6.54-5.11,12.12-12.1,14.5-10.57,3.6-18.98.28-25.46-8.34-1.1-1.46-1.91-3.61-1.84-5.4.16-4.41.6-8.86,1.54-13.17.59-2.71,2.27-3.06,4.23-1.18,1.55,1.48,2.69,3.42,3.83,5.27,2.38,3.87,5.3,7.23,9.55,8.98,1.14.47,2.96-.11,4.22-.71,1.79-.86,3.35-2.19,5.41-3.59-.49-.65-1.26-1.69-2.04-2.73-.28-.18-.57-.37-.85-.55,1.2-.93,2.41-1.86,3.61-2.79-.32-.34-.63-.69-.95-1.03-1.44.3-2.93.44-4.29.93-2.71.97-4.5-.12-5.33-2.53-1.09-3.17-1.91-6.44-2.57-9.73-.1-.51,1.17-1.74,1.95-1.9,5.65-1.18,10.39,1.01,14.62,4.49,6.19,5.1,7.28,12.61,6.47,19.48Z"/>
    <g>
      <path class="cls-1" d="m116.84,98.78c-.97.69-1.8,1.08-2.33,1.71-4.14,4.9-8.18,9.89-12.35,14.76-1.7,1.99-1.89,4-.09,5.7,2.5,2.35,5.35,4.32,8,6.53.87.72,2.12,1.62,2.16,2.5.04.84-1.11,2.32-1.97,2.52-2.09.49-4.32.39-6.49.56-1.63.13-3.25.39-4.88.47-6.2.29-9.19,4.19-11.42,9.44-.58,1.37-2.74,2.27-4.35,2.95-1.67.7-3.57.82-5.35,1.29-2.45.65-4.75,1.04-6.78-1.18-.55-.6-1.78-.59-2.82-.9,1.53,11.52-.83,21.81-9.27,29.33-7.16,6.38-16.59,8.41-25.83,5.89-9.24-2.52-15.94-8.78-18.88-18.39-4.14-13.52,1.61-25.49,12.43-32.63,6.13-4.05,13.45-5.11,20.85-3.08,4.8,1.32,5.7.98,8.51-3.22.72-1.07,1.55-2.07,2.54-3.38.2.97.32,1.52.51,2.43,1.91-2.75,3.65-5.25,5.51-7.94-1.6-.87-4.99,1.71-4.22-2.6-2.26.4-2.31,1.49-1.88,3.14.89,3.4-.36,4.9-3.67,4.06-3.2-.81-6.22-2.32-9.37-3.4-2.09-.72-4.33-1.02-6.36-1.84-7.89-3.17-15.26-7.12-20.51-14.13-.49-.65-.84-1.45-1.46-1.93-4.46-3.53-8.92-7.06-13.47-10.47-3.72-2.79-4.08-4.2-1.02-7.62,5-5.58,10.8-10.17,18.1-12.34,3.31-.99,5.42-3.1,7.23-5.76,3.55-5.24,7.13-10.45,10.61-15.73,2.11-3.21,5-5.34,8.57-6.54,2.27-.76,3.13-2.03,3.11-4.51-.09-9.52,6.55-15.59,16.17-14.58,1.65.17,3.86,1.94,4.49,3.5,1.35,3.35,2,7.03,2.62,10.62.26,1.51-.33,3.15-.38,4.74-.05,1.74-.43,3.7.23,5.17,1.22,2.75,2.81,5.46,4.79,7.72,1.08,1.23,3.21,1.77,4.97,2.11,2.74.53,5.56.64,8.9.98-.33-1.59-.59-2.85-.85-4.1-1.02-4.8-1.88-9.63-3.09-14.38-2.77-10.81,1.31-19.07,9.31-25.95.45-.39,1.05-.62,1.56-.95,3.9-2.52,7.8-5.06,11.71-7.56.81-.52,1.73-1.33,2.55-1.29,2.86.16,5.71.6,8.56,1.01.89.13,2.1.22,2.56.8,2.69,3.44,7.22,5.74,7.46,10.73.09,1.99-.11,4.72-1.34,5.89-3.19,3.04-1.78,5.72-.47,8.8,2.28-.48,4.47-1.32,6.63-1.25,1.57.05,3.99.96,4.46,2.12,1.03,2.55,1.25,5.49,1.44,8.3.23,3.34.14,6.66-1.73,9.73-.41.67.18,2.16.64,3.1,1.52,3.1,3.36,6.06,4.77,9.2,2.43,5.4.15,11.38-5.07,14.06-3.6,1.85-7.24,3.65-10.68,5.76-.92.57-1.9,2.35-1.67,3.28,1.15,4.63,2.6,9.2,4.21,13.7.2.57,2.05,1,2.98.8,11.47-2.52,20.08,2.95,26.93,10.83,6.6,7.59,7.59,21.51,1.56,30.99-4.16,6.54-9.33,11.3-16.9,13-12.74,2.87-24.39-2.43-31.14-14.29-2.83-4.97-4.21-9.83-3.21-15.4.16-.9.23-1.85.58-2.68,1.58-3.77,3.08-7.59,4.96-11.21.92-1.78,1.06-3.13.02-4.8-.69-1.1-1.08-2.38-1.86-4.18Z"/>
      <path class="cls-1" d="m149.74,124.65c-2.06,1.4-3.62,2.73-5.41,3.59-1.26.61-3.09,1.18-4.22.71-4.24-1.75-7.16-5.1-9.55-8.98-1.14-1.85-2.29-3.79-3.83-5.27-1.97-1.88-3.64-1.53-4.23,1.18-.94,4.3-1.38,8.76-1.54,13.17-.07,1.79.74,3.94,1.84,5.4,6.48,8.62,14.89,11.94,25.46,8.34,7-2.38,11.33-7.96,12.1-14.5.81-6.87-.28-14.38-6.47-19.48-4.23-3.48-8.97-5.67-14.62-4.49-.79.16-2.06,1.4-1.95,1.9.66,3.28,1.48,6.56,2.57,9.73.83,2.41,2.62,3.49,5.33,2.53,1.37-.49,2.86-.63,4.29-.93.32.34.63.69.95,1.03-1.2.93-2.41,1.86-3.61,2.79.28.18.57.37.85.55.77,1.04,1.55,2.08,2.04,2.73Z"/>
      <path class="cls-1" d="m49.03,135.45c-3.32-2.86-6.5-2.13-9.77-1.89-6.85.51-12.15,3.8-15.69,9.3-5.03,7.82-4.66,15.48,1.7,23.71,4.95,6.4,11.26,8.55,18.86,6.58,2.94-.76,5.6-2.62,8.4-3.96,5.99-2.87,7.5-8.53,8.57-14.27.52-2.78-.42-3.31-3.1-2.36-2.67.95-5.24,2.33-7.98,2.86-5.57,1.09-10.98,2.32-15.06,6.69-.07.07-.36-.07-.21-.04.18-2.95-.24-6.03.7-8.61.96-2.63,3.23-4.79,5-7.1.73-.96,1.75-1.7,2.48-2.66,2.07-2.71,4.05-5.49,6.08-8.25Z"/>
      <path class="cls-1" d="m105.84,73.75c-.69,4.86-3.82,4.86-7.5,4.07-.98-.21-2.18.37-3.23.72-2.86.94-5.76,1.81-8.54,2.97-1.92.8-3.65,2.05-5.68,3.22,3.4,1.99,6.79,2.99,8.5,5.25,1.82,2.41,2.05,6.02,3.01,9.2.64-.08,1.19-.02,1.6-.23,4.54-2.24,9.11-4.43,13.56-6.84,2.61-1.42,3.08-3.95,1.88-6.88-.43-1.05-.86-2.38-.58-3.39.96-3.44.47-5.24-3.02-8.09Z"/>
      <path class="cls-1" d="m88.5,72.61l.42.8c3.33-1.76,6.72-3.42,9.98-5.31,1.84-1.07,1.4-2.76-.02-3.72-4.22-2.85-8.64-5.09-13.92-2.53-1.08.52-2.38.87-3.56.83-3.36-.11-3.33,1.47-2.57,4.06,2.18,7.47,2.1,7.49,9.68,5.87Z"/>
      <path class="cls-1" d="m95.92,116.12c.42-.16.98-.2,1.25-.5,3-3.3,6.08-6.54,8.84-10.02,1-1.26,1.47-3.11,1.73-4.76.46-2.92-1.02-4.14-3.73-3.02-2.8,1.16-5.3,3.24-8.17,4-3.9,1.04-2.64,3.4-2.05,5.6.3,1.13,1.09,2.2,1.88,3.11,1.55,1.79,2.22,3.49.25,5.59Z"/>
      <path class="cls-1" d="m128.99,96.9c-1.56-4.27-3.06-8.57-4.76-12.79-.24-.6-1.6-1.29-2.22-1.12-6.87,1.89-7.93,5.01-3.71,10.68.78,1.05,1.78,1.95,2.62,2.95.71.84,1.57,1.65,1.95,2.64.62,1.61,1.57,1.73,2.85,1.02,1.36-.75,3.78-.58,3.26-3.39Z"/>
      <path class="cls-1" d="m82.23,116.84c-1.52,1.72-3.16,3.16-4.24,4.93-.7,1.15-1.11,2.98-.68,4.15.28.76,2.28,1.02,3.55,1.23,1.46.24,2.96.19,5.03.29-1.86-3.43,1.09-8.1-3.66-10.61Z"/>
      <path class="cls-1" d="m73.69,137.56c2.57-.86,4.28-1.29,3.39-3.49-.31-.75-1.37-1.19-2.09-1.78-.38,1.54-.76,3.08-1.29,5.27Z"/>
      <path class="cls-1" d="m79.4,129.85c-.19.35-.37.69-.56,1.04,1.02.79,1.95,1.89,3.1,2.24.47.14,1.43-1.35,2.72-2.66-2.42-.28-3.84-.45-5.26-.61Z"/>
      <path class="cls-1" d="m82.71,142.39c-2.05-.62-3.61-1.1-5.18-1.5-.05-.01-.31.84-.47,1.28,1.54.45,3.07.9,4.61,1.33.04.01.14-.14,1.04-1.11Z"/>
    </g>
  </g>
</svg>