<?xml version="1.0" encoding="UTF-8"?>
<svg id="_圖層_2" data-name="圖層 2" xmlns="http://www.w3.org/2000/svg" viewBox="0 0 126.25 126.25">
  <defs>
    <style>
      .cls-1 {
        opacity: .41;
      }

      .cls-1, .cls-2, .cls-3, .cls-4 {
        stroke: #2b2a2a;
        stroke-miterlimit: 10;
      }

      .cls-1, .cls-4 {
        fill: #f5e7d3;
      }

      .cls-2 {
        fill: #e6bf58;
        opacity: .5;
      }

      .cls-3 {
        fill: #fdbf58;
      }

      .cls-4 {
        opacity: .49;
      }
    </style>
  </defs>
  <g id="_圖層_1-2" data-name="圖層 1">
    <g>
      <circle class="cls-3" cx="63.13" cy="63.13" r="62.63"/>
      <circle class="cls-2" cx="67.78" cy="67.34" r="50.3"/>
      <path class="cls-4" d="M20.2,83.74c-.39-2.29,.55-4.37,2.1-4.63s.86,2.21,1.25,4.51,1.73,3.53,.17,3.79-3.13-1.38-3.52-3.67Z"/>
      <polygon class="cls-4" points="91.36 110.34 79.94 107.78 84.36 100.94 93.61 106.92 91.36 110.34"/>
      <path class="cls-1" d="M112.05,52.4c-5.6,0-10.15-3.49-10.15-7.79,0-.38,.05-.75,.12-1.12h-5.15s4.22,16.71,2.19,26.86-11.04,26.31-11.04,26.31l9.7,5.6s12.58-13.95,15.08-29.56c1.24-7.77,1.09-15.03,.63-20.37-.45,.05-.91,.08-1.38,.08Z"/>
    </g>
  </g>
</svg>