<?xml version="1.0" encoding="UTF-8"?>
<svg id="_圖層_2" data-name="圖層 2" xmlns="http://www.w3.org/2000/svg" viewBox="0 0 190.62 476.8">
  <defs>
    <style>
      .cls-1 {
        opacity: .41;
      }

      .cls-1, .cls-2, .cls-3, .cls-4, .cls-5, .cls-6, .cls-7, .cls-8, .cls-9, .cls-10, .cls-11, .cls-12, .cls-13, .cls-14, .cls-15, .cls-16, .cls-17 {
        stroke: #2b2a2a;
        stroke-miterlimit: 10;
      }

      .cls-1, .cls-15, .cls-16, .cls-17 {
        fill: #f5e7d3;
      }

      .cls-2, .cls-3, .cls-4 {
        opacity: .5;
      }

      .cls-2, .cls-7, .cls-12 {
        fill: #ef602c;
      }

      .cls-3, .cls-5, .cls-10 {
        fill: #e6bf58;
      }

      .cls-4, .cls-6, .cls-8, .cls-13 {
        fill: #95544a;
      }

      .cls-5, .cls-6, .cls-7 {
        opacity: .77;
      }

      .cls-8 {
        opacity: .75;
      }

      .cls-9 {
        fill: #ff6044;
      }

      .cls-11 {
        fill: #fdbf58;
      }

      .cls-14 {
        fill: #70544a;
      }

      .cls-15 {
        opacity: .49;
      }

      .cls-16 {
        opacity: .45;
      }

      .cls-18 {
        opacity: .6;
      }

      .cls-19 {
        opacity: .79;
      }

      .cls-17 {
        opacity: .25;
      }
    </style>
  </defs>
  <g id="_圖層_1-2" data-name="圖層 1">
    <g>
      <g>
        <path class="cls-14" d="M148.28,209.85c-8.3,.48-19.4-6.82-22.05-18.41s2.69-22.68,11.92-24.79c9.23-2.11,18.86,5.57,21.51,17.15,2.65,11.58-1.93,25.5-11.37,26.05Z"/>
        <path class="cls-4" d="M148.31,206.43c6.34-2.22,8.67-12.05,5.21-21.95-3.47-9.9-8.61-16.33-15.25-15.33-8.16,1.23-14.49,12.93-11.03,22.83,3.47,9.9,14.73,16.66,21.07,14.44Z"/>
        <path class="cls-6" d="M140.38,190.31c10.36-16.67-7.18-6.41-2-20.37,1.76-4.75,16.9,4.81,19.22,14.98,2.32,10.17-2.41,20.51-10.81,21.84-2.57,.41,.28-4.12-1.33-7.1-1.6-2.98-6.5-7.07-5.08-9.34Z"/>
        <path class="cls-16" d="M155.26,184.3c-1.83-6.22-6.68-10.98-5.03-10.53,2.03,.56,5.29,3.68,7.12,9.91,1.83,6.22,.75,10.88-.49,12.63-.99,1.39,.24-5.78-1.59-12.01Z"/>
      </g>
      <g>
        <ellipse class="cls-11" cx="91.37" cy="295.71" rx="27.5" ry="16.1" transform="translate(-216.85 267.5) rotate(-67.6)"/>
        <ellipse class="cls-3" cx="89.63" cy="297.36" rx="22.09" ry="12.93" transform="translate(-219.45 266.92) rotate(-67.6)"/>
        <path class="cls-15" d="M92.51,276.68c.63-.02,1.01,.5,.85,1.16s-.68,.21-1.31,.23-1.14,.49-.98-.17,.8-1.2,1.44-1.22Z"/>
        <polygon class="cls-15" points="75.38 304.35 77.7 299.8 78.77 302.06 75.91 305.5 75.38 304.35"/>
        <path class="cls-1" d="M86.87,316.59c.82-2.31,2.37-3.97,3.44-3.69,.1,.02,.18,.07,.26,.12l.76-2.12s-4.81,.67-7.06-.81c-2.25-1.49-4.97-6.24-4.97-6.24l-2.83,3.65s1.65,6.08,5.2,8.11c1.76,1.01,3.61,1.41,5.02,1.56,.05-.19,.11-.38,.18-.58Z"/>
      </g>
      <g>
        <path class="cls-9" d="M102.58,249.33c-3.5,5.97-15.59,8.69-27.63,2.83-12.04-5.85-19.83-16.82-17.4-24.49,2.43-7.67,14.16-9.15,26.2-3.29,12.04,5.85,22.81,18.17,18.83,24.95Z"/>
        <path class="cls-2" d="M99.41,247.04c.95-5.78-7.08-13.86-17.95-18.05-10.86-4.18-19.29-4.94-21.53,.24-2.75,6.36,5.13,18.41,16,22.59,10.86,4.18,22.52,.99,23.47-4.79Z"/>
        <path class="cls-7" d="M80.63,241.79c-10.58-18.07-9.38,.65-19.91-12.1-3.58-4.34,12.52-8.32,23.09-3.18,10.57,5.14,17.94,15.2,15.17,21.79-.85,2.02-3.7-2.91-7.24-3.79-3.54-.88-9.67-.25-11.12-2.72Z"/>
        <path class="cls-16" d="M82.12,227.69c-6.66-2.87-13.4-2.72-12.19-3.53,1.49-1.01,5.95-1.16,12.61,1.71,6.66,2.87,10.48,6.68,11.52,8.68,.83,1.59-5.27-3.99-11.93-6.85Z"/>
      </g>
      <g>
        <ellipse class="cls-9" cx="113.65" cy="324.78" rx="18.27" ry="29.73" transform="translate(-22.41 8.73) rotate(-4.01)"/>
        <ellipse class="cls-2" cx="115.3" cy="326.26" rx="14.67" ry="23.88" transform="translate(-22.51 8.85) rotate(-4.01)"/>
        <path class="cls-15" d="M103.28,338.65c-.3-1.02-.21-2.08,.21-2.36s.42,.94,.72,1.96,.78,1.46,.36,1.74-.99-.32-1.29-1.34Z"/>
        <polygon class="cls-15" points="125.47 343.8 122.05 343.77 122.73 340.15 125.82 341.99 125.47 343.8"/>
        <path class="cls-1" d="M126.52,314.88c-1.58,.56-3.14-.59-3.49-2.58-.03-.18-.05-.35-.06-.53l-1.45,.52s2.56,7.31,2.82,12.22c.26,4.91-.94,13.3-.94,13.3l3.19,1.62s2.39-7.73,1.81-15.21c-.29-3.72-.93-7.07-1.5-9.5-.12,.07-.25,.13-.38,.18Z"/>
      </g>
      <g>
        <ellipse class="cls-14" cx="138.91" cy="102.62" rx="18.47" ry="29.31" transform="translate(-33.42 114.03) rotate(-40.24)"/>
        <ellipse class="cls-4" cx="141.18" cy="104.3" rx="14.84" ry="23.54" transform="translate(-33.96 115.89) rotate(-40.24)"/>
        <path class="cls-15" d="M127.81,111.25c-.51-.93-.54-1.77-.06-1.89s.66,.89,1.17,1.82,1.17,1.42,.69,1.54-1.29-.54-1.8-1.46Z"/>
        <polygon class="cls-15" points="156.31 121.55 152.02 120.59 152.38 117.79 156.5 120.15 156.31 121.55"/>
        <path class="cls-1" d="M153.67,97.96c-1.9,.04-4.01-1.34-4.73-3.08-.06-.15-.11-.31-.15-.45l-1.74,.03s4.21,6.74,5.21,10.86,.64,10.72,.64,10.72l4.21,2.2s1.94-5.73,.18-12.07c-.87-3.15-2.13-6.09-3.18-8.25-.15,.02-.29,.04-.45,.04Z"/>
      </g>
      <g>
        <path class="cls-11" d="M174.26,169.69c-12.72,9.39-27.09,9.74-31.8,3.36-4.7-6.37,1.8-19.15,14.52-28.54,12.72-9.39,26.85-11.84,31.55-5.47s-1.56,21.25-14.28,30.64Z"/>
        <g class="cls-19">
          <path class="cls-10" d="M186.58,137.19c-5.95-3.87-18.31-.99-29.57,7.32-10.48,7.73-16.74,17.77-15.99,24.62,17.9-23.47,38.42-30.22,45.56-31.94Z"/>
          <path class="cls-10" d="M188.56,139.04s-.07-.09-.1-.13c-6.16,14.63-38.44,30.33-46.91,32.43,.24,.61,.55,1.18,.94,1.71,4.7,6.37,19.07,6.03,31.8-3.36,12.72-9.39,18.98-24.27,14.28-30.64Z"/>
        </g>
        <path class="cls-17" d="M178.64,151.16c-3.63,2.68-8.07,2.31-9.74,.04s-.09-6.27,3.54-8.95c3.63-2.68,7.92-3.01,9.59-.74,1.67,2.27,.23,6.97-3.39,9.65Z"/>
      </g>
      <g>
        <path class="cls-9" d="M90.97,149.51c1.41-15.75,10.68-26.73,18.57-26.03,7.89,.71,13.14,14.05,11.73,29.8-1.41,15.75-8.95,27.95-16.84,27.24s-14.87-15.26-13.46-31.01Z"/>
        <g class="cls-19">
          <path class="cls-12" d="M106.91,180.29c6.94-1.9,13.08-13.05,14.35-26.99,1.18-12.97-2.22-24.31-7.93-28.3,5.76,28.96-2.92,48.8-6.43,55.29Z"/>
          <path class="cls-12" d="M104.17,180.54c.06,0,.11,0,.17,.01-6.96-14.31,2.86-48.89,6.97-56.62-.62-.23-1.27-.37-1.93-.43-8-.7-17.41,10.28-18.85,26.04-1.44,15.75,5.64,30.3,13.65,31.01Z"/>
        </g>
        <path class="cls-17" d="M101.94,165.07c.4-4.49,3.62-7.57,6.43-7.32s4.75,4.09,4.35,8.58-3,7.93-5.81,7.67-5.37-4.45-4.97-8.94Z"/>
      </g>
      <g>
        <path class="cls-14" d="M.68,183.78c1.41-15.75,10.68-26.73,18.57-26.03,7.89,.71,13.14,14.05,11.73,29.8-1.41,15.75-8.95,27.95-16.84,27.24S-.73,199.53,.68,183.78Z"/>
        <g class="cls-18">
          <path class="cls-13" d="M16.84,214.56c6.84-1.89,12.89-13.05,14.14-26.98,1.16-12.97-2.2-24.31-7.82-28.3,5.69,28.97-2.86,48.8-6.31,55.28Z"/>
          <path class="cls-8" d="M14.15,214.81c.06,0,.11,0,.17,.01-6.86-14.32,2.8-48.88,6.85-56.62-.62-.23-1.25-.37-1.91-.43-7.89-.71-17.16,10.28-18.57,26.03-1.41,15.75,5.57,30.31,13.46,31.01Z"/>
        </g>
        <path class="cls-17" d="M11.66,199.35c.4-4.49,3.62-7.57,6.43-7.32s4.75,4.09,4.35,8.58-3,7.93-5.81,7.67c-2.8-.25-5.37-4.45-4.97-8.94Z"/>
      </g>
      <g>
        <path class="cls-11" d="M30.06,165.49c-1.68-15.72,5.28-28.3,13.15-29.14,7.88-.84,15.62,11.22,17.3,26.95,1.68,15.72-3.34,29.15-11.22,29.99s-17.56-12.08-19.24-27.8Z"/>
        <g class="cls-19">
          <path class="cls-10" d="M51.89,192.54c6.34-3.19,10.11-15.3,8.62-29.22-1.38-12.95-6.88-23.42-13.18-26.24,11.21,27.31,6.68,48.42,4.56,55.46Z"/>
          <path class="cls-10" d="M49.3,193.31c.06,0,.11-.01,.16-.02-9.52-12.71-6.76-48.5-4.29-56.87-.65-.1-1.3-.12-1.95-.05-7.88,.84-14.83,13.42-13.16,29.14,1.68,15.72,11.36,28.64,19.24,27.8Z"/>
        </g>
        <path class="cls-17" d="M43.85,178.63c-.48-4.48,2.08-8.13,4.88-8.43,2.8-.3,5.46,3.09,5.94,7.57s-1.4,8.36-4.2,8.66c-2.8,.3-6.14-3.32-6.62-7.8Z"/>
      </g>
      <g>
        <path class="cls-9" d="M89.55,103.8c12.88,9.17,17.68,22.72,13.08,29.17s-18.76,4.25-31.64-4.93c-12.88-9.17-19.6-21.84-15.01-28.29,4.59-6.45,20.68-5.13,33.57,4.04Z"/>
        <g class="cls-19">
          <path class="cls-12" d="M54.93,102.01c-1.87,6.95,4.66,17.88,16.05,26.02,10.6,7.57,22.1,10.36,28.43,7.45-27.91-9.66-40.64-27.17-44.47-33.47Z"/>
          <path class="cls-12" d="M56.09,99.52s-.06,.09-.09,.14c15.87,1.23,40.75,27.16,45.35,34.61,.51-.42,.96-.91,1.35-1.45,4.65-6.55-.08-20.22-12.95-29.42-12.87-9.2-29-10.43-33.65-3.88Z"/>
        </g>
        <path class="cls-17" d="M70.57,105.41c3.67,2.61,4.7,6.95,3.07,9.24-1.63,2.29-5.93,2.03-9.61-.58-3.67-2.61-5.32-6.59-3.69-8.89,1.63-2.29,6.56-2.39,10.23,.22Z"/>
      </g>
      <g>
        <path class="cls-9" d="M96.69,441.33c13.78-8.82,28.64-8.19,33.06-1.29,4.42,6.9-3.17,19.65-16.96,28.47-13.78,8.82-28.54,10.38-32.95,3.47s3.07-21.83,16.85-30.66Z"/>
        <g class="cls-19">
          <path class="cls-12" d="M81.6,473.87c5.95,4.48,18.96,2.44,31.18-5.35,11.37-7.25,18.49-17.21,18.14-24.41-20.05,23.06-41.78,28.51-49.31,29.75Z"/>
          <path class="cls-12" d="M79.66,471.79s.07,.1,.1,.14c7.31-14.76,41.82-28.62,50.75-30.15-.21-.65-.5-1.27-.87-1.85-4.49-6.99-19.44-7.74-33.24,1.06-13.8,8.8-21.22,23.81-16.73,30.8Z"/>
        </g>
        <path class="cls-17" d="M90.9,460.17c3.93-2.51,8.49-1.83,10.06,.63,1.57,2.45-.34,6.48-4.27,9-3.93,2.51-8.39,2.56-9.96,.11-1.57-2.45,.24-7.22,4.17-9.73Z"/>
      </g>
      <g>
        <path class="cls-14" d="M105.57,8.56c12.88,9.17,17.68,22.72,13.08,29.17-4.59,6.45-18.76,4.25-31.64-4.93-12.88-9.17-19.6-21.84-15.01-28.29s20.68-5.13,33.57,4.04Z"/>
        <g class="cls-18">
          <path class="cls-13" d="M70.84,6.97c-1.82,6.86,4.75,17.71,16.15,25.83,10.61,7.55,22.09,10.38,28.38,7.54-27.87-9.72-40.67-27.11-44.53-33.37Z"/>
          <path class="cls-8" d="M71.99,4.51s-.06,.09-.09,.14c15.82,1.31,40.78,27.11,45.41,34.51,.51-.42,.95-.89,1.34-1.43,4.59-6.45-.2-20-13.08-29.17C92.67-.62,76.58-1.94,71.99,4.51Z"/>
        </g>
        <path class="cls-17" d="M86.59,10.17c3.67,2.61,4.7,6.95,3.07,9.24-1.63,2.29-5.93,2.03-9.61-.58-3.67-2.61-5.32-6.59-3.69-8.89,1.63-2.29,6.56-2.39,10.23,.22Z"/>
      </g>
      <g>
        <path class="cls-14" d="M94.98,369.61c-10.63-11.7-12.44-25.96-6.58-31.29,5.86-5.33,19.23-.15,29.87,11.55,10.63,11.7,14.5,25.51,8.64,30.84-5.86,5.33-21.3,.61-31.94-11.1Z"/>
        <g class="cls-18">
          <path class="cls-13" d="M128.57,378.56c3.24-6.32-.87-18.32-10.28-28.68-8.76-9.64-19.37-14.85-26.12-13.41,25.17,15.43,33.97,35.15,36.4,42.08Z"/>
          <path class="cls-8" d="M126.93,380.72s.08-.08,.12-.11c-15.18-4.65-34.07-35.17-37.02-43.38-.58,.3-1.12,.67-1.61,1.11-5.86,5.33-4.06,19.59,6.58,31.29,10.63,11.7,26.07,16.42,31.94,11.1Z"/>
        </g>
        <path class="cls-17" d="M113.87,372.08c-3.03-3.34-3.11-7.79-1.03-9.69s6.23-.72,9.26,2.61c3.03,3.34,3.8,7.58,1.71,9.47-2.08,1.89-6.92,.94-9.95-2.4Z"/>
      </g>
      <g>
        <path class="cls-11" d="M72.1,383.36c-4.11,9.78-17.67,16.02-30.86,9.05-13.2-6.98-21.48-22.54-18.49-34.77,2.98-12.23,16.1-16.49,29.29-9.51,13.2,6.98,24.74,24.11,20.07,35.24Z"/>
        <path class="cls-3" d="M68.65,380.37c1.27-9.07-7.39-20.15-19.33-24.75-11.94-4.6-21.3-4.33-23.97,4.03-3.28,10.26,5.06,27.48,17,32.08,11.94,4.6,25.04-2.29,26.31-11.35Z"/>
        <path class="cls-5" d="M47.94,375.46c-11.14-26.03-10.47,2.59-21.73-15.27-3.84-6.08,14.24-14.93,25.82-8.81,11.58,6.12,19.43,20.36,16.11,30.98-1.01,3.25-4.01-3.85-7.92-4.61s-10.76,1.25-12.28-2.3Z"/>
        <path class="cls-16" d="M50.1,353.5c-7.31-3.29-14.82-1.91-13.45-3.38,1.7-1.81,6.66-2.8,13.98,.49,7.31,3.29,11.43,8.52,12.51,11.42,.86,2.31-5.72-5.25-13.04-8.54Z"/>
      </g>
      <g>
        <path class="cls-14" d="M158.4,317.67c2.06-15.68,11.77-26.27,19.63-25.24,7.85,1.03,12.55,14.58,10.49,30.26-2.06,15.68-10.09,27.55-17.95,26.52-7.85-1.03-14.23-15.86-12.17-31.54Z"/>
        <g class="cls-18">
          <path class="cls-13" d="M173.28,349.09c6.91-1.61,13.42-12.5,15.24-26.38,1.7-12.91-1.19-24.38-6.65-28.6,4.49,29.18-4.87,48.64-8.59,54.98Z"/>
          <path class="cls-8" d="M170.57,349.23c.06,0,.11,.01,.16,.02-6.27-14.59,4.81-48.73,9.18-56.29-.61-.25-1.23-.42-1.89-.51-7.85-1.03-17.57,9.56-19.63,25.24-2.06,15.68,4.32,30.51,12.17,31.54Z"/>
        </g>
        <path class="cls-17" d="M168.72,333.68c.59-4.47,3.93-7.41,6.72-7.05,2.79,.37,4.58,4.29,3.99,8.76-.59,4.47-3.33,7.79-6.12,7.43-2.79-.37-5.19-4.67-4.6-9.14Z"/>
      </g>
    </g>
  </g>
</svg>