<?xml version="1.0" encoding="UTF-8"?>
<svg id="_圖層_2" data-name="圖層 2" xmlns="http://www.w3.org/2000/svg" xmlns:xlink="http://www.w3.org/1999/xlink" viewBox="0 0 484.64 865.4">
  <defs>
    <style>
      .cls-1 {
        fill: #bd8068;
      }

      .cls-2 {
        clip-path: url(#clippath-1);
      }

      .cls-3 {
        stroke: #000;
        stroke-miterlimit: 10;
        stroke-width: 2px;
      }

      .cls-3, .cls-4 {
        fill: none;
      }

      .cls-5 {
        clip-path: url(#clippath);
      }

      .cls-6 {
        fill: #54adaf;
      }
    </style>
    <clipPath id="clippath">
      <rect class="cls-4" x="49.15" y="47.6" width="401" height="769.12"/>
    </clipPath>
    <clipPath id="clippath-1">
      <rect class="cls-4" x="51.93" y="438.17" width="432.71" height="425.55"/>
    </clipPath>
  </defs>
  <g id="_圖層_1-2" data-name="圖層 1">
    <g>
      <rect class="cls-6" width="401" height="769.12"/>
      <g>
        <rect class="cls-3" x="48.82" y="47.6" width="401" height="769.12"/>
        <g class="cls-5">
          <g>
            <line class="cls-3" x1="348.72" y1="-6.15" x2="348.72" y2="623.02"/>
            <line class="cls-3" x1="239.46" y1="3.41" x2="348.72" y2="623.02"/>
            <line class="cls-3" x1="133.53" y1="31.79" x2="348.72" y2="623.02"/>
            <line class="cls-3" x1="34.13" y1="78.14" x2="348.72" y2="623.02"/>
            <line class="cls-3" x1="-55.71" y1="141.05" x2="348.72" y2="623.02"/>
            <line class="cls-3" x1="-133.26" y1="218.6" x2="348.72" y2="623.02"/>
            <line class="cls-3" x1="-196.16" y1="308.44" x2="348.72" y2="623.02"/>
            <line class="cls-3" x1="-242.51" y1="407.83" x2="348.72" y2="623.02"/>
            <line class="cls-3" x1="-270.9" y1="513.77" x2="348.72" y2="623.02"/>
            <line class="cls-3" x1="-280.45" y1="623.02" x2="348.72" y2="623.02"/>
            <line class="cls-3" x1="-270.9" y1="732.28" x2="348.72" y2="623.02"/>
            <line class="cls-3" x1="-242.51" y1="838.21" x2="348.72" y2="623.02"/>
            <line class="cls-3" x1="-196.16" y1="937.61" x2="348.72" y2="623.02"/>
            <line class="cls-3" x1="-133.26" y1="1027.45" x2="348.72" y2="623.02"/>
            <line class="cls-3" x1="-55.71" y1="1105" x2="348.72" y2="623.02"/>
            <line class="cls-3" x1="34.13" y1="1167.9" x2="348.72" y2="623.02"/>
            <line class="cls-3" x1="133.53" y1="1214.25" x2="348.72" y2="623.02"/>
            <line class="cls-3" x1="239.46" y1="1242.64" x2="348.72" y2="623.02"/>
            <line class="cls-3" x1="348.72" y1="1252.2" x2="348.72" y2="623.02"/>
            <line class="cls-3" x1="457.97" y1="1242.64" x2="348.72" y2="623.02"/>
            <line class="cls-3" x1="563.91" y1="1214.25" x2="348.72" y2="623.02"/>
            <line class="cls-3" x1="663.31" y1="1167.9" x2="348.72" y2="623.02"/>
            <line class="cls-3" x1="753.14" y1="1105" x2="348.72" y2="623.02"/>
            <line class="cls-3" x1="830.69" y1="1027.45" x2="348.72" y2="623.02"/>
            <line class="cls-3" x1="893.6" y1="937.61" x2="348.72" y2="623.02"/>
            <line class="cls-3" x1="939.95" y1="838.21" x2="348.72" y2="623.02"/>
            <line class="cls-3" x1="968.33" y1="732.28" x2="348.72" y2="623.02"/>
            <line class="cls-3" x1="977.89" y1="623.02" x2="348.72" y2="623.02"/>
            <line class="cls-3" x1="968.33" y1="513.77" x2="348.72" y2="623.02"/>
            <line class="cls-3" x1="939.95" y1="407.83" x2="348.72" y2="623.02"/>
            <line class="cls-3" x1="893.6" y1="308.44" x2="348.72" y2="623.02"/>
            <line class="cls-3" x1="830.69" y1="218.6" x2="348.72" y2="623.02"/>
            <line class="cls-3" x1="753.14" y1="141.05" x2="348.72" y2="623.02"/>
            <line class="cls-3" x1="663.31" y1="78.14" x2="348.72" y2="623.02"/>
            <line class="cls-3" x1="563.91" y1="31.79" x2="348.72" y2="623.02"/>
            <line class="cls-3" x1="457.97" y1="3.41" x2="348.72" y2="623.02"/>
            <line class="cls-3" x1="348.72" y1="-6.15" x2="348.72" y2="623.02"/>
          </g>
        </g>
      </g>
      <g>
        <g class="cls-2">
          <path class="cls-1" d="m401.45,727.45c-3.7,6.81-10.3,10.82-15.9,15.84-8.47,7.59-14.54,16.99-20.25,26.7-9.43,16.03-16.87,32.94-23.29,50.25-5.59,15.09-10.23,30.53-15.2,45.84-.9,2.77-2.12,4.66-5.31,5.59-11.69,3.41-23.25,7.26-34.93,10.71-2.52.74-5.37.52-8.07.65-2.83.13-3.9-1.53-3.31-3.92.95-3.85,1.86-7.79,3.46-11.39,6.47-14.56,13.12-29.04,19.86-43.48,4.97-10.64,10.12-21.2,15.32-31.73,4.2-8.51,8.62-16.93,12.92-25.39,5.56-10.92,11.07-21.86,16.66-32.76,2.79-5.44,5.76-10.8,8.59-16.23.74-1.42,1.25-2.96,1.95-4.64-.57,0-.97-.04-1.35.03-7.52,1.44-14.06-.53-19.55-5.71-5.45-5.15-12.21-7.02-19.4-8.23-4.21-.71-8.32-2.01-12.45-3.14-3.21-.88-5.62-2.8-7.88-5.26-6.83-7.42-13.93-14.61-20.92-21.89-.31.18-.61.35-.92.53.22,2.94.81,5.91.6,8.82-.47,6.35-1.08,12.71-2.22,18.96-.42,2.32-2.19,4.61-3.89,6.42-3.62,3.84-9.45,2.94-11.09-2.05-1.6-4.88-2-10.14-2.69-15.26-.46-3.42-.34-6.91-.79-10.32-.18-1.38-.91-3.36-1.94-3.78-.99-.41-3.07.47-4.01,1.41-4.44,4.46-10.06,5.87-16.12,6.39-2.33.2-4.64.4-6.08-1.99-1.55-2.57-.73-4.92.68-7.19,1.18-1.9,2.58-3.7,3.54-5.7,1.44-3.01.76-4.68-2.32-6.21-2.99-1.49-6.17-2.65-9.04-4.32-2.09-1.22-3.78-3.08-5.72-4.56-.89-.67-1.96-1.11-2.96-1.63-4.15-2.13-8.71-3.73-12.37-6.49-6.33-4.77-5.13-11.24,2.27-14.17,7.25-2.87,14.79-1.99,22.21-.71,5.94,1.02,11.78,2.65,17.99,4.08,1.64-3.95,2.93-8.28,5.18-12.07,1.59-2.68,4.12-5.21,6.85-6.78,5.45-3.13,8.99-7.71,12.02-12.83,5.39-9.11,10.48-18.4,16.12-27.36,3.32-5.29,4.51-5.3,10.83-1.65,5.42,3.12,9.3,8.02,12.12,13.45,6.26,12.07,15.62,21.46,26.5,29.5,2.6,1.92,5.94,3.06,9.1,4.04,3.08.95,5.26-.72,5.12-3.92-.11-2.59-.69-5.28-1.64-7.72-6.15-15.7-15.27-29.84-25.14-43.51-7.1-9.84-13.76-19.87-18.8-30.84-2.1-4.58-5.14-8.25-9.3-11.29-5.36-3.92-10.48-8.18-13.64-14.18-1.93-3.67-5.39-5.49-8.98-7.34-11.02-5.7-21.14-12.6-27.82-23.21-3.66-5.8-5.45-12.12-3.87-19.01,1.27-5.52,4.24-9.37,10.12-10.67l1.75.7c4.34,5.2,8.34,10.72,13.12,15.5,5.47,5.47,11.08,10.62,15.62,17.02,7.37,10.39,15.71,20.14,23.69,30.12,1.02,1.27,2.21,2.46,3.52,3.45,3.38,2.55,6.87,4.98,10.32,7.44,3.45,2.47,6.76,4.89,8.82,8.87,4.01,7.76,8.32,15.39,12.89,22.86,5.38,8.78,11.3,17.26,20.21,23.12,4.19,2.75,6.55,6.42,7.87,11.03.48,1.69,1.39,3.53,2.69,4.68,2.66,2.35,4.08,5.1,4.57,8.46,1.6,11.01,5.29,21.41,9.98,31.53,9.21,19.89,18.36,39.8,27.48,59.72,2.49,5.43,3.4,11.09,2.13,16.98-.89,4.14-1.64,8.32-2.46,12.48-1.02,2.45-2.04,4.91-3.06,7.36Zm-83.54-84.79c-1.58-.12-3.13-.18-4.66-.37-3.3-.4-6.86-.23-9.82-1.44-9.08-3.71-18.38-6.45-28.15-7.22-3.97-.31-8.04.24-12.02.7-2.24.26-3.4,1.92-3.29,4.15.12,2.37-.33,4.95,2.71,6.27,5.58,2.41,11.11,4.92,16.63,7.46,3.17,1.46,6.23,1.94,9.69.76,4.63-1.58,9.25-.58,12.42,2.96,3.46,3.87,7.62,6.38,12.28,8.23,6.46,2.56,13.22,3.11,20.01,1.76,3.13-.62,3.97-2.49,2.49-5.28-4.13-7.8-11.02-12.98-18.27-17.99Zm-38.81-24.31c6.27,2.37,12.68,2.35,19.04,2.47,1.5.03,3.09-.58,4.5-1.19,3.23-1.38,3.99-3.65,2.31-6.71-1.94-3.54-5.27-5.4-8.89-7-3.39-1.5-6.63-3.35-10.02-4.87-1.1-.5-2.78-1.02-3.64-.56-4.79,2.55-8.06,6.45-8.86,11.81-.19,1.28.85,3.05,1.85,4.13.91.99,2.54,1.36,3.71,1.93Z"/>
        </g>
        <g>
          <path d="m285.76,518.62c6.71,5.29,13.08,10.69,15.36,19.79,2.65-3.32,6.06-3.55,9.17-4.43.4-.11.94.29,1.41.45-.18.48-.22,1.15-.57,1.4-.61.44-1.38.77-2.13.88-2.62.39-4.97,1.13-6.25,3.71,1.8,5.65,6.8,9.23,9.38,14.25,2.81-.71,5.47-1.46,8.17-2.03,1.06-.23,2.26-.28,3.29-.01.59.15.98,1.1,1.45,1.69-.61.18-1.23.56-1.83.51-3.43-.26-6.53.91-9.66,1.92,6.11,9.44,12.11,18.71,18.26,28.21.59-.12,1.48-.45,2.38-.47,3.82-.08,7.63-.07,11.45-.07.32,0,.66.11.97.24.88.37,1.96.76,1.5,1.98-.42,1.12-1.33.48-2.13.31-4.44-.94-8.88-1.12-13.59.34,1.03,1.85,1.71,3.68,2.9,5.07,2.86,3.34,4.67,7.13,5.76,11.34,1.24,4.79,2.63,9.53,3.85,14.33.7,2.74-.3,4.18-3.09,4.52-4.21.51-7.99-.36-11.26-3.35-1.94-1.77-4.31-3.07-6.45-4.62-1.21-.87-2.4-1.78-3.54-2.74-1.52-1.29-2.98-2.65-4.55-4.05-.68,1.05-1.2,1.97-1.83,2.81-.42.57-.9,1.2-1.51,1.51-.42.22-1.09-.05-1.65-.1.09-.49.05-1.07.3-1.46.92-1.43,1.94-2.81,2.98-4.27-3.01-2.85-4.62-6.27-5.96-9.92-.58-1.57-1.83-2.9-2.83-4.29-1.9-2.64-3.85-5.25-6.02-8.2,0,2.78.05,5.19-.03,7.6-.02.69-.26,1.47-.65,2.01-.28.38-1,.42-1.53.61-.15-.49-.45-.98-.43-1.46.13-3.21.39-6.41.49-9.62.09-2.86-1.95-4.69-3.69-6.47-1.8-1.85-3.93-3.46-6.12-4.85-3.37-2.13-7.5-.03-8.03,3.94-.07.49.23,1.06.47,1.54.32.64.87,1.2,1.08,1.87.16.52-.03,1.16-.07,1.75-.58-.2-1.28-.26-1.7-.64-.58-.53-.95-1.31-1.55-2.18-.52.75-.99,1.29-1.31,1.9-1.58,2.98-3.15,5.96-4.68,8.97-1.87,3.66-3.47,7.48-5.6,10.98-2.3,3.77-5.07,7.26-7.67,10.85-.31.42-.87.65-1.23,1.24,5.02-.89,8.23,2.95,12.34,4.2,1.56.47,2.22.3,2.75-1.21.93-2.63,1.55-5.2-.26-7.79-.31-.44-.18-1.75.18-1.99.97-.63,1.43.31,1.81,1.07.51,1.03,1.02,2.06,1.49,3.02,1.43-1.71,2.99-3.36,4.27-5.21.42-.6.38-1.78.13-2.56-.82-2.52-1.83-4.97-2.77-7.45-.16-.41-.47-.83-.44-1.23.03-.49.34-.97.53-1.45.5.24,1.29.35,1.45.73,1.19,2.79,2.27,5.64,3.36,8.47.16.4.21.84.34,1.41,1.96-1.14,3.81-2.43,6.38-1.08.32-2.2.64-4.15.88-6.11.1-.83-.04-1.87,1.16-1.83,1.3.05,1.17,1.16,1.05,2.03-.27,2.03-.66,4.05-.94,6.09-.06.43-.06,1.08.19,1.32,2.19,2.03,4.34,4.15,7.47,5.21.28-.98.57-1.91.81-2.86.17-.64.2-1.33.44-1.95.36-.93.51-2.42,1.92-2,1.33.39.5,1.58.29,2.43-.44,1.82-.93,3.63-1.43,5.54,3.33,3.16,6.8,6.47,10.42,9.91-.06.03.18-.17.43-.17.46,0,1.22-.01,1.31.2.17.41.04,1.01-.13,1.48-.28.79-.57,1.62-1.05,2.29-.39.54-1.04,1.16-1.63,1.22-2.58.28-5.17.38-7.9.55.7,2.01,1.53,3.95,2.06,5.97.59,2.24.99,4.55,1.29,6.85.07.57-.57,1.23-.88,1.85-.4-.55-.99-1.05-1.17-1.67-1.21-4.03-2.32-8.09-3.49-12.14-.29-1-.86-1.51-2.04-1.49-1.99.05-4.03.07-5.99-.25-3.71-.61-7.38-1.46-11.05-2.24-.85-.18-1.68-.48-2.87-.83.79,1.58,1.43,2.83,2.05,4.09.27.55.64,1.09.72,1.67.07.56-.18,1.17-.29,1.75-.54-.25-1.32-.36-1.58-.79-1-1.67-1.9-3.4-2.69-5.17-.49-1.08-1.25-1.3-2.3-1.68-3.53-1.27-7.07-2.64-10.37-4.42-3.3-1.78-6.29-1.74-9.4.01,1.5,1,3.11,1.82,4.38,3.01,1.05.99,1.78,2.37,2.47,3.67.19.35-.27,1.04-.44,1.58-.52-.28-1.15-.45-1.55-.85-1.35-1.35-2.43-3.07-3.98-4.11-3.08-2.09-5.26-2.13-7.54.71-3.37,4.19-6.67,8.6-7.82,14.2,7.03,2.85,13.99,5.67,20.94,8.48.57-1.88-.2-3.45-1.66-4.79-1.06-.98-2.24-1.85-3.18-2.94-.4-.47-.32-1.35-.46-2.05.66.16,1.47.13,1.96.51,1.4,1.08,2.68,2.33,4.14,3.63,1.9-2.08,4.49-2.83,7.17-3.38,1.25-.26,1.14-1.2,1.02-2.07-.27-1.92-.62-3.84-.94-5.75-.08-.49-.31-1.02-.21-1.47.11-.51.51-.96.79-1.44.42.36,1.12.66,1.21,1.09.54,2.66.95,5.35,1.4,8.03.06.37.07.75.11,1.22,6.51-.08,11.99,3.12,18.11,5.49-.33-2.14-.68-3.97-.86-5.81-.06-.64.28-1.32.44-1.98.56.44,1.46.79,1.6,1.33.46,1.82.74,3.7.91,5.57.1,1.09.45,1.66,1.51,2.04,2.51.89,4.9,2.2,7.46,2.85,5.69,1.43,11.53,1.37,17.36,1.21-.35-1.98-.73-3.83-.99-5.69-.11-.8-.16-1.91,1.02-1.85.4.02.88,1.04,1.11,1.68.79,2.19,1.46,4.43,2.23,6.63.09.26.46.45.74.62,7.65,4.75,13.96,10.79,18.19,18.84.05.09.14.17.07.08.8-.38,1.5-.89,2.28-1.06,3.56-.8,7.18-1,10.75-.21,1.23.27,2.37,1.1,3.45,1.84.25.17.24,1.06.03,1.45-.13.24-1,.37-1.3.18-4.1-2.56-8.44-1.78-12.79-1.04-.53.09-1.06.18-1.6.27-.01,2.43,1.26,5.16-1.99,7.07,1.47,2.07,2.92,4.07,4.3,6.11.29.43.33,1.04.49,1.57-.6.08-1.24.33-1.78.18-.47-.12-.9-.63-1.22-1.07-.75-1.03-1.67-2.04-2.08-3.21-1.01-2.91-2.92-3.5-5.83-3.39-5.37.21-10.6-.78-15.6-2.94-3-1.3-6.13-2.31-9.18-3.44.52,2.87,1.06,5.83,1.57,8.79.11.6.3,1.26.16,1.81-.18.71-.65,1.34-1,2-.44-.59-1.13-1.13-1.28-1.79-.33-1.51-.22-3.13-.62-4.61-.86-3.14-2.07-6.19-2.88-9.34-.64-2.5-2.17-4.24-4.21-5.48-.97-.6-2.53-.96-3.56-.62-4.84,1.62-9.62,1.21-14.74-.06.51,1.69.99,3.08,1.34,4.5.29,1.18.54,2.39.57,3.6.01.5-.59,1.02-.91,1.54-.4-.44-1.01-.81-1.16-1.32-.75-2.5-1.29-5.06-2.1-7.53-.23-.7-1.02-1.38-1.72-1.75-3.63-1.93-7.28-3.82-10.99-5.59-2.63-1.26-5.08-2.68-7.14-4.8-.91-.93-2.1-1.72-3.31-2.21-6.18-2.49-12.41-4.86-18.63-7.26-.34-.13-.72-.15-.69-.14,1.12,3.16,2.31,6.41,3.41,9.68.21.61.26,1.36.09,1.97-.13.48-.7.84-1.07,1.26-.36-.37-.93-.68-1.05-1.12-.28-1.01-.25-2.1-.51-3.11-.84-3.21-2.31-6.03-4.48-8.63-1.25-1.49-2.71-2.1-4.3-2.73-5.12-2.03-10.4-3.14-16.02-2.55,1,1.55,1.99,3.05,2.94,4.57.23.37.5.8.53,1.21.05.68-.07,1.38-.12,2.07-.64-.38-1.47-.61-1.88-1.16-.89-1.2-1.44-2.64-2.33-3.83-2.93-3.86-4.99-4.63-9.48-2.87-3.29,1.29-6.41,3.06-9.45,4.87-2.1,1.25-2.3,3.09-1.08,5.17,1.65,2.82,3.84,4.9,6.93,6.2,3.73,1.57,7.35,3.44,10.94,5.31,1.56.81,3.05,1.85,4.38,3,2.07,1.8,4.4,2.89,7.04,3.61,2.4.66,4.75,1.58,7.01,2.63,5.77,2.67,11.91,3.24,18.07,2.93,4.29-.22,8.42,0,12.55,1.04.21.05.43.07.93.14-1.07-1.9-2.09-3.58-2.95-5.33-.27-.54-.11-1.29-.15-1.94.65.23,1.53.28,1.92.74.81.97,1.38,2.14,2,3.26,1.37,2.47,3.12,4.47,5.74,5.78,4.27,2.14,7.98,4.97,11.48,8.37,4.69,4.56,8.98,9.36,13.05,14.45,2.55,3.19,5.72,5.89,8.71,8.72,1.02.97,2.31,1.35,3.84.87.98-.31,2.1-.09,3.14-.27,4.37-.75,8.32-2.45,11.58-5.49.95-.89,1.53-2.16,2.4-3.15.37-.42,1.03-.58,1.56-.85.18.58.61,1.22.48,1.71-.63,2.33-2.27,4-4.21,5.21-2.81,1.74-5.81,3.17-8.64,4.69.82.12,1.91.32,3.01.42,1.11.1,2.22.16,3.33.14,5.3-.09,9.84,2.06,14.07,4.94,1.07.73,1.89.92,3.01.38,3.39-1.64,6.79-3.28,10.22-4.83.49-.22,1.18-.01,1.78,0-.15.63-.1,1.57-.5,1.83-1.57,1.04-3.23,1.94-4.93,2.74-1.9.9-3.88,1.63-5.94,2.49,1.82,1.22,3.49,2.41,5.25,3.46.5.3,1.36.4,1.88.18,1.66-.71,3.22-1.65,4.85-2.43.52-.25,1.16-.27,1.74-.4-.05.65.14,1.58-.21,1.89-1.21,1.09-2.61,1.97-3.95,2.93,3.48,2.57,7.34,1.91,11.2,1.01.48-.11.75-.93,1.23-1.22.54-.32,1.22-.41,1.84-.6.03.58.1,1.16.07,1.73-.01.25-.29.48-.34.75-1.6,8.35-6.44,15.17-10.47,22.38-2.79,4.99-5.6,9.99-8.01,15.17-1.53,3.3-2.35,6.93-3.43,10.22,6.06-.13,11.52,1.37,16.34,4.95.49.36.92,1.64.66,2.03-.62.95-1.42.22-2.1-.28-3.6-2.64-7.74-3.84-12.08-4.42-1.04-.14-2.11-.02-3.05-.02-2.6,4.5-5.57,9.17-8.06,14.08-4.05,7.98-7.74,16.13-11.67,24.17-.75,1.53-1.89,2.85-2.82,4.3-2.1,3.26-4.18,6.54-6.25,9.81-.3.47-.44,1.04-.78,1.47-3.26,4.14-4.53,9.05-5.84,14.03-.81,3.08-2.33,6-3.8,8.86-2.8,5.45-3.94,11.31-4.73,17.28-.14,1.06-.35,1.98-1.6,1.83-1.25-.15-1.09-1.19-.96-2.1,1.1-7.89,3.37-15.34,7.14-22.43,1.66-3.12,2.14-6.86,3.25-10.29.47-1.47,1.08-2.92,1.82-4.26,1.72-3.11,3.47-6.22,5.37-9.22,1.6-2.52,3.5-4.85,5.16-7.33.98-1.47,1.86-3.03,2.63-4.62,3.6-7.46,7.1-14.96,10.74-22.4,1-2.04,2.26-3.96,3.54-5.84,3.41-5.02,4.98-10.78,6.69-16.47,1.48-4.94,3.68-9.53,6.29-13.95,2.86-4.83,5.77-9.64,8.54-14.52,1.4-2.46,2.56-5.06,3.77-7.62.41-.88.62-1.85.97-2.92-.9.05-1.57,0-2.2.14-5.88,1.43-10.63-1.31-15.28-4.21-3.95-2.47-7.7-5.27-11.71-7.63-3.34-1.97-7.11-2.47-11.02-2.75-4.78-.34-9.52-1.46-14.24-2.43-1.05-.22-1.96-1.2-2.91-1.86-.27-.19-.42-.53-.67-.74-7.67-6.34-12.45-15.4-20.32-21.55-.86-.67-1.52-1.61-2.46-2.63.36,1.59,1.03,2.95.92,4.25-.58,6.58-1.08,13.18-2.17,19.69-.71,4.22-3.41,7.75-6.2,10.91-3.22,3.65-8.26,2.49-10.33-1.93-3.19-6.84-4.48-14.03-4.37-21.53.05-3.19-.21-6.32-1.62-8.84-3.18,1.8-6.38,3.62-9.6,5.43-.73.41-1.56.65-2.23,1.13-3.22,2.32-6.8,2.19-10.41,1.49-3.74-.73-7.36-4.2-4.88-9.99.35-.81.66-1.74,1.27-2.33,2.77-2.71,3.21-6.35,4.22-10.15-2.51-.95-5.02-2.13-7.66-2.84-3.14-.84-5.76-2.34-8.36-4.29-2.77-2.08-5.96-3.63-9.04-5.26-2.25-1.2-4.64-2.14-6.95-3.23-3.56-1.68-5.84-4.62-7.34-8.11-1.09-2.52-.08-5.01,2.02-6.35,4.18-2.67,8.28-5.74,13.43-6.32,1.74-.2,3.54.03,5.31.11,3.38.17,6.81.08,10.13.64,3.59.61,7.08,1.8,10.59,2.82,1.91.56,3.76,1.29,5.76,1.99.28-.64.57-1.11.69-1.63.74-3.09,2.72-5.55,4.11-8.31,2.22-4.42,5.96-7.03,9.68-9.85,3.67-2.79,6.86-6.01,9.43-9.99,3.27-5.07,5.5-10.66,8.62-15.77,3.29-5.39,5.63-11.3,9.53-16.35,2.72-3.52,6.25-3.98,10.04-1.83,2.65,1.51,5.15,3.62,7.08,5.99,4.63,5.68,8.91,11.66,13.28,17.55.65.88,1.22,1.9,1.52,2.94,1.33,4.67,4.38,8.04,8.03,10.99.99.8,1.89,1.72,2.91,2.5,1.53,1.17,3.13,2.26,4.68,3.4,1.91,1.41,3.95,2.69,5.67,4.31,2.57,2.42,5.58,3.06,8.92,2.86,1.24-.07,1.76-.59,1.37-1.95-1.68-5.82-3.21-11.68-4.99-17.47-.53-1.71-1.64-3.26-2.56-4.84-1.51-2.57-3.2-5.05-4.63-7.67-4.26-7.81-8.68-15.5-13.96-22.69-1.38-1.88-2.61-3.87-3.94-5.79-2.76-3.96-5.73-7.8-8.27-11.9-2.45-3.96-4.64-8.1-6.64-12.31-1.85-3.87-4.05-7.29-7.4-10.11-4.48-3.76-8.79-7.67-14.17-10.17-2.01-.93-3.21-2.78-3.91-4.82-2.72-7.94-8.75-12.28-16.31-14.66-4.95-1.56-8.86-4.18-11.74-8.5-2.43-3.65-5.26-7.05-7.54-10.78-3.75-6.12-5.14-12.91-4.14-20.02.72-5.12,3.74-8.98,7.89-11.89,2.45-1.71,6.19-1.02,8.6,1.16,4.37,3.96,8.03,8.46,10.87,13.63,1.24,2.25,3.04,3.92,5.25,5.23,3.33,1.97,5.83,4.48,7.05,8.46.8,2.61,2.71,4.96,4.44,7.17,1.62,2.07,3.52,3.99,5.57,5.65,3.52,2.86,5.6,6.75,7.91,10.46,1.78,2.87,3.18,5.98,4.81,8.95.41.75.95,1.5,1.59,2.05,4.2,3.64,8.44,7.15,13.93,8.87,3.88,1.21,6.42,4.2,8.28,7.81,2.82,5.48,5.64,10.98,8.7,16.32,2.73,4.77,5.36,9.72,8.83,13.92,5.44,6.58,9.91,13.95,16.49,19.64,4.11,3.56,7.48,7.78,9.09,13.32.64,2.2,2.59,4.37,4.51,5.79,4.49,3.32,6.02,7.91,6.82,13.05.67,4.33,1.5,8.64,2.32,12.95.16.86.49,1.76.99,2.46,4.46,6.24,6.28,13.58,8.65,20.68.72,2.16,1.04,4.45,1.83,6.58.67,1.79,1.77,3.41,2.65,5.12.69,1.33,1.43,2.65,1.98,4.04,1.99,5.12,3.66,10.38,5.92,15.38,1.74,3.86,3.94,7.56,6.37,11.04,3.57,5.12,6.29,10.61,6.87,16.77.66,7.04.18,14.16-1.6,21.04-1.78,6.85-4.53,13.19-10.27,17.92-2.54,2.09-4.44,4.95-6.66,7.44-2.11,2.36-4.18,4.76-6.38,7.02-5.81,5.96-10.77,12.57-14.99,19.74-3.19,5.41-6.44,10.78-9.65,16.18-5.2,8.76-7.13,18.51-9.27,28.34-1.62,7.45-4.13,14.89-8.17,21.58-2.49,4.13-4.98,8.27-7.45,12.41-1.76,2.94-2.65,6.1-2.35,9.56.03.33.02.67,0,1-.07.86.11,2.04-1.16,2.02-1.24-.02-1.06-1.16-1.13-2.04-.34-4.23.51-8.19,2.67-11.85,2.43-4.1,5.02-8.12,7.24-12.33,2-3.81,3.6-7.83,5.51-12.05-4.38.73-8.09.09-11.77-.73-5.59-1.25-11.15-2.65-16.25-5.38-1.6-.86-3.12-1.93-4.53-3.09-.47-.39-.48-1.34-.7-2.03.57-.09,1.43-.45,1.65-.21,3.03,3.23,7.04,4.63,11.05,5.9,5.78,1.83,11.63,3.38,17.77,3.52.89.02,1.77.58,2.69.9,1.91-3.97,2.87-8.48,3.6-13.12,1.89-11.93,7.1-22.5,13.71-32.46.89-1.34,1.8-2.69,2.54-4.11,3.8-7.3,8.76-13.8,14-20.08,1.63-1.96,3.68-3.55,5.41-5.43,1.83-1.99,3.51-4.13,5.02-5.92-5.97-3.03-11.86-5.88-17.6-8.99-2.77-1.5-5.29-3.48-7.9-5.27-.49-.34-1.03-.78-1.24-1.29-.16-.4-.01-1.17.29-1.46.24-.22,1.08-.13,1.41.14,7.12,5.77,15.18,9.82,23.63,13.19,1.03.41,2.06.81,3.15,1.23,2.44-2.42,4.95-4.85,7.41-7.35,2.12-2.15,2.06-4.83,1.09-7.33-1.69-4.34-3.64-8.58-5.61-12.8-.91-1.96-2.19-3.75-3.16-5.68-.26-.52-.04-1.29-.04-1.95.64.25,1.59.3,1.89.77,3.86,6,7.33,12.2,9.22,19.16.1.36.21.73.38,1.35,1.8-3.86,3.12-7.61,3.5-11.6.37-4.03.48-8.09.76-12.14.24-3.53-.52-6.87-1.85-10.09-.93-2.26-2.04-4.44-3.06-6.67-.43-.94-1.05-1.45-2.2-1.34-3.19.3-6.39.51-9.6.71-.43.03-1.18-.2-1.24-.44-.1-.44.05-1.23.37-1.41.74-.44,1.62-.77,2.47-.84,2.32-.2,4.65-.25,7.16-.36-1.45-3.05-2.25-6.42-6.15-7.46-2.57-.69-5.08-1.61-7.57-2.56-.65-.25-1.61-1.04-1.55-1.48.15-1.25,1.32-.98,2.14-.73,2.6.78,5.17,1.66,8.04,2.59-.58-1.93-.98-3.8-1.69-5.55-1.69-4.17-3.57-8.26-5.3-12.42-1.71-4.11-5.39-6.23-8.66-8.75-.66-.51-1.48-.98-.78-1.77.34-.38,1.49-.44,2.02-.16,1.11.58,2.05,1.47,3.27,2.4-.13-.72-.15-1.26-.32-1.74-2.17-6.24-4.36-12.48-6.56-18.71-.18-.52-.38-1.08-.71-1.51-4.47-5.81-5.02-12.81-5.93-19.68-.64-4.79-2-9.01-6.22-12.01-2.99-2.13-4.97-5.13-5.91-8.83-1.18-4.61-4.92-7.43-7.98-10.69-1.7-1.82-3.61-3.44-5.2-4.93-.91-.18-1.62-.34-2.34-.44-2.47-.35-4.93-.89-7.4-.96-2.54-.07-5.09.32-7.63.5-.5.04-1.06.2-1.48.03-.44-.17-.99-.66-1.02-1.05-.03-.33.59-.99.97-1.03,3.03-.3,6.08-.62,9.12-.68,2.35-.05,4.71.27,7.31.43-1.69-2.32-3.04-4.67-4.86-6.57-3.58-3.76-6.03-8.24-8.65-12.63-2.05-3.43-6.04-4.96-9.9-3.79-.96.29-1.9.7-2.87.82-.44.05-1.26-.42-1.34-.77-.09-.41.38-1.29.75-1.38,2.92-.7,5.77-2.18,9.25-.91-2.09-4.11-4.01-7.96-6-11.77-1-1.92-2-3.87-3.26-5.62-1.25-1.73-2.7-3.35-4.29-4.78-1.17-1.05-2.49-1.56-4.38-.83-2.49.96-5.25,1.23-7.92,1.69-.45.08-1-.41-1.51-.64.32-.5.53-1.28.98-1.44,1.85-.69,3.76-1.2,5.83-1.83-.62-.42-1.26-.8-1.86-1.25-2.94-2.19-5.9-4.35-8.78-6.61-.62-.49-1.06-1.29-1.42-2.02-1.22-2.48-2.25-5.06-3.57-7.48-1.22-2.24-2.61-4.42-4.14-6.46-1.36-1.81-2.85-3.59-4.57-5.03-5.17-4.34-9.11-9.44-11.43-15.87-.59-1.63-2.13-3.27-3.66-4.12-4.28-2.39-7.18-5.91-9.42-10.09-2.17-4.05-5.48-7.12-8.73-10.24-1.75-1.69-4.4-1.85-6.21-.28-4.28,3.71-6.69,8.14-6.3,14.15.37,5.63,2.02,10.64,4.99,15.49,1.29-1.38,2.4-.29,3.69-.08,2.15.36,4.46.24,6.62-.13,2.11-.36,4.09-1.37,6.17-1.95.6-.17,1.34.18,2.02.29-.34.61-.53,1.52-1.04,1.78-4.18,2.04-8.58,3.01-13.25,2.4-.82-.11-1.65-.17-2.46-.25-.05.18-.14.32-.11.37,2.61,3.39,5.15,6.83,7.86,10.15,1.84,2.25,4.6,3.02,7.24,3.91,1.37.46,2.72,1.17,4.12,1.28,1.68.13,3.46-.06,5.1-.47,2.29-.58,4.49-1.54,6.75-2.25.5-.16,1.1.04,1.66.08-.13.59-.06,1.49-.42,1.71-1.27.77-2.63,1.45-4.04,1.89-1.74.55-3.57.82-5.6,1.27.92.66,1.7,1.25,2.5,1.81,3.49,2.4,6.11,5.5,7.45,9.56.92,2.8,2.55,4.89,5.34,6.02.82.33,1.63.75,2.34,1.27,1.7,1.22,3.44,1.16,5.17.23,1.85-1,3.6-2.19,5.47-3.18.51-.27,1.27-.09,1.91-.11-.18.63-.15,1.57-.57,1.84-2.03,1.34-4.18,2.51-6.3,3.73-.33.19-.71.31-1.33.57Zm52.6,151.64c.1-.72.07-1.24.25-1.68.65-1.63.22-3.02-.58-4.51-3.15-5.88-7.94-10.24-12.97-14.39-2.86-2.36-6.02-3.65-9.92-3.52-5.59.18-11.27.06-16.63-1.83-5.02-1.76-9.93-3.84-14.86-5.85-5.02-2.04-10-4-15.63-2.54-4.89,1.27-5.6,2.22-5,7.18.24,1.97,1.09,3.19,2.92,4.02,2.73,1.24,5.37,2.67,8,4.11,6.94,3.8,14.16,5.75,22.04,3.43,3.12-.92,5.58.21,7.67,2.37,1.35,1.39,2.39,3.08,3.75,4.46,1.18,1.2,2.47,2.58,3.98,3.13,6.18,2.24,12.13,5.37,18.9,5.61,2.7.09,5.4.02,8.08.02Zm-85.45,6.48c2.36-1.04,4.69-2.21,7.13-3.08.88-.31,2.03,0,3.01.22.27.06.6.87.5,1.22-.09.32-.75.7-1.12.67-2.68-.2-4.85,1.1-6.93,2.44-.72.46-1.41,1.61-1.41,2.44,0,2.37.37,4.74.57,7.11.2,2.39.36,4.78.52,6.98,3-.96,5.83-1.91,8.69-2.75.44-.13,1.03.27,1.56.42-.22.51-.3,1.2-.68,1.49-.55.42-1.31.55-1.99.79-2.44.85-4.88,1.68-7.79,2.68,1.57,4.07,2.84,7.84,4.52,11.43.43.93,2.17,1.79,3.25,1.72,1.12-.07,2.46-1.09,3.19-2.08,3.15-4.22,5.56-8.74,5.92-14.24.42-6.37,2.4-12.72-.44-19.01-.11-.24.02-.58-.08-.82-.2-.46-.38-1.05-.76-1.31-4.68-3.15-9.86-5.06-15.42-5.92-1.76-.27-3.57-.31-5.13-.44,1.02,3.54,1.98,6.86,2.89,10.03Zm56.27-55.38c.08-.19.16-.37.25-.56-1.47-1.68-2.87-3.44-4.44-5.03-1.32-1.33-2.83-2.49-4.3-3.66-.99-.79-2.05-1.5-3.09-2.22-2.37-1.62-4.75-3.22-7.12-4.85-.68-.47-1.32-1-1.97-1.52-1.39-1.12-2.74-.9-4.09.1-4.87,3.63-8.33,8.32-10.7,14.06.66.1,1.1.23,1.53.21,2.71-.18,5.26.46,7.82,1.29,2.42.78,4.93,1.42,7.44,1.69,4.02.43,8.08.56,12.12.69,2.18.07,4.37-.12,6.55-.19Zm-78.91,47.17c2.3,1.02,4.42,1.81,6.4,2.88,1.21.65,1.94,1.86,1.72,3.36-.05.35-.42.85-.73.92-.32.07-.97-.21-1.08-.49-1.2-3.19-4.09-3.35-6.61-4-.92,1.28-1.84,2.34-2.5,3.54-.85,1.53-1.53,3.16-2.19,4.79-.5,1.23.02,2.26.87,3.18,1.86,2,6.8,2.71,9.67,1.27,3.62-1.83,7.21-3.72,10.78-5.64,1.97-1.06,3.44-4.27,2.75-6.4-.5-1.56-1.37-3.01-2.16-4.47-.13-.25-.64-.38-.98-.41-4.96-.43-9.91-.83-15.17-1.26-.21.73-.53,1.86-.78,2.73Z"/>
          <path d="m361.85,711.7c.9.3,1.56.45,2.16.72,7.97,3.47,15.32,7.87,21.12,14.5.76.88,1.52,1.81,2.03,2.84.28.56.04,1.38.04,2.08-.65-.25-1.58-.31-1.91-.79-4.52-6.42-10.81-10.66-17.54-14.33-1.94-1.06-4.07-1.75-6.06-2.71-.44-.21-.98-.87-.94-1.26.04-.4.75-.73,1.1-1.04Z"/>
          <path d="m368.73,770.11c-.66-.2-1.1-.29-1.51-.46-8.13-3.34-16.05-7.11-23.26-12.21-.76-.54-2.05-1.13-1.24-2.31.88-1.27,1.74-.08,2.5.45,6.54,4.61,13.78,7.87,21.06,11.06.97.42,1.99.75,2.89,1.28.36.22.7.93.61,1.33-.08.37-.73.61-1.05.85Z"/>
          <path d="m331.99,778.66c.17.47.35.94.52,1.42.77,2.23,2.51,3.62,4.54,4.39,5.22,1.98,10.54,3.72,15.81,5.57,1.03.36,2.08.73,3.01,1.27.3.18.42,1.01.29,1.43-.09.27-.87.58-1.21.47-6.18-2.1-12.41-4.1-18.48-6.5-1.95-.77-3.54-2.58-5.14-4.07-.54-.5-.73-1.47-.85-2.26-.06-.37.43-.83.68-1.25.28-.15.55-.31.83-.46Z"/>
          <path d="m345.35,817.26c-1.03-.38-1.9-.6-2.67-1.01-4.81-2.55-9.6-5.13-14.39-7.72-1.66-.9-3.36-1.74-4.94-2.76-.45-.29-.57-1.11-.84-1.68.6-.09,1.31-.43,1.77-.22,1.77.8,3.45,1.78,5.18,2.68,5.27,2.73,10.56,5.43,15.81,8.21.53.28.9.98,1.15,1.57.06.14-.69.62-1.06.94Z"/>
          <path d="m380.58,751.67c-.42.57-.66,1.16-.92,1.18-.47.02-1.21-.16-1.4-.5-3.52-6.17-9.12-10.02-14.91-13.7-.38-.24-.45-.96-.66-1.46.53-.17,1.07-.49,1.59-.45.51.04,1.07.35,1.49.69,4.12,3.37,8.28,6.68,12.26,10.2,1.13,1,1.7,2.65,2.55,4.04Z"/>
          <path d="m341.77,634.16c4.51.55,9.03,1.09,13.54,1.64,1.48.18,2.98.3,4.44.6.87.18,1.87.7,1.36,1.81-.17.38-1.29.52-1.94.44-4.13-.48-8.24-1.09-12.37-1.59-2.31-.28-4.64-.41-6.94-.72-.47-.06-.88-.64-1.31-.98.46-.36.87-.87,1.39-1.04.55-.18,1.21-.04,1.82-.04,0-.04,0-.08.01-.12Z"/>
          <path d="m354.83,602.61c4.65-.17,9.06.63,13.05,3.17.51.32,1.09.66,1.38,1.15.24.39.29,1.16.05,1.48-.21.28-1.13.4-1.42.18-4.75-3.61-10.24-3.9-15.87-3.67-.51.02-1.29-.22-1.51-.6-.54-.93-.09-1.61.99-1.68,1.11-.07,2.22-.02,3.33-.02Z"/>
          <path d="m332.03,837.64c-2.46-.58-4.7-1.01-6.88-1.64-3.25-.93-6.46-1.98-9.67-3.02-.81-.26-1.96-.57-1.44-1.73.17-.37,1.43-.55,2.07-.38,4.6,1.21,9.18,2.53,13.76,3.83.85.24,1.73.46,2.5.86.34.18.72.85.63,1.17-.11.4-.69.67-.97.92Z"/>
          <path d="m352.95,737.11c.27.04.57.03.82.13,4.77,1.82,9.14,4.31,12.76,7.97.49.5.89,1.17,1.1,1.84.13.41-.18.97-.29,1.46-.5-.12-1.22-.06-1.45-.38-2.82-3.81-6.89-5.89-10.94-7.99-.73-.38-1.59-.48-2.33-.84-.54-.27-.98-.75-1.46-1.14.51-.44,1.02-.89,1.54-1.33.09.09.17.19.26.28Z"/>
          <path d="m332.36,791.93c1.32.39,2.4.54,3.32,1.01,3.24,1.66,6.5,3.32,9.6,5.23.9.56,1.37,1.91,1.86,2.98.11.25-.41.99-.81,1.2-.23.12-.86-.26-1.18-.56-.98-.95-1.76-2.14-2.84-2.92-2.99-2.16-6.29-3.71-9.91-4.57-.49-.12-.85-.79-1.27-1.21.43-.4.86-.8,1.22-1.15Z"/>
          <path d="m362.39,622.61c3.07.44,6.16.75,9.19,1.38,1.09.23,2.08,1.14,2.99,1.89.27.22.31,1.15.07,1.44-.23.27-1.13.35-1.44.12-3.01-2.27-6.63-1.92-10.03-2.36-1.4-.18-2.87.15-4.3.11-.48-.02-.94-.48-1.41-.74.36-.48.65-1.29,1.1-1.39,1.23-.26,2.53-.23,3.8-.31.01-.05.02-.09.04-.14Z"/>
          <path d="m337.22,776.76c1.08.53,2.02.9,2.86,1.41,3.27,1.98,6.54,3.98,9.75,6.07.45.3.57,1.12.84,1.7-.65.06-1.39.35-1.94.14-1.07-.42-2.03-1.12-3.03-1.72-2.95-1.76-5.91-3.51-8.82-5.33-.41-.26-.78-.91-.79-1.39,0-.29.73-.59,1.12-.87Z"/>
          <path d="m354.47,754.1c.42-.67.59-1.27.94-1.39.34-.12,1.03.1,1.26.41,1.68,2.26,4.2,3.16,6.61,4.25,1.16.52,2.36.99,3.39,1.71.41.29.4,1.19.57,1.81-.59,0-1.29.22-1.77-.02-3.03-1.49-6.03-3.01-8.97-4.66-.79-.44-1.33-1.35-2.03-2.11Z"/>
        </g>
      </g>
    </g>
  </g>
</svg>