<?xml version="1.0" encoding="UTF-8"?>
<svg id="_圖層_2" data-name="圖層 2" xmlns="http://www.w3.org/2000/svg" viewBox="0 0 229.09 2048.6">
  <defs>
    <style>
      .cls-1 {
        fill: #ff6044;
      }

      .cls-2 {
        fill: #2b2a2a;
      }

      .cls-3 {
        stroke: #2b2a2a;
        stroke-width: 2px;
      }

      .cls-3, .cls-4 {
        fill: none;
        stroke-miterlimit: 10;
      }

      .cls-4 {
        stroke: #ff6044;
      }
    </style>
  </defs>
  <g id="_圖層_1-2" data-name="圖層 1">
    <g>
      <g>
        <path class="cls-1" d="M229.09,100.48q-100.48,0-100.48,100.48,0-100.48-100.48-100.48,100.48,0,100.48-100.48,0,100.48,100.48,100.48Z"/>
        <path class="cls-4" d="M229.09,300.02q-100.48,0-100.48,100.48,0-100.48-100.48-100.48,100.48,0,100.48-100.48,0,100.48,100.48,100.48Z"/>
        <line class="cls-4" x1="128.61" y1="2022.82" x2="128.61" y2="410.43"/>
      </g>
      <g>
        <g>
          <path class="cls-2" d="M200.95,126.26q-100.48,0-100.48,100.48,0-100.48-100.48-100.48,100.48,0,100.48-100.48,0,100.48,100.48,100.48Z"/>
          <path class="cls-3" d="M200.95,126.26q-100.48,0-100.48,100.48,0-100.48-100.48-100.48,100.48,0,100.48-100.48,0,100.48,100.48,100.48Z"/>
        </g>
        <path class="cls-3" d="M200.95,325.8q-100.48,0-100.48,100.48,0-100.48-100.48-100.48,100.48,0,100.48-100.48,0,100.48,100.48,100.48Z"/>
        <line class="cls-3" x1="100.48" y1="2048.6" x2="100.48" y2="436.21"/>
      </g>
    </g>
  </g>
</svg>