<?xml version="1.0" encoding="UTF-8"?>
<svg id="_圖層_2" data-name="圖層 2" xmlns="http://www.w3.org/2000/svg" xmlns:xlink="http://www.w3.org/1999/xlink" viewBox="0 0 494.5 469.15">
  <defs>
    <style>
      .cls-1 {
        stroke: #141313;
        stroke-miterlimit: 10;
        stroke-width: 2px;
      }

      .cls-1, .cls-2 {
        fill: none;
      }

      .cls-3 {
        fill: #fdbf58;
      }

      .cls-4 {
        clip-path: url(#clippath);
      }

      .cls-5 {
        fill: #70544a;
      }
    </style>
    <clipPath id="clippath">
      <rect class="cls-2" x="43.46" y="32.51" width="408.57" height="405.13"/>
    </clipPath>
  </defs>
  <g id="_圖層_1-2" data-name="圖層 1">
    <g>
      <rect class="cls-5" x="83.8" y="61.91" width="410.7" height="407.24"/>
      <g class="cls-4">
        <g>
          <path class="cls-3" d="m539.65,437.64H6.13V32.63h533.53v405.01ZM84.32,161.24c-5.61-1.16-9.88,2.92-11.1,7.43-1.51,5.61-1.8,11.21-.15,16.89.94,3.25,2.19,6.25,5.02,8.19,2.57,1.76,4.53,4.13,6.72,6.28.49.49.95,1.05,1.53,1.4.32.19,1.02.17,1.27-.06.23-.22.23-.89.09-1.27-.17-.47-.59-.85-1.04-1.48.81.12,1.37.25,1.94.27,3.61.16,6.83-.94,9.53-3.35.43-.38.32-1.38.46-2.1-.69.14-1.52.09-2.05.47-2.71,1.94-5.63,3.3-8.94,2.36-3.73-1.06-6.98-3.16-9.7-5.97-.69-.71-1.23-1.65-1.6-2.58-2.41-6.11-2.75-12.36-.82-18.66,1.15-3.77,3.41-5.5,7.33-5.74,1.26-.08,1.92-.54,1.59-1.91,1.46.99,2.14,1,2.76-.54,1.23-3.02,2.24-6.13,3.24-9.24.12-.37-.38-.95-.59-1.44-.47.27-.98.48-1.38.83-.2.17-.15.61-.25.91-.89,2.84-.95,6.08-3.8,8-.21.14-.05.87-.06,1.32Zm180.67,47.67c-.46.06-.77.1-1.08.15-4.93.76-6.76,2.68-7.28,7.73-.46,4.36.93,8.15,3.71,11.59-3.87,5.63-3.58,12.04-3.17,18.5.42,6.51,2.64,12.51,4.84,18.53.42,1.16,1.19,2.18,1.91,3.47-.12.33-.37.98-.58,1.65-1.47,4.76-.46,7.44,3.53,10.28,1.15.82,1.98,2.15,2.84,3.34.56.77.8,1.77,1.33,2.57,1.26,1.89,2.68,3.11,5.25,3.57,2.56.47,4.79.02,7.19-.25,1.49-.17,3.07-.02,4.55.28,2.4.48,4.77,1.13,7.11,1.82,2.65.78,5.27,1.68,7.89,2.56,2.37.79,4.7,1.73,7.09,2.41,2.92.83,5.86,1.62,8.85,2.14,1.95.34,4.06.53,5.98.16,4.34-.83,8.43-2.25,12.24-4.8,4.64-3.09,10-4.59,15.57-5.22,1.68-.19,3.36-.6,4.96-1.15,9.11-3.1,17.91-7.11,27.58-8.5,8.21-1.18,16.31-3.13,24.51-4.41,5.11-.79,9.18,1.45,12.21,5.69.54.75,1.45,1.23,2.05,1.95.45.55.91,1.28.93,1.95.06,2.31-.16,4.63-.11,6.95.05,2.46.88,4.71,2.7,6.37,1.04.94,1.2,1.92,1.2,3.23,0,3.76.71,7.35,3.9,9.81.89.69,1.28,1.45,1.44,2.52.69,4.59,2.41,8.6,6.15,11.01.3,1.75.44,3.25.83,4.68.99,3.65,3.3,6.46,5.85,9.12.57.59,1.04,1.44,1.21,2.24.54,2.46,1.31,4.79,3.06,6.66,1.1,1.17,2.26,2.27,3.45,3.46-1.08,1.83-.87,3.74-.07,5.46.8,1.73,2.04,3.24,2.98,4.9.39.68.83,1.58.7,2.27-.61,3.17.3,5.79,2.53,7.94,2.27,2.18,4.88,3.83,8.05,4.33-.29,1.62,0,2.09,1.47,1.98,6.31-.47,12.63-.95,18.93-1.53,4.02-.37,8.02-1.01,12.04-1.4,4.34-.42,8.7-.71,13.05-1.05,1.06-.08,1.6-.49,1.6-1.72,0-2.51,0-5.04.3-7.53.56-4.74.4-9.25-2.78-13.17-.29-.36-.28-1-.34-1.53-.33-2.51-.42-5.07-1-7.51-.65-2.72-1.7-5.35-4.36-6.88-.27-.16-.37-.82-.37-1.24-.03-4.02-.95-7.85-2.96-11.28-1.32-2.26-2.44-4.22-2.33-7.13.12-3.24-2.37-5.75-4.36-8.23-.49-.61-.92-1.43-.97-2.19-.35-4.71-1.07-9.3-3.45-13.48-.22-.39-.27-1.11-.06-1.48,1.09-1.91.71-3.83.32-5.82-.17-.84-.21-1.82.05-2.62,1.01-3.12,1.58-6.24,1.04-9.54-.18-1.09.2-2.27.23-3.41.04-1.42,0-2.84-.03-4.27,0-.41-.11-.82-.08-1.22.17-1.91.61-3.83.5-5.72-.16-2.77-.69-5.52-1.1-8.54-.16.25-.14.19-.1.17.43-.22.87-.41,1.28-.65,3.84-2.2,7.88-4.21,10.41-8.09,2.99-4.58,5.39-9.45,5.92-15.02.41-4.34,1.02-8.69.95-13.03-.05-3.58-.89-7.15-1.5-10.71-1.53-8.92-5.91-16.13-12.68-22.02-4.37-3.79-9.39-5.96-14.87-7.47-5.9-1.62-11.7-.32-17.08-.02-1.63-1.08-2.91-2.26-4.42-2.84-1.61-.61-3.31-.13-4.26.83-1.73-1.01-3.16-2.21-4.81-2.71-2.11-.64-4.38-.88-6.6-.97-3.11-.13-6.02.78-8.53,2.68-.42.32-.46,1.15-.68,1.75.56.05,1.28.35,1.64.1,3.66-2.47,7.6-2.82,11.78-1.87,4.31.98,5.54,2.25,5.82,6.79.17,2.79,0,5.59.03,8.39.01.92.1,2.02,1.34,2,1.16-.02.9-1.08.98-1.86.41-4.14.37-8.26-.61-12.31.42-.13.73-.19,1.02-.31,2.23-.93,3.62-.47,4.77,1.67.35.66.65,1.37.85,2.09.92,3.38,1.21,6.77.29,10.22-.15.55.29,1.26.46,1.89.55-.4,1.26-.69,1.59-1.22.37-.61.56-1.44.54-2.16-.08-3.36-.26-6.73-.41-10.11,1.03-.09,2.45-.2,3.88-.33,4.25-.36,8.42-.47,12.64.77,12.57,3.69,20.73,11.86,24.29,24.47,2.43,8.62,3.04,17.43,1.22,26.39-1.81,8.93-5.62,16.26-14.07,20.3-2.03.97-4.33,1.34-6.52,1.94-.25.07-.58-.14-.87-.22-.54-.15-1.36-.6-1.58-.39-.43.41-.82,1.25-.69,1.77.12.48.92,1.01,1.48,1.1.92.16,1.93.12,2.85-.09,1.43-.33,2.14.25,2.34,1.58.35,2.34.8,4.68.87,7.03.04,1.44-.57,2.89-.81,4.35-.1.59-.17,1.33.08,1.82.7,1.33.49,2.54.08,3.89-.31,1.02-.29,2.17-.33,3.26-.08,2.23.22,4.54-.22,6.69-.53,2.61-1.64,5.02-.45,7.79.49,1.15.23,2.57-1.26,3.28-.42.2-1.07.7-1.03.97.07.49.57.92.92,1.35.75.93,1.83,1.72,2.24,2.78,1.37,3.53,2.16,7.23,2.09,11.05-.03,1.3.48,2.12,1.33,3.08,2.42,2.73,4.84,5.54,3.89,9.73-.15.68.06,1.71.51,2.23,3.64,4.29,5.12,9.21,4.67,14.81-.04.55.59,1.62.97,1.65,1.49.12,2.09,1.13,2.72,2.21,1.97,3.34,1.88,7.12,2.26,10.8.1.93.47,1.99,1.07,2.68,2.44,2.79,3.05,9.39,1.07,12.42-.24.36-.13,1-.07,1.5.17,1.39.39,2.77.59,4.11-14.35,1.52-28.34,3-42.17,4.46,0-.98.23-1.78-.06-2.1-.31-.34-1.11-.24-1.7-.31-.52-.06-1.12.06-1.55-.17-1.82-.98-3.7-1.9-5.34-3.15-2.1-1.6-2.8-3.89-2.04-6.5.32-1.11.12-1.97-.62-2.83-.95-1.09-1.92-2.18-2.69-3.4-.91-1.43-1.46-3.02-.98-4.93.78.49,1.38.94,2.04,1.27.79.41,1.77,1.06,2.35-.02.18-.34-.58-1.41-1.13-1.89-2.01-1.76-4.16-3.34-6.16-5.11-1.92-1.71-2.96-4.01-3.17-6.53-.13-1.53-.84-2.37-1.86-3.33-2.56-2.42-4.67-5.19-5.5-8.73-.15-.65-.11-1.55.23-2.07.83-1.26.89-1.85-.46-2.49-3.68-1.76-5.31-4.96-6.21-8.71-.18-.76-.49-1.53.49-2.11.17-.1.01-1.16-.27-1.58-.26-.39-.9-.51-1.38-.76-3.07-1.61-4.94-5.61-4.15-9,.25.09.53.3.74.24.59-.16,1.16-.43,1.74-.66-.3-.5-.48-1.19-.92-1.46-2.6-1.62-5.08-3.42-5.5-6.72-.29-2.33-.06-4.72-.06-7.27,2.22.94,4.34.73,6.34-.41,3.05-1.75,5.68-4.01,7.81-6.83.58-.76,1.68-1.74.52-2.6-1.12-.84-1.66.58-2.38,1.22-2.34,2.1-4.57,4.36-7.12,6.17-2.34,1.66-6.58.25-7.42-2.41-.43-1.37-1.28-2.02-2.19-2.79-.74-.62-1.54-1.16-2.28-1.78-3.34-2.78-7.21-3.72-11.38-3-10.06,1.74-20.15,3.42-30.13,5.55-4.71,1-9.21,2.98-13.81,4.48-4.49,1.46-8.92,3.29-13.53,4.19-4.73.93-9.37,1.88-13.65,4.13-1.74.91-3.25,2.34-5.04,3.08-5.08,2.1-10.23,4.23-15.86,1.83-.68-.29-1.46-.31-2.17-.52-3.38-.95-6.76-1.87-10.11-2.91-2.84-.88-5.61-1.98-8.46-2.85-2.03-.62-4.17-.89-6.2-1.54-3.1-1-6.14-1.04-9.27-.2-3.3.89-7-.74-8.34-3.86-1.18-2.73-2.85-4.81-5.39-6.36-.93-.57-1.78-1.84-1.99-2.93-.86-4.52,3.27-9.88,7.18-10.09,1.8-.09,3.6-.37,5.4-.56,3.09-.34,5.56-1.84,7.38-4.32.33-.46.01-1.41,0-2.13-.58.22-1.36.26-1.69.67-1.84,2.27-4.2,3.5-7.03,3.68-4.09.26-8.11.57-11.03,4.25-.37-.58-.65-.91-.81-1.29-3.61-8.93-6.05-18.1-5.12-27.86.38-3.99,1.81-7.64,5.04-10.3.67-.55,2.15-.82,1.28-2.09-.85-1.24-1.76-.12-2.58.38-.05.03-.09.06-.13.1-.88,1.01-1.66.65-2.08-.36-.78-1.87-1.62-3.77-2.04-5.74-.53-2.45-.04-4.83,1.6-6.85,1.09-1.33,3.92-1.79,5.4-1,.49.26,1.15.18,1.73.26-.02-.58.1-1.21-.08-1.74-.57-1.69,0-2.96,1.55-3.8.57-.31.91-1.07,1.32-1.65.55-.77.92-1.73,1.62-2.29,1.21-.97,2.31-.34,2.68,1.18.43,1.76.69,3.74,1.68,5.15.96,1.35,1.5,2.51,1.37,4.13-.03.44.61.93.95,1.39.36-.44,1.05-.89,1.04-1.33-.07-3.4,1.16-6.44,2.43-9.47,1.99-4.74,7.89-5.89,11.47-2.23,2.2,2.25,3.45,5.05,4.27,8.03,2.08,7.64,2.07,15.44,1.69,23.27-.05.94-.65,2.36.73,2.61,1.37.24,1.44-1.23,1.51-2.19.56-6.96.35-13.9-.84-20.78-.8-4.62-2.37-8.92-5.55-12.52-4.83-5.47-14.01-2.43-15.43,2.99-.42,1.61-1.15,3.13-1.74,4.7-1.68-3.78-2.27-7.54-1-11.55.38.18.63.39.85.38.51-.04,1-.2,1.5-.31-.16-.51-.21-1.09-.49-1.51-.25-.37-.74-.6-1.15-.85-2.77-1.66-4.1-4.31-4.78-7.34-.49-2.17-.3-4.31,1.18-6.13,6.52-8,14.46-13.22,25.13-12.73,5.17.24,9.5,2.28,11.5,7.49,1.38,3.61,2.35,7.37,3.5,11.07.26.85-.07,2.32,1.36,2.1,1.53-.24.87-1.67.92-2.67,0-.05-.01-.11-.03-.16-1.24-3.83-2.35-7.72-3.78-11.48-1.28-3.35-3.69-5.75-7.04-7.12-.35-.14-.62-.48-.93-.72.29-.35.51-.85.87-1.02,5.59-2.58,11.32-4.6,17.51-5.27,6.74-.73,13.09,1.19,19.55,2.46,1.74.34,2.96,1.23,3.54,2.88,1.04,2.94,1.97,5.91,2.96,8.87.22.66.33,1.42.73,1.94.28.36.99.56,1.47.49.22-.03.57-.94.45-1.32-1.16-3.69-2.36-7.37-3.64-11.02-.45-1.3.02-2.18,1.38-2.41,3.35-.58,6.64-.54,9.93.45,2.89.87,6.1.88,8.53,2.94,2.36,1.99,4.53,4.22,6.84,6.28.38.34,1.07.34,1.61.5.08-.58.35-1.22.21-1.74-.16-.58-.62-1.14-1.08-1.56-1.64-1.53-3.34-3-5.02-4.5-.32-.29-.63-.59-1.17-1.1,3.99-.89,7.58-.96,11.13.46,1.8.72,3.34,1.84,4.07,3.67,1.3,3.26,2.23,6.62,1.71,10.22-.07.5.38,1.07.59,1.61.52-.35,1.4-.63,1.48-1.07.26-1.4.5-2.91.26-4.29-.5-2.87-1.3-5.69-1.98-8.49,3.26-.79,6.03.86,8.88,2.37,1.92,1.02,3.17,2.5,3.77,4.57.56,1.91,1.02,3.86,1.71,5.72.2.53,1,.84,1.53,1.25.23-.59.52-1.17.65-1.78.07-.33-.13-.73-.24-1.09-.84-2.64-1.7-5.28-2.58-8.01,2.8-.77,5.69-.61,8.57,0,3.6.77,6.06,2.94,6.96,6.57.71,2.86,1.1,5.8,1.6,8.72.15.86.14,1.97,1.29,1.78.43-.07,1.01-1.2.99-1.83-.11-3.91-.84-7.71-2.4-11.31-1.23-2.83-3.41-4.7-6.26-5.65-3.89-1.3-7.9-1.11-11.83-.29-.9.19-1.46.09-2.14-.33-3.64-2.21-7.42-3.77-11.81-2.87-.53.11-1.23-.18-1.75-.47-5.13-2.82-10.36-3.26-15.78-.91-.38.16-.9.12-1.32.02-1.97-.45-3.92-1.01-5.89-1.44-4.44-.97-8.9-1.98-13.26.39-.11.06-.31-.04-.47-.06-3.23-.57-6.52-.95-9.69-1.75-12.52-3.18-24.01-.63-34.86,6-.47.28-1.09.36-1.65.42-3.43.37-6.93.37-10.27,1.13-7.56,1.72-13.17,6.58-17.98,12.48-1.54,1.88-2.14,4.06-1.93,6.48.29,3.35,1.61,6.22,3.8,8.72.3.34.73.82.67,1.17-.26,1.68-.66,3.34-1.03,5.09-2.99-.41-4.79,1.13-5.88,3.8-.09.23-.26.53-.46.61-2,.81-2.67,2.5-2.9,4.63Zm-57.95,76.18c-2.67.14-4.9.27-7.12.38-3.39.17-6.18,1.55-8.1,4.42-.29.43-.16,1.61.2,1.89.46.36,1.22.32,1.82-.57.73-1.09,1.81-2.33,2.98-2.65,4.58-1.26,9.3-1.51,14.03-.92.05,0,.1.03.16.04,1.42.14,2.83.39,4.25.39.93,0,1.35.31,1.61,1.16.7,2.26-.02,4.03-2.31,4.97-1.62.67-3.39.96-5,1.66-1.75.75-3.42,1.71-5.03,2.73-.35.22-.29,1.11-.43,1.69.57.07,1.36.42,1.67.17,2.46-2.01,5.46-2.64,8.35-3.51,5.21-1.55,6.65-5.76,4.05-10.49,2.89-2.42,6.26-3.73,10.01-4.28-2.28,1.83-4.72,3.41-7.1,5.07-.47.33-.71.99-1.06,1.5.6.2,1.2.55,1.8.56.48,0,1-.36,1.43-.66,1.66-1.17,3.31-2.35,4.93-3.57,2.06-1.56,4.12-3.03,6.76-3.47,1.74-.29,2.72.65,3.56,1.87.17.25.05.98-.2,1.21-1.21,1.13-2.43,2.28-3.79,3.2-4.37,2.95-8.26,6.42-11.66,10.49-1.92,2.3-3.81,4.72-6.09,6.61-5.83,4.82-12.31,6.93-19.69,3.68-.28-.12-.61-.17-.92-.18-1.51-.02-3.03,0-4.34,0-.24-.96-.34-1.82-.66-2.59-1.83-4.35-3.77-8.66-5.57-13.02-.76-1.84-1.12-2.16-2.94-1.25-1.35.68-2.59,1.59-3.78,2.34-.72-.42-1.36-.93-2.09-1.18-.31-.11-.93.22-1.16.53-.16.22-.03.98.21,1.13,2.51,1.58,2.73,4.06,2.69,6.67-.07,4.39,2.17,7.29,5.87,9.22.47.24.92.53,1.35.78-.35,2.03-.08,2.29,2.09,2.06,2.19,3.99.12,8.39-4.22,8.92-1.63.2-3.29.18-4.93.37-.9.1-1.79.61-1.41,1.67.13.39,1.15.48,1.78.65.22.06.48-.02.8-.04-4.37,7.72-8.8,15.3-11.09,23.86-.76,2.84-2.24,5.15-4.36,7-2.72,2.36-4.84,5.51-8.49,6.71-.34.11-.5.83-.74,1.26.48.24.94.62,1.43.67.47.05.98-.25,1.72-.46-.73,3.11-2.17,5.65-3.61,8.21-1.68,2.98-3.2,6.05-4.69,9.14-.84,1.74-1.37,3.63-2.25,5.35-4.69,9.15-9.65,18.14-16.22,26.07-4.44,5.37-8.81,10.84-14.6,14.87-.57.4-1.23.75-1.63,1.28-.33.43-.33,1.11-.48,1.68.61.06,1.23.18,1.84.15.27-.02.51-.36.78-.54,5.91-3.94,10.44-9.34,14.95-14.73,5.45-6.52,10.08-13.63,13.99-21.2,1.77-3.43,3.7-6.82,5.11-10.4,1.58-4.02,3.1-8.02,5.7-11.51.72-.97,1.22-2.15,1.67-3.3.68-1.75.93-3.73,1.88-5.29,1.2-1.97,2.79-3.75,4.45-5.36,2.74-2.66,5.08-5.46,5.92-9.37.4-1.88,1.04-3.76,1.86-5.49,2.58-5.43,5.32-10.8,7.96-16.2.35-.72.5-1.54.77-2.41.56-.07,1.31-.08,2.03-.26,1.27-.31,2.71-.44,3.74-1.14,3.25-2.21,4.56-6.76,2.87-10.35-.74-1.57-.44-2.45.6-3.31.51.31.96.72,1.47.85,1.94.52,3.89,1.02,5.86,1.41,8.01,1.56,15.16-.17,21.03-6.08,2.86-2.88,5.24-6.28,8.2-9.04,3.87-3.59,8.1-6.79,12.19-10.14,1.75-1.44,1.94-3.11.56-4.91-1.67-2.19-3.77-3.05-6.46-2.28-.66.19-1.37.47-2.01.37-6.02-.91-10.87,1.71-15.39,5.24-1.23.96-4.29.96-5.32-.25-.41-.48-.83-1.05-1.37-1.31-3.77-1.8-7.69-2.84-11.9-2.13-2.61.44-5.24.82-7.85,1.27-.63.11-1.28.28-1.81.61-.18.11-.16,1.05,0,1.14.57.3,1.28.59,1.89.52,1.9-.23,3.79-.58,5.67-.95,3.72-.74,7.38-.92,11.35,1.11Zm-52.03,28.39c-3.25,4.01-4.88,8.61-6.21,13.34-.16.56.31,1.29.49,1.95.56-.45,1.39-.78,1.63-1.36.94-2.28,1.61-4.67,2.54-6.95,1.61-3.92,4.02-7.25,7.64-9.48,2.51-1.55,4.31-3.63,4.84-6.52.81-4.42,3.66-7.57,6.14-10.98.33-.46.65-1.41.42-1.7-.64-.83-1.5-.42-2.01.28-2.59,3.52-5.75,6.68-6.57,11.3-.21,1.17-.71,2.5-1.51,3.31-1.75,1.76-3.78,3.23-5.86,4.96-.95-2.23-3.1-3.6-3.31-6.19-.45-5.32-1.94-10.35-4.16-15.18-1.63-3.57-3.08-7.22-4.73-10.78-1.11-2.38-2.39-4.68-3.68-6.97-.81-1.44-1.96-2.71-2.65-4.21-1.92-4.2-3.72-8.46-5.47-12.74-1.82-4.43-4.26-8.47-7.66-11.81-1.37-1.34-2.11-2.73-2.37-4.63-.27-1.98-.91-3.92-1.34-5.64,3.18-.25,6.31-.28,9.37-.77,7.64-1.22,13.66-4.9,17.12-12.21.58-1.23.45-2.12-.73-2.89-2.77-1.81-4.37-4.53-5.34-7.63-.37-1.17-.34-2.47-.53-4.02.92.42,1.44.65,1.96.89,2.59,1.21,5.26,2,8.15,1.97,1.17-.01,1.85-.39,2.29-1.53.91-2.35,1.98-4.64,2.88-6.99.14-.36-.11-1.13-.42-1.33-.32-.21-1.05-.12-1.38.14-.38.29-.56.89-.76,1.38-.71,1.74-1.32,3.53-2.12,5.23-.22.46-1.11,1.01-1.5.88-2.67-.85-5.39-1.66-7.89-2.89-2.15-1.06-2.91-.89-3.18,1.55-.3,2.74-.07,5.45,1.37,7.83,1.4,2.31,3.07,4.44,4.83,6.95-1,1.94-2.45,4.11-4.63,5.8-5.28,4.09-11.27,5.3-17.74,4.9-2.38-.15-4.89-.51-6.77,1.49-1.87,1.99-3.66,4.06-5.41,6.15-.58.69-1.1,1.71-.09,2.39,1.02.68,1.45-.44,1.98-1.06,1.32-1.55,2.61-3.13,3.97-4.64.59-.66,1.33-1.18,2.1-1.85.16.63.23,1.05.37,1.43,1.47,3.94,2.21,7.97,1.56,12.2-.06.38.36,1.12.68,1.21.37.1,1.09-.22,1.29-.57.38-.64.48-1.44.76-2.36,2.92,3.27,5.01,6.83,6.84,10.63,2.85,5.93,4.33,12.51,8.5,17.86,1.74,2.24,2.74,5.08,3.96,7.71,1.4,3.02,2.61,6.13,3.98,9.17,2.24,4.94,3.75,10.06,4.37,15.47.14,1.25.84,2.49,1.46,3.63.72,1.32,1.63,2.52,2.52,3.86Zm-68.71-81.16c-.04.22-.07.44-.11.65-4.52,0-9.06-.25-13.55.08-3.35.25-6.81.84-9.94,2.02-7.43,2.8-14.1,7.11-20.2,12.2-1.54,1.28-2.58,3.24-3.67,5-.27.43.18,1.31.3,1.98.57-.35,1.27-.58,1.7-1.06,1.52-1.7,2.68-3.89,4.48-5.14,4.72-3.29,9.64-6.33,14.63-9.2,3.39-1.96,7.13-3.12,11.08-3.35,2.39-.14,4.79-.17,7.17-.34,13.52-.97,25.29,2.99,35.02,12.71.44.44,1.02.89,1.59.98.48.07,1.03-.39,1.55-.62-.25-.46-.43-.99-.76-1.36-.38-.42-.92-.69-1.36-1.07-1.81-1.59-3.52-3.3-5.43-4.76-4.79-3.69-10.49-5.4-16.07-7.34-.35-.12-.9-.13-1.02-.36-1.18-2.43-3.6-2.79-5.74-3.28-5.99-1.39-11.7-3.47-17.33-5.94-4.66-2.05-9.69-2.94-14.76-3.11-7.24-.24-14.03,1.79-20.43,4.99-2.17,1.08-3.94,3.03-5.82,4.66-.62.54-1.31,1.47-.33,2.15.35.25,1.43-.23,1.98-.65,1.44-1.1,2.6-2.66,4.16-3.48,6.6-3.48,13.62-5.75,21.13-5.3,6.3.37,12.33,2.17,18.09,4.89,2.29,1.08,4.78,1.76,7.22,2.48,2.12.63,4.29,1.05,6.44,1.57Zm-1.69-141.18c-.04.08-.09.16-.13.24-1.16-.15-2.31-.29-3.47-.45-6.51-.91-12.62.02-18.09,3.97-1.04.75-2.15,1.41-3.3,1.96-7.33,3.52-12.71,9.36-16.97,16.01-4.76,7.43-7.77,15.81-10,24.39-2.01,7.75-1.74,15.72-1.66,23.64.02,1.71.18,3.46.57,5.12,1.62,6.99,5.73,12.82,8.94,19.06.2.4,1.03.47,1.56.69.1-.62.47-1.36.26-1.83-1.04-2.24-2.22-4.41-3.37-6.6-2.2-4.18-4.77-8.27-5.31-13.08-.84-7.47-.67-14.98.51-22.4,1.54-9.63,5.26-18.58,10.02-26.94,3.47-6.09,8.4-11.11,14.44-14.81,2.37-1.45,4.85-2.71,7.19-4.2,5.84-3.73,12.13-3.6,18.5-2.13,1.55.36,2.92,1.5,4.4,2.22.84.41,1.88.72,2.32-.44.43-1.11-.69-1.16-1.35-1.55-.88-.53-2.22-.52-2.35-2.04-.17-1.88-2.12-3.69-3.99-3.74-.4-.01-1.1.31-1.14.55-.06.43.16,1.07.49,1.34.55.45,1.28.68,1.93,1.01Zm1.08,167.55c-3.07.26-6.15.43-9.21.81-17.39,2.16-31.54,10.17-42.24,24.27-1.84,2.42-3.43,5.05-4.97,7.68-.54.92-.67,2.14-.8,3.24-.04.36.5.79.77,1.18.39-.34.94-.61,1.15-1.04.78-1.64,1.27-3.44,2.2-4.97,1.26-2.05,2.78-3.94,4.27-5.84,5.7-7.26,12.8-12.76,20.99-16.79,6.43-3.16,13.3-4.92,20.38-5.63,4.97-.49,10.01-1.05,14.93.27,3.95,1.07,7.83,2.43,11.71,3.75,1.03.35,1.92,1.09,2.91,1.57.38.18,1.06.32,1.26.12.31-.3.58-1.08.41-1.35-.44-.69-1.04-1.47-1.75-1.75-7.11-2.72-14.15-5.78-22.02-5.55Zm47.93,88.14c-.15-.5-.23-.79-.33-1.08-2.66-8.18-5.04-16.47-8.05-24.51-2.47-6.58-5.66-12.89-8.62-19.27-.25-.54-1.16-.77-1.76-1.14-.03.72-.29,1.54-.04,2.14,1.03,2.48,2.25,4.88,3.34,7.33,5.07,11.41,9.62,23.02,12.62,35.2,1.01,4.11.76,4.65-3.08,6.45-.53.25-1.07.5-1.64.62-1.87.42-3.77.7-5.61,1.21-.57.16-.99.87-1.48,1.33.53.32,1.09.97,1.58.92,3.93-.44,7.81-1.08,11.03-3.73,4.27-3.5,7.07-8.11,9.7-12.9,1.38-2.52,3.06-4.93,4.91-7.12.7-.83,1.25-1.44.56-2.19-.74-.79-1.61-.21-2.14.55-1.87,2.67-3.82,5.3-5.52,8.08-1.67,2.72-3.04,5.64-5.47,8.08Zm154.28-133.32c.27-2.05.9-3.08,2.21-3.56,1.48-.54,2.57.2,3.58,1.15.04.04.07.1.12.11.61.13,1.22.25,1.83.38-.09-.66.04-1.49-.31-1.96-2.46-3.3-7.53-2.7-8.98,1.16-.6,1.61-.58,3.46-.82,5.2-.08.57.08,1.24-.16,1.71-1.81,3.56-1.36,7.12,0,10.64.64,1.67,1.51,3.24,2.29,4.89-1.42.1-2.85.43-4.01-.9-.21-.24-1.12-.22-1.37.03-.25.24-.26,1.21-.03,1.37.95.69,2,1.62,3.07,1.71,3.35.28,6.62-.14,8.99-3.02.6-.73,2-1.39.97-2.48-1.05-1.1-1.7.35-2.46.89-2.6,1.84-2.69,1.84-4-.39,3.53-4.09,3.36-9.14,4.02-14.1.98,1.51,1.75,3.11,2.48,4.72.2.44.17,1.05.47,1.35.39.39,1.01.55,1.52.81.16-.51.58-1.15.42-1.52-.93-2.21-1.74-4.53-3.09-6.47-1.61-2.33-4.4-2.81-6.75-1.71Zm-181.88,94.19c-.32-2.03-1.47-3.26-2.89-3.96-3.33-1.64-6.69-3.34-10.2-4.5-11.92-3.94-23.83-4.77-35.62.73-9.53,4.45-18.32,9.87-24.8,18.49-.48.64-1.05,1.27-1.32,2-.15.41.22,1.03.36,1.55.49-.18,1.1-.24,1.44-.57.63-.64,1.1-1.45,1.65-2.17,5.33-6.94,12.5-11.46,20.06-15.41,5.47-2.87,11.22-5.05,17.43-5.35,9.66-.48,18.78,1.86,27.51,5.92,1.75.81,3.38,1.8,4.35,3.64.19.36.89.7,1.26.62.35-.08.59-.72.77-.98Zm-43.53-91.32c-3.48-1.54-6.8-3.21-9.88-5.52-3-2.25-4.44-4.98-5.07-8.68-.73-4.32-2.15-8.53-3.32-12.77-.12-.43-.6-.82-1.01-1.06-.16-.09-.81.24-.86.46-.11.55-.17,1.22.03,1.72,2.02,4.93,2.68,10.18,3.63,15.37.33,1.78,1.08,3.25,2.43,4.42.39.33.84.6,1.47,1.05-1.97.34-3.47.45-4.88.86-4.95,1.44-9.88,2.99-14.82,4.5-.9.28-2.39.18-1.98,1.68.37,1.35,1.66.69,2.61.59.1-.01.2-.07.3-.1,3.4-1.08,6.77-2.24,10.2-3.23,2.7-.78,5.45-1.41,8.21-1.96,1.46-.29,2.79.1,4.22.87,3.41,1.85,7,3.36,10.54,4.95.97.43,1.53.09,1.74-1.11.26-1.5-.33-2.46-1.26-3.54-3.04-3.57-5.88-7.27-5.95-12.35,0-.38-.57-.75-.87-1.13-.37.38-1.08.79-1.05,1.14.15,1.8.14,3.75.85,5.34,1.3,2.91,3.07,5.61,4.71,8.51Zm46.56-129.88c-6.27.1-11.54,1.33-16.16,4.68-.48.35-1.05,1.32-.89,1.7.43,1.02,1.29.56,2.01.13.87-.52,1.73-1.06,2.62-1.53,4.07-2.14,8.46-3.01,12.97-2.6,10.66.98,20.27,5.05,29.29,10.69,2.08,1.3,3.98,2.88,6.04,4.21.5.32,1.29.18,1.94.25-.16-.66-.14-1.48-.53-1.96-.59-.74-1.43-1.27-2.2-1.85-6.35-4.74-13.4-8.11-20.81-10.76-4.85-1.73-9.83-2.73-14.29-2.96Zm43.65,109.5l.25.48c2.17,0,4.34-.08,6.5.02,2.29.11,3.74-1.03,4.7-2.95,1.18-2.37,1.23-4.77-.09-7.12-.74-1.31-1.54-2.59-2.29-3.89-2.63-4.54-3.07-9.08-.71-13.99,1.33-2.77,2.12-5.86,2.83-8.88.43-1.84.27-3.83.3-5.76,0-.51-.12-1.22-.46-1.5-.38-.3-1.27-.47-1.57-.23-.37.31-.51,1.09-.51,1.66,0,1.6.51,3.3.13,4.78-.9,3.52-1.98,7.04-3.39,10.38-1.88,4.47-1.59,8.71.46,12.94.75,1.55,1.68,2.99,2.5,4.51.43.8.9,1.61,1.15,2.47.87,3-1.07,5.32-4.1,5.26-1.5-.03-3.02.34-4.5.69-.46.11-.8.74-1.2,1.12Zm18.71-56.82c-.19-1.11-.34-2.95-.82-4.7-1.81-6.52-5.29-12.17-8.96-17.76-2.65-4.05-6.43-6.85-9.95-9.96-.35-.31-1.57-.21-1.87.15-.55.65-.03,1.21.64,1.8,2.72,2.4,5.66,4.65,7.89,7.48,3.41,4.33,6.22,9.12,8.35,14.28,1.26,3.05,2.3,6.14,2.38,9.49.09,3.94-1.77,6.68-5.43,7.92-.2.07-.47.09-.58.24-.33.43-.59.91-.88,1.37.47.26.93.74,1.4.74.72,0,1.47-.24,2.15-.53,4.27-1.84,5.55-5.48,5.69-10.52Zm-37.39,168.51c-.21-.64-.36-1.1-.5-1.56-1.83-5.61-4.31-10.92-7.52-15.83-3.46-5.29-7.25-10.35-10.93-15.49-.47-.66-1.23-1.35-1.96-.51-.26.3.01,1.42.39,1.89,7.13,8.93,13.2,18.49,17.29,29.26.36.95.78,1.89,1.32,2.75.17.28.84.42,1.22.33.3-.07.5-.58.7-.84Zm-40.84-63.01c-.01-.13-.03-.25-.04-.38-6.43.83-12.89,1.44-19.26,2.58-3.83.69-7.53,2.17-11.25,3.42-.45.15-.64,1.12-.95,1.71.62.1,1.3.43,1.84.27,1.48-.42,2.87-1.15,4.35-1.58,8.64-2.52,17.53-3.38,26.45-3.96.94-.06,1.9.51,2.88.65.48.07,1.01-.15,1.52-.24-.1-.53-.03-1.29-.35-1.54-.6-.47-1.4-.79-2.16-.9-.99-.15-2.02-.04-3.03-.04Zm332.44-75.24c0,.06.01.11.02.17.85,0,1.71-.07,2.55.01,5.37.51,8.59,3.62,8.05,8.04-.3,2.49-1.04,4.93-1.63,7.39-.2.84-.76,1.77.36,2.22,1.05.43,1.62-.42,1.81-1.3.65-2.98,1.56-5.96,1.73-8.98.24-4.1-2.19-7.38-5.75-8.62-2.75-.96-5.59-1.32-8.5-.94-1.9.25-3.8.5-5.7.67-.83.07-1.78.01-1.7,1.15.08,1.22,1.1,1.1,1.96,1,2.27-.26,4.54-.53,6.81-.8Zm-282.12,7.56c-.96-.39-2.02-.91-3.13-1.22-.56-.15-1.22.1-1.83.16.29.6.45,1.58.89,1.74,2.14.75,4.33,1.47,6.55,1.79.87.12,2.22-.61,2.77-1.38,1.74-2.45.03-7.14-2.88-7.8-3.84-.87-7.5-.08-10.74,2.23-.36.26-.34,1.07-.49,1.63.57.03,1.2.21,1.71.04.79-.26,1.48-.85,2.27-1.14,2.08-.76,4.2-1.16,6.22-.7-.46,1.61-.87,3.02-1.34,4.66Zm-35.75-22.37c-.23,6.23-2.08,11.82-5.25,17.03-.47.77-.95,1.61-1.08,2.48-.07.46.65,1.48.95,1.45.58-.05,1.28-.54,1.64-1.06.43-.62.42-1.53.82-2.18,5.3-8.78,5.99-18.12,3.35-27.88-.21-.79-.35-1.78-1.45-1.52-1.24.3-.72,1.32-.58,2.14.54,3.18,1.07,6.35,1.61,9.53Zm51.02,126.52c-3.52.38-6.63.69-9.73,1.1-.39.05-.72.63-1.08.96.36.37.68.97,1.1,1.07.7.17,1.48.07,2.21,0,2.32-.22,4.64-.68,6.96-.65,2.15.02,4.3.84,6.45.8,3.9-.07,7.59.8,11.29,1.82.56.16,1.17.44,1.7.34.67-.12,1.29-.58,1.92-.89-.49-.46-.9-1.21-1.47-1.35-4.22-1.04-8.38-2.33-12.84-2.23-2.29.05-4.6-.67-6.53-.98Zm224.22-85.97c-.37-.49-.76-1.02-1.16-1.54-.38.53-.93,1.01-1.12,1.6-.5,1.64-.74,3.37-1.28,4.99-2.24,6.79-4.77,13.47-8.41,19.66-.27.47-.05,1.23-.06,1.86.63-.2,1.44-.21,1.85-.63.69-.71,1.27-1.62,1.65-2.54,2.25-5.4,4.52-10.79,6.61-16.25.84-2.19,1.24-4.55,1.92-7.14Zm-312.08,16.43c-2.21-1.72-3.9-3.88-4.98-6.53-.21-.5-.9-.8-1.37-1.19-.2.59-.5,1.17-.58,1.78-.05.38.22.82.39,1.21,1.6,3.45,3.96,6.27,7.12,8.29.93.59,2.31.7,3.45.62.96-.06.95-.92.47-1.73-1.77-2.99-3.53-5.98-5.23-9.01-.3-.53-.26-1.25-.5-1.82-.19-.47-.56-.86-.86-1.29-.46.43-1.22.8-1.31,1.29-.12.67.15,1.49.45,2.16.93,2.1,1.96,4.16,2.94,6.23Zm32.04-60.33s.04,0,.06,0c-.09,1.23-.1,2.47-.27,3.69-.74,5.38-3.23,10.09-5.62,14.84-.48.96-1.1,1.86-1.46,2.86-.15.43.19,1.05.31,1.58.55-.16,1.31-.15,1.62-.51.61-.72.99-1.64,1.44-2.5,3.64-7.06,6.9-14.22,5.99-22.53-.09-.83-.18-1.65-1.16-1.44-.43.09-.9.89-.99,1.43-.14.83.04,1.71.08,2.57Zm294.88,47.97c-.18-.3-.35-.94-.64-1-.41-.08-1.03.14-1.34.45-.35.35-.48.94-.68,1.44-1.5,3.68-2.86,7.43-4.53,11.03-1.53,3.3-3.41,6.43-5.08,9.66-.28.54-.29,1.22-.42,1.83.66-.08,1.6.1,1.94-.28.99-1.09,1.97-2.31,2.56-3.65,2.55-5.8,4.96-11.66,7.42-17.5.25-.59.47-1.2.77-1.98Zm-315.31-19.86c-.08,5.16,4.83,9,9.25,7.59.37-.12.55-.84.82-1.29-.53-.3-1.03-.7-1.6-.86-1.27-.36-2.64-.43-3.85-.91-1.92-.76-2.53-2.52-2.37-5.32.12-2.02,1.42-2.16,2.92-2.41,2.23-.38,3.45-2.28,2.85-4.38-.14-.48-.81-.81-1.23-1.21-.29.45-.86.93-.81,1.33.19,1.62-.58,2.06-1.99,2.22-2.38.27-3.34,1.13-3.72,3.11-.16.84-.23,1.71-.28,2.13Zm77.38-39.72c-.47-2.2-.87-4.41-1.44-6.58-.21-.8-.64-1.7-1.25-2.2-.46-.37-1.59-.49-2.03-.17-.77.55-.35,1.23.39,1.79.46.35.78,1,.98,1.58,1.62,4.67,1.16,9.12-1.53,13.28-.34.52-.91.88-1.28,1.39-.32.44-.49.99-.73,1.5.6.2,1.31.71,1.78.53.69-.25,1.34-.9,1.76-1.54,1.86-2.88,3.23-5.95,3.35-9.59Zm-16.76,20.85c-2.33.65-5.19,1.39-8.01,2.3-.45.14-.66,1.03-.99,1.57.59.19,1.23.63,1.76.52,1.24-.25,2.41-.92,3.65-1.11,2.07-.33,4.24-.82,6.26-.5,2.59.4,5.05,1.57,7.6,2.29.53.15,1.19-.19,1.8-.3-.3-.54-.47-1.34-.93-1.59-3.28-1.76-6.86-2.5-11.14-3.17Zm210.25,41.03c-.2-.26-.57-.74-.94-1.22-.41.47-.91.89-1.2,1.43-.22.4-.16.94-.24,1.42-.91,5.3-2.76,10.27-5.28,14.98-.43.8-1.65,1.56-.53,2.44,1.1.86,1.77-.38,2.44-1.09.11-.12.2-.26.27-.4,2.68-5.43,4.72-11.06,5.48-17.56Zm-253.31-47.19c-.34-1.83-.6-3.69-1.1-5.48-.12-.43-1.04-.63-1.59-.94-.15.51-.57,1.12-.42,1.51,1.08,2.77,1.09,5.64.38,8.41-.63,2.45-1.82,4.75-2.75,7.12-.24.61-.59,1.21-.63,1.83-.02.25.77.86.97.78.62-.26,1.33-.66,1.66-1.22,2.16-3.67,3.34-7.65,3.48-12.01Zm181.02,90.15c3.27-1.32,6.56-2.22,9.38-3.93,2.25-1.36,3.99-3.64,5.81-5.65.36-.4.34-1.79-.02-2.1-.82-.7-1.3.22-1.83.86-1.17,1.39-2.35,2.78-3.69,3.99-2.76,2.49-6.25,3.34-9.73,4.21-.49.12-.86.74-1.29,1.14.38.41.76.82,1.37,1.48Zm-215.07,24.72c-.15-.15-.66-.89-.86-.81-.49.18-1.1.69-1.2,1.17-1.21,5.81-1.12,11.53,1.51,17,.41.85.67,2.34,2,1.68,1.3-.63.39-1.85,0-2.68-1.76-3.7-2.21-7.6-1.96-11.63.09-1.44.31-2.88.52-4.73Zm79.73-128.79c-.2-1.78-.39-3.82-.69-5.84-.05-.37-.53-.89-.86-.93-.34-.04-.99.36-1.06.68-.16.7-.17,1.5-.02,2.2.88,3.99.39,7.73-1.86,11.15-.45.68-1.29,1.07-1.89,1.66-.3.3-.73.82-.64,1.11.16.55.61,1.36,1,1.4.62.06,1.52-.24,1.9-.71,2.45-3.03,4-6.47,4.12-10.72Zm256.76,75.7c.37.47.74.95,1.12,1.43.4-.4.94-.74,1.19-1.22.59-1.14.94-2.42,1.58-3.52,2.1-3.62,4.3-7.17,6.4-10.78.22-.37.24-1.28.03-1.41-.4-.24-1.07-.23-1.55-.08-.34.11-.61.59-.82.95-2.31,3.94-4.63,7.87-6.88,11.84-.44.78-.65,1.69-1.06,2.8ZM119,145.87c-.14-.03-.27-.07-.41-.1,0-.32.06-.66,0-.97-.34-1.62-.62-3.27-1.14-4.83-.12-.37-1.09-.46-1.67-.67-.16.5-.61,1.21-.43,1.48,1.47,2.22,1.22,4.7.89,7.05-.31,2.22-.44,4.64-2.35,6.35-.24.22-.24,1.17,0,1.39.35.32,1.18.54,1.52.34.59-.36,1.19-1.01,1.38-1.66.82-2.76,1.5-5.57,2.23-8.36Zm12.8-6.13c-.15-.98-.28-2.38-.6-3.73-.1-.44-.69-.76-1.05-1.14-.34.46-.76.89-.97,1.4-.12.29.09.73.15,1.1.71,4.28-.26,8.23-2.5,11.85-.54.87-1.17,1.56-.17,2.28.99.71,1.71-.07,2.16-.92,1.73-3.25,2.86-6.69,2.97-10.84Zm-35.9,9.65c-.31-.12-.81-.48-1.28-.44-.43.04-1.05.44-1.18.82-.26.8-.24,1.69-.37,2.55-.39,2.71-.79,5.42-1.22,8.13-.06.4-.35.76-.46,1.16-.18.64-.46,1.32-.38,1.94.04.33.97.9,1.14.79.57-.36,1.28-.92,1.39-1.51.82-4.22,1.51-8.46,2.36-13.43Zm-22.99,52.25c.14.94.19,1.48.3,2.01.64,3.02,1.88,5.73,4.3,7.73,1.03.85,2.18,1.23,3.3.17.25-.24.42-.81.32-1.13-.1-.31-.64-.72-.91-.67-1.4.26-2.23-.61-2.69-1.59-.94-2.01-1.58-4.17-2.43-6.22-.21-.51-.79-.88-1.19-1.31-.39.4-.78.81-1,1.03Zm345.45,11.97c.16-.13.53-.35.75-.67,2.01-2.9,4.02-5.79,5.94-8.75.24-.38-.1-1.14-.16-1.72-.55.14-1.28.1-1.6.45-.83.89-1.51,1.93-2.18,2.96-1.25,1.93-2.5,3.86-3.66,5.84-.63,1.08-.25,1.93.92,1.88Zm-333.25-5.61c-.2-.38-.31-.68-.49-.94-1.78-2.52-3.53-5.07-5.38-7.54-.36-.47-1.12-.64-1.69-.95-.05.67-.38,1.5-.1,1.98,1.3,2.27,2.73,4.47,4.2,6.64.44.65,1.11,1.16,1.75,1.61.28.19.82.19,1.16.05.26-.11.38-.57.56-.86Zm359.93-6.58c-.08-1.17-1.22-1.51-2.46-.83-2.91,1.58-4.44,4.37-5.89,7.18-.15.28.09,1.04.36,1.2.29.17.92,0,1.24-.24.41-.3.68-.81.98-1.25,1.42-2.12,2.57-4.49,5.26-5.34.26-.08.41-.55.51-.71Zm-298.4-8.31c.55,1.21.87,2.12,1.38,2.89.17.26.94.4,1.24.23.29-.16.57-.93.42-1.19-1.07-1.86-.2-3.23.87-4.68.28-.38.1-1.13.13-1.7-.57.09-1.42-.03-1.65.3-.91,1.32-1.62,2.78-2.39,4.15Zm-58.77-101.86c.1.15.27.73.59.84.33.11.96-.11,1.21-.41,1.15-1.37,2.24-2.79,3.27-4.25.26-.37.32-.99.23-1.45-.04-.2-.72-.42-1.08-.37-1.49.23-4.23,3.74-4.22,5.63Z"/>
          <path class="cls-5" d="m187.74,309.28c-1.19-.67-2.43-1.28-3.59-2.03-2.18-1.42-3.3-3.44-3.33-6.11-.01-1.64-.25-3.27-.41-5.18.8-.57,1.86-1.34,3.03-2.18,1.34,3.46,2.57,6.69,3.84,9.91.24.62.56,1.22.91,1.79,1.23,2,1.24,1.99-.45,3.81Z"/>
        </g>
      </g>
      <rect class="cls-1" x="1" y="1" width="410.7" height="407.24"/>
    </g>
  </g>
</svg>