<?xml version="1.0" encoding="UTF-8"?>
<svg id="_圖層_2" data-name="圖層 2" xmlns="http://www.w3.org/2000/svg" xmlns:xlink="http://www.w3.org/1999/xlink" viewBox="0 0 1364.73 613.42">
  <defs>
    <style>
      .cls-1 {
        clip-path: url(#clippath-2);
      }

      .cls-2 {
        clip-path: url(#clippath-1);
      }

      .cls-3 {
        fill: #fdbf58;
      }

      .cls-4 {
        clip-path: url(#clippath);
      }

      .cls-5 {
        fill: none;
      }

      .cls-6 {
        fill: #2b2a2a;
      }
    </style>
    <clipPath id="clippath">
      <rect class="cls-5" x="2" y="2.05" width="1360.73" height="609.31"/>
    </clipPath>
    <clipPath id="clippath-1">
      <rect class="cls-5" x="-50.9" y="2.05" width="1412.46" height="613.42"/>
    </clipPath>
    <clipPath id="clippath-2">
      <rect class="cls-5" x="3.09" width="1358.56" height="613.42"/>
    </clipPath>
  </defs>
  <g id="_圖層_1-2" data-name="圖層 1">
    <g>
      <g class="cls-4">
        <g>
          <g class="cls-2">
            <g>
              <path class="cls-3" d="m911.28,608.63c.04,1.77.07,3.54.07,5.33h-256.03,1017.4v-5.33h-761.44Z"/>
              <path class="cls-3" d="m1657.75,443.99l-.96-5.24-750.3,127.25c.36,1.74.7,3.48,1.02,5.23l750.25-127.24Z"/>
              <path class="cls-3" d="m1612.32,279.1l-1.89-5.01-716.35,250.78c.67,1.65,1.32,3.31,1.95,4.98l716.29-250.76Z"/>
              <path class="cls-3" d="m1537.8,124.31l-2.77-4.61-660.58,366.83c.96,1.52,1.9,3.05,2.82,4.58L1537.8,124.31Z"/>
              <path class="cls-3" d="m1436.48-15.68l-3.56-4.08-584.65,471.86c1.21,1.34,2.41,2.69,3.59,4.05L1436.48-15.68Z"/>
              <path class="cls-3" d="m1311.42-136.63l-4.24-3.42-490.8,562.58c1.43,1.12,2.85,2.25,4.26,3.4l490.77-562.56Z"/>
              <path class="cls-3" d="m1166.42-234.84l-4.8-2.66-381.89,636.21c1.61.86,3.22,1.74,4.81,2.64l381.87-636.18Z"/>
              <path class="cls-3" d="m1005.9-307.35l-5.2-1.82-261.29,690.48c1.75.58,3.48,1.18,5.21,1.8l261.28-690.46Z"/>
              <path class="cls-3" d="m834.72-351.95l-5.45-.93-132.68,723.77c1.82.28,3.64.58,5.46.9l132.68-723.75Z"/>
              <path class="cls-3" d="m658.1,367.73V-367.28h-5.54V367.73c.92,0,1.84-.03,2.77-.03s1.85.02,2.77.03Z"/>
              <path class="cls-3" d="m481.39-352.88l-5.45.93,132.68,723.75c1.81-.32,3.63-.62,5.46-.9l-132.68-723.77Z"/>
              <path class="cls-3" d="m309.96-309.17l-5.2,1.82,261.28,690.46c1.73-.62,3.47-1.22,5.21-1.8L309.96-309.17Z"/>
              <path class="cls-3" d="m149.03-237.51l-4.8,2.66,381.87,636.18c1.59-.9,3.2-1.78,4.81-2.64L149.03-237.51Z"/>
              <path class="cls-3" d="m3.48-140.05l-4.24,3.42L490.01,425.94c1.41-1.15,2.83-2.28,4.26-3.4L3.48-140.05Z"/>
              <path class="cls-3" d="m-122.26-19.76l-3.56,4.08L458.79,456.15c1.18-1.36,2.38-2.71,3.59-4.05L-122.26-19.76Z"/>
              <path class="cls-3" d="m-224.38,119.7l-2.77,4.61L433.38,491.12c.92-1.54,1.86-3.07,2.82-4.58L-224.38,119.7Z"/>
              <path class="cls-3" d="m-299.77,274.1l-1.89,5.01,716.29,250.76c.63-1.67,1.29-3.33,1.95-4.98l-716.35-250.78Z"/>
              <path class="cls-3" d="m-346.13,438.74l-.96,5.24,750.25,127.24c.32-1.75.66-3.5,1.02-5.23l-750.3-127.25Z"/>
              <path class="cls-3" d="m-362.07,608.63v5.33H399.3c0-1.78.03-3.55.07-5.33H-362.07Z"/>
              <path class="cls-3" d="m911.35,613.96c0-1.78-.03-3.55-.07-5.33-.28-12.73-1.56-25.22-3.78-37.4-.32-1.75-.66-3.5-1.02-5.23-2.55-12.4-6.05-24.47-10.45-36.13-.63-1.67-1.29-3.33-1.95-4.98-4.73-11.71-10.35-22.99-16.8-33.76-.92-1.54-1.86-3.07-2.82-4.58-6.73-10.69-14.3-20.84-22.59-30.39-1.18-1.36-2.38-2.71-3.59-4.05-8.51-9.38-17.75-18.12-27.63-26.16-1.41-1.15-2.83-2.28-4.26-3.4-10.01-7.81-20.65-14.9-31.83-21.2-1.59-.9-3.2-1.78-4.81-2.64-11.22-6.01-22.95-11.24-35.12-15.59-1.73-.62-3.47-1.22-5.21-1.8-12.07-4.04-24.55-7.23-37.37-9.5-1.81-.32-3.63-.62-5.46-.9-12.55-1.96-25.4-3.03-38.49-3.17-.92,0-1.84-.03-2.77-.03s-1.85.02-2.77.03c-13.09.13-25.94,1.21-38.49,3.17-1.82.28-3.64.58-5.46.9-12.82,2.27-25.3,5.47-37.37,9.5-1.75.58-3.48,1.18-5.21,1.8-12.17,4.36-23.9,9.58-35.12,15.59-1.61.87-3.22,1.74-4.81,2.64-11.18,6.3-21.82,13.39-31.83,21.2-1.43,1.12-2.85,2.25-4.26,3.4-9.88,8.04-19.12,16.79-27.63,26.16-1.21,1.34-2.41,2.69-3.59,4.05-8.29,9.55-15.86,19.7-22.59,30.39-.96,1.52-1.9,3.05-2.82,4.58-6.45,10.76-12.08,22.05-16.8,33.76-.67,1.65-1.32,3.31-1.95,4.98-4.4,11.66-7.91,23.73-10.45,36.13-.36,1.74-.7,3.48-1.02,5.23-2.22,12.18-3.5,24.67-3.78,37.4-.04,1.77-.07,3.54-.07,5.33h512.05Z"/>
            </g>
          </g>
          <rect class="cls-5" x="-50.9" y="4.64" width="1414.72" height="609.31"/>
        </g>
      </g>
      <g class="cls-1">
        <g>
          <path class="cls-6" d="m928.55,606.58c.04,1.77.07,3.54.07,5.33h-246.25,978.57v-5.33h-732.38Z"/>
          <path class="cls-6" d="m1646.53,441.93l-.93-5.24-721.67,127.25c.34,1.74.67,3.48.98,5.23l721.62-127.24Z"/>
          <path class="cls-6" d="m1602.83,277.05l-1.82-5.01-689.01,250.78c.64,1.65,1.27,3.31,1.88,4.98l688.95-250.76Z"/>
          <path class="cls-6" d="m1531.17,122.26l-2.66-4.61-635.37,366.83c.92,1.52,1.82,3.05,2.71,4.58L1531.17,122.26Z"/>
          <path class="cls-6" d="m1433.71-17.73l-3.42-4.08-562.34,471.86c1.17,1.34,2.32,2.69,3.46,4.05L1433.71-17.73Z"/>
          <path class="cls-6" d="m1313.42-138.68l-4.08-3.42-472.07,562.58c1.38,1.12,2.75,2.25,4.1,3.4l472.04-562.56Z"/>
          <path class="cls-6" d="m1173.96-236.9l-4.61-2.66-367.31,636.21c1.55.86,3.09,1.74,4.63,2.64l367.3-636.18Z"/>
          <path class="cls-6" d="m1019.56-309.41l-5.01-1.82-251.31,690.48c1.68.58,3.35,1.18,5.01,1.8l251.31-690.46Z"/>
          <path class="cls-6" d="m854.92-354l-5.24-.93-127.62,723.77c1.76.28,3.51.58,5.25.9l127.62-723.75Z"/>
          <path class="cls-6" d="m685.03,365.68V-369.33h-5.33V365.68c.89,0,1.77-.03,2.66-.03s1.77.02,2.66.03Z"/>
          <path class="cls-6" d="m515.06-354.93l-5.24.93,127.62,723.75c1.74-.32,3.49-.62,5.25-.9l-127.62-723.77Z"/>
          <path class="cls-6" d="m350.18-311.23l-5.01,1.82,251.31,690.46c1.66-.62,3.33-1.22,5.01-1.8l-251.31-690.48Z"/>
          <path class="cls-6" d="m195.39-239.56l-4.61,2.66,367.3,636.18c1.53-.9,3.07-1.78,4.63-2.64L195.39-239.56Z"/>
          <path class="cls-6" d="m55.39-142.1l-4.08,3.42,472.04,562.56c1.35-1.15,2.72-2.28,4.1-3.4L55.39-142.1Z"/>
          <path class="cls-6" d="m-65.55-21.81l-3.42,4.08L493.33,454.09c1.14-1.36,2.29-2.71,3.46-4.05L-65.55-21.81Z"/>
          <path class="cls-6" d="m-163.77,117.65l-2.66,4.61L468.89,489.07c.89-1.54,1.79-3.07,2.71-4.58L-163.77,117.65Z"/>
          <path class="cls-6" d="m-236.28,272.05l-1.82,5.01,688.95,250.76c.61-1.67,1.24-3.33,1.88-4.98L-236.28,272.05Z"/>
          <path class="cls-6" d="m-280.88,436.69l-.93,5.24,721.62,127.24c.31-1.75.64-3.5.98-5.23l-721.67-127.25Z"/>
          <path class="cls-6" d="m-296.2,606.58v5.33H436.11c0-1.78.03-3.55.07-5.33H-296.2Z"/>
          <path class="cls-6" d="m682.37,365.65c.89,0,1.77.02,2.66.03,12.59.13,24.95,1.21,37.02,3.16,1.76.28,3.51.58,5.25.9,12.33,2.27,24.33,5.47,35.94,9.5,1.68.58,3.35,1.18,5.01,1.8,11.71,4.36,22.99,9.58,33.78,15.59,1.55.86,3.09,1.74,4.62,2.64,10.75,6.3,20.99,13.39,30.62,21.2,1.38,1.12,2.75,2.25,4.1,3.4,9.5,8.04,18.39,16.79,26.57,26.16,1.17,1.34,2.32,2.69,3.46,4.05,7.98,9.55,15.25,19.7,21.73,30.39.92,1.52,1.82,3.05,2.71,4.58,6.21,10.76,11.62,22.05,16.16,33.76.64,1.65,1.27,3.31,1.88,4.98,4.24,11.66,7.61,23.73,10.06,36.13.34,1.74.67,3.48.98,5.23,2.13,12.18,3.37,24.67,3.64,37.4.04,1.77.07,3.54.07,5.33h-492.51c0-1.78.03-3.55.07-5.33.27-12.73,1.5-25.22,3.64-37.4.31-1.75.64-3.5.98-5.23,2.45-12.4,5.82-24.47,10.06-36.13.61-1.67,1.24-3.33,1.88-4.98,4.55-11.71,9.95-22.99,16.16-33.76.89-1.54,1.79-3.07,2.71-4.58,6.48-10.69,13.75-20.84,21.73-30.39,1.14-1.36,2.29-2.71,3.46-4.05,8.18-9.38,17.07-18.12,26.57-26.16,1.35-1.15,2.72-2.28,4.1-3.4,9.63-7.81,19.86-14.9,30.62-21.2,1.53-.9,3.07-1.78,4.63-2.64,10.79-6.01,22.07-11.24,33.78-15.59,1.66-.62,3.33-1.22,5.01-1.8,11.61-4.04,23.61-7.23,35.94-9.5,1.74-.32,3.49-.62,5.25-.9,12.07-1.96,24.43-3.03,37.02-3.16.89,0,1.77-.03,2.66-.03m0-4c-.58,0-1.16,0-1.74.02-.32,0-.64.01-.97.01-12.61.13-25.27,1.22-37.62,3.22-1.91.31-3.66.61-5.33.92-12.36,2.28-24.65,5.53-36.53,9.66-1.84.64-3.51,1.24-5.1,1.83-11.76,4.37-23.31,9.71-34.33,15.85-1.66.93-3.2,1.8-4.7,2.68-10.85,6.36-21.32,13.61-31.11,21.54-1.39,1.12-2.79,2.29-4.17,3.45-9.65,8.17-18.73,17.11-27,26.58-1.1,1.27-2.25,2.61-3.51,4.12-8.14,9.74-15.56,20.12-22.08,30.88-.94,1.55-1.86,3.11-2.76,4.66-6.31,10.94-11.84,22.48-16.43,34.31-.73,1.87-1.35,3.53-1.91,5.07-4.32,11.88-7.76,24.24-10.22,36.72-.39,1.97-.71,3.71-1,5.32-2.18,12.46-3.42,25.25-3.69,38.01-.03,1.59-.07,3.47-.07,5.41v4h500.51v-4c0-1.93-.03-3.82-.07-5.41-.27-12.75-1.51-25.54-3.69-38.01-.28-1.62-.61-3.36-1-5.32-2.46-12.48-5.9-24.84-10.22-36.72-.56-1.54-1.18-3.19-1.91-5.07-4.59-11.83-10.12-23.37-16.43-34.31-.89-1.54-1.81-3.11-2.75-4.66-6.52-10.76-13.94-21.14-22.08-30.88-1.27-1.52-2.42-2.86-3.51-4.12-8.27-9.47-17.35-18.41-27-26.58-1.38-1.16-2.78-2.33-4.17-3.45-9.79-7.94-20.26-15.18-31.11-21.54-1.51-.89-3.09-1.79-4.7-2.68-11.02-6.14-22.57-11.47-34.33-15.85-1.58-.59-3.25-1.19-5.09-1.83-11.88-4.13-24.17-7.38-36.53-9.66-1.64-.3-3.38-.6-5.33-.92-12.35-2-25.01-3.08-37.62-3.22-.32,0-.64,0-.96-.01-.58,0-1.16-.02-1.74-.02h0Z"/>
        </g>
      </g>
      <path class="cls-6" d="m1362.73,2.05v609.31H2V2.05h1360.73m2-2H0v613.31h1364.73V.05h0Z"/>
    </g>
  </g>
</svg>