<?xml version="1.0" encoding="UTF-8"?>
<svg id="_圖層_2" data-name="圖層 2" xmlns="http://www.w3.org/2000/svg" viewBox="0 0 282.75 282.75">
  <defs>
    <style>
      .cls-1 {
        fill: #2b2a2a;
      }

      .cls-1, .cls-2, .cls-3 {
        stroke: #2b2a2a;
        stroke-miterlimit: 10;
        stroke-width: 2px;
      }

      .cls-2, .cls-4 {
        fill: none;
      }

      .cls-5 {
        fill: #f5e7d3;
      }

      .cls-3 {
        fill: #ff6044;
      }

      .cls-6 {
        fill: #54adaf;
      }
    </style>
  </defs>
  <g id="_圖層_1-2" data-name="圖層 1">
    <g>
      <rect class="cls-3" x="1" y="1" width="280.75" height="280.75"/>
      <g>
        <ellipse class="cls-5" cx="125.61" cy="141.38" rx="46" ry="91.84"/>
        <ellipse class="cls-6" cx="196.39" cy="141.38" rx="46" ry="91.84"/>
        <ellipse class="cls-6" cx="55.04" cy="141.38" rx="46" ry="91.84"/>
      </g>
      <ellipse class="cls-2" cx="154.69" cy="141.38" rx="46" ry="91.84"/>
      <g>
        <path class="cls-1" d="m187.46,78.59c-7.71,16.42-12.43,38.5-12.43,62.78s4.72,46.36,12.43,62.78c7.71-16.42,12.43-38.5,12.43-62.78s-4.72-46.36-12.43-62.78Z"/>
        <g>
          <ellipse class="cls-2" cx="221.03" cy="141.38" rx="46" ry="91.84"/>
          <ellipse class="cls-2" cx="88.03" cy="141.38" rx="46" ry="91.84"/>
          <g>
            <path class="cls-4" d="m154.69,49.54c-13.24,0-25.17,11.18-33.57,29.06,7.71,16.42,12.43,38.5,12.43,62.78s-4.72,46.36-12.43,62.78c8.39,17.88,20.33,29.06,33.57,29.06,25.4,0,46-41.12,46-91.84s-20.59-91.84-46-91.84Z"/>
            <path class="cls-1" d="m121.12,78.59c-7.71,16.42-12.43,38.5-12.43,62.78s4.72,46.36,12.43,62.78c7.71-16.42,12.43-38.5,12.43-62.78s-4.72-46.36-12.43-62.78Z"/>
          </g>
        </g>
      </g>
    </g>
  </g>
</svg>