<?xml version="1.0" encoding="utf-8"?>
<!-- Generator: Adobe Illustrator 27.3.1, SVG Export Plug-In . SVG Version: 6.00 Build 0)  -->
<svg version="1.1" id="_圖層_2" xmlns="http://www.w3.org/2000/svg" xmlns:xlink="http://www.w3.org/1999/xlink" x="0px" y="0px"
	 viewBox="0 0 1252.2 525" style="enable-background:new 0 0 1252.2 525;" xml:space="preserve">
<style type="text/css">
	.st0{clip-path:url(#SVGID_00000176735177327492541520000015086970082959587468_);}
	.st1{fill:none;stroke:#000000;stroke-width:1.628;stroke-linecap:round;stroke-linejoin:round;}
	.st2{fill:#050505;}
</style>
<g>
	<defs>
		
			<rect id="SVGID_1_" x="-0.5" y="-213.9" transform="matrix(-1 -1.224647e-16 1.224647e-16 -1 1252.24 311.1015)" width="1253.2" height="738.9"/>
	</defs>
	<clipPath id="SVGID_00000133521291200943889540000003716744297607197865_">
		<use xlink:href="#SVGID_1_"  style="overflow:visible;"/>
	</clipPath>
	<g id="_圖層_1-2" style="clip-path:url(#SVGID_00000133521291200943889540000003716744297607197865_);">
		<g>
			<line class="st1" x1="677.7" y1="669.1" x2="767.6" y2="916.4"/>
			<line class="st1" x1="573" y1="380.9" x2="483" y2="133.4"/>
			<line class="st1" x1="871.7" y1="818.9" x2="723.8" y2="642.4"/>
			<line class="st1" x1="378.9" y1="230.9" x2="527" y2="407.6"/>
			<line class="st1" x1="985.7" y1="733.2" x2="758" y2="601.6"/>
			<line class="st1" x1="492.8" y1="448.3" x2="265" y2="316.6"/>
			<line class="st1" x1="215.5" y1="452.6" x2="474.6" y2="498.3"/>
			<line class="st1" x1="1035.1" y1="597.2" x2="776.2" y2="551.5"/>
			<line class="st1" x1="967.4" y1="464.5" x2="776.1" y2="498.3"/>
			<line class="st1" x1="283.2" y1="585.3" x2="474.5" y2="551.5"/>
			<line class="st1" x1="985.7" y1="316.6" x2="757.9" y2="448.3"/>
			<line class="st1" x1="265" y1="733.2" x2="492.7" y2="601.6"/>
			<line class="st1" x1="723.7" y1="407.5" x2="848.6" y2="258.5"/>
			<line class="st1" x1="402" y1="791.3" x2="526.8" y2="642.4"/>
			<line class="st1" x1="483" y1="916.4" x2="572.9" y2="669.1"/>
			<line class="st1" x1="677.6" y1="380.9" x2="767.6" y2="133.4"/>
			<line class="st1" x1="625.3" y1="371.7" x2="625.3" y2="177.1"/>
			<line class="st1" x1="625.3" y1="872.7" x2="625.3" y2="678.3"/>
			<line class="st1" x1="598.7" y1="374" x2="577.6" y2="254"/>
			<line class="st1" x1="651.9" y1="676" x2="673" y2="795.8"/>
			<line class="st1" x1="883.5" y1="619" x2="769.3" y2="577.4"/>
			<line class="st1" x1="481.5" y1="472.5" x2="367.1" y2="430.8"/>
			<line class="st1" x1="367.1" y1="619" x2="481.4" y2="577.3"/>
			<line class="st1" x1="883.5" y1="430.8" x2="769.2" y2="472.5"/>
			<line class="st1" x1="762.7" y1="286.7" x2="701.8" y2="392.2"/>
			<line class="st1" x1="487.9" y1="763.1" x2="548.7" y2="657.8"/>
			<line class="st1" x1="563.8" y1="1031.2" x2="606.8" y2="677.2"/>
			<line class="st1" x1="643.8" y1="372.9" x2="686.8" y2="18.6"/>
			<line class="st1" x1="519.1" y1="67.4" x2="590.7" y2="375.7"/>
			<line class="st1" x1="731.5" y1="982.4" x2="660" y2="674.4"/>
			<line class="st1" x1="903.4" y1="952" x2="709" y2="653.4"/>
			<line class="st1" x1="347.2" y1="97.8" x2="541.8" y2="396.6"/>
			<line class="st1" x1="217.9" y1="218.9" x2="502.9" y2="433"/>
			<line class="st1" x1="1032.7" y1="830.9" x2="747.9" y2="617"/>
			<line class="st1" x1="1032.3" y1="648.5" x2="771.9" y2="569.4"/>
			<line class="st1" x1="218.3" y1="401.3" x2="478.8" y2="480.4"/>
			<line class="st1" x1="778.2" y1="516.5" x2="1134.2" y2="497.1"/>
			<line class="st1" x1="116.4" y1="552.7" x2="472.4" y2="533.2"/>
			<line class="st1" x1="766.1" y1="464.7" x2="1016.7" y2="357.7"/>
			<line class="st1" x1="233.9" y1="692.1" x2="484.4" y2="585.1"/>
			<line class="st1" x1="253" y1="873.5" x2="513.4" y2="629.7"/>
			<line class="st1" x1="737.1" y1="420.2" x2="997.6" y2="176.3"/>
			<line class="st1" x1="432.6" y1="904.7" x2="555.9" y2="661.7"/>
			<line class="st1" x1="694.6" y1="388.3" x2="818" y2="145.1"/>
			<line class="st1" x1="669.9" y1="378.3" x2="723.3" y2="202.7"/>
			<line class="st1" x1="527.3" y1="847.1" x2="580.7" y2="671.7"/>
			<line class="st1" x1="395.5" y1="279.1" x2="520.8" y2="413.1"/>
			<line class="st1" x1="855.1" y1="770.7" x2="730" y2="636.9"/>
			<line class="st1" x1="291.3" y1="484.6" x2="473.3" y2="506.6"/>
			<line class="st1" x1="959.3" y1="565.2" x2="777.4" y2="543.2"/>
			<line class="st1" x1="907.3" y1="340.9" x2="753.5" y2="441.2"/>
			<line class="st1" x1="343.3" y1="708.9" x2="497" y2="608.6"/>
			<path class="st2" d="M625.3,678.3C625.3,678.3,625.3,678.3,625.3,678.3c-6.3,0-12.5-0.4-18.5-1.1c-9-1.1-17.7-2.9-26.1-5.5
				c-2.6-0.8-5.2-1.7-7.8-2.6c-5.8-2.1-11.5-4.6-17-7.4c-2.4-1.2-4.8-2.6-7.2-3.9c-7.7-4.5-15-9.6-21.8-15.4
				c-4.7-4-9.2-8.2-13.4-12.7c-6.1-6.5-11.6-13.5-16.5-21c-1.5-2.3-3-4.7-4.3-7.1c-3.1-5.3-5.8-10.8-8.2-16.5
				c-1.1-2.5-2.1-5.1-3-7.7c-3-8.3-5.3-16.9-6.9-25.8c-1-6-1.7-12.1-2.1-18.3c-0.1-2.7-0.2-5.5-0.2-8.2c0-6.3,0.4-12.4,1.1-18.5
				c0.3-2.8,0.7-5.5,1.2-8.3c1.1-6.1,2.5-12,4.3-17.9c0.8-2.7,1.7-5.3,2.6-7.9c3.1-8.4,6.9-16.5,11.3-24.2
				c3.1-5.3,6.5-10.4,10.1-15.3c5.4-7.1,11.3-13.8,17.8-19.9c2-1.9,4.1-3.7,6.2-5.5c4.7-3.9,9.6-7.6,14.8-11
				c9.7-6.3,20.2-11.6,31.2-15.6c5.7-2.1,11.7-3.9,17.7-5.3c2.7-0.6,5.4-1.2,8.1-1.6c8.6-1.5,17.5-2.3,26.6-2.3c0,0,0,0,0,0
				c6.2,0,12.4,0.4,18.4,1.1c9,1.1,17.7,2.9,26.1,5.5c2.6,0.8,5.2,1.7,7.8,2.6c5.8,2.1,11.5,4.6,17,7.4c2.4,1.2,4.9,2.5,7.2,3.9
				c7.7,4.5,15,9.6,21.8,15.3c4.7,4,9.2,8.2,13.4,12.7c6.1,6.5,11.6,13.5,16.5,21c1.5,2.3,3,4.7,4.3,7c3.1,5.3,5.8,10.8,8.3,16.5
				c1.1,2.5,2.1,5.1,3.1,7.7c3,8.3,5.3,16.9,6.9,25.8c1.1,6,1.8,12.1,2.1,18.3c0.2,2.8,0.2,5.6,0.2,8.5c0,6.2-0.4,12.2-1.1,18.2
				c-0.3,2.8-0.7,5.5-1.2,8.3c-1.1,6.1-2.5,12.1-4.2,17.9c-0.8,2.7-1.7,5.3-2.6,7.9c-3.1,8.4-6.8,16.6-11.3,24.2
				c-3.1,5.3-6.5,10.5-10.1,15.4c-5.4,7.2-11.3,13.8-17.9,19.9c-2,1.9-4.1,3.7-6.2,5.5c-4.7,4-9.6,7.6-14.8,11
				c-9.7,6.4-20.2,11.6-31.3,15.7c-5.8,2.1-11.7,3.9-17.7,5.3c-2.7,0.6-5.4,1.2-8.1,1.6C643.3,677.5,634.4,678.3,625.3,678.3
				 M625.3,679.9c9,0,18-0.8,26.9-2.3c2.8-0.5,5.5-1,8.1-1.7c6-1.4,12.1-3.2,17.9-5.3c11.1-4,21.7-9.4,31.6-15.8
				c5.2-3.4,10.2-7.1,15-11.1c2.1-1.8,4.2-3.7,6.3-5.6c6.6-6.2,12.7-13,18-20.1c3.7-4.9,7.2-10.2,10.2-15.5
				c4.5-7.8,8.3-16,11.4-24.5c0.9-2.6,1.8-5.3,2.7-8c1.8-5.9,3.2-12,4.3-18.1c0.5-2.7,0.9-5.5,1.2-8.4c0.7-6.1,1.1-12.3,1.1-18.4
				c0-2.8-0.1-5.7-0.2-8.6c-0.3-6.2-1.1-12.4-2.1-18.5c-1.6-8.9-3.9-17.7-7-26.1c-0.9-2.6-2-5.2-3.1-7.8c-2.4-5.7-5.2-11.3-8.3-16.6
				c-1.4-2.4-2.8-4.7-4.4-7.1c-4.9-7.5-10.5-14.6-16.6-21.2c-4.2-4.5-8.8-8.8-13.5-12.8c-6.9-5.8-14.3-11-22.1-15.5
				c-2.4-1.4-4.8-2.7-7.3-4c-5.6-2.8-11.3-5.3-17.1-7.4c-2.5-0.9-5.2-1.8-7.9-2.6c-8.6-2.6-17.5-4.5-26.4-5.5
				c-6.2-0.7-12.5-1.1-18.6-1.1h0c-9,0-18,0.8-26.8,2.3c-2.8,0.5-5.5,1-8.1,1.7c-6,1.4-12,3.2-17.9,5.3c-11,4-21.7,9.3-31.6,15.8
				c-5.2,3.4-10.2,7.1-14.9,11.1c-2.1,1.8-4.2,3.7-6.3,5.6c-6.6,6.2-12.6,12.9-18,20.1c-3.7,4.9-7.2,10.1-10.2,15.5
				c-4.5,7.8-8.4,16-11.4,24.5c-0.9,2.6-1.8,5.3-2.7,8c-1.8,5.9-3.2,12-4.3,18.1c-0.5,2.7-0.9,5.5-1.2,8.4
				c-0.7,6.2-1.1,12.5-1.1,18.7c0,2.7,0.1,5.5,0.2,8.3c0.3,6.2,1,12.4,2.1,18.5c1.5,8.9,3.9,17.7,6.9,26.1c1,2.6,2,5.3,3.1,7.8
				c2.4,5.7,5.2,11.3,8.3,16.7c1.4,2.3,2.8,4.7,4.4,7.1c4.9,7.5,10.5,14.7,16.6,21.2c4.2,4.5,8.8,8.9,13.5,12.9
				c6.9,5.8,14.3,11,22.1,15.5c2.4,1.4,4.9,2.7,7.3,4c5.6,2.8,11.3,5.4,17.2,7.5c2.5,0.9,5.2,1.8,7.9,2.6c8.6,2.6,17.5,4.5,26.4,5.6
				C612.9,679.6,619.1,679.9,625.3,679.9L625.3,679.9L625.3,679.9z"/>
		</g>
	</g>
</g>
</svg>
