<?xml version="1.0" encoding="UTF-8"?>
<svg id="_圖層_2" data-name="圖層 2" xmlns="http://www.w3.org/2000/svg" viewBox="0 0 1252.24 1245.9">
  <defs>
    <style>
      .cls-1 {
        fill: #050505;
      }

      .cls-2 {
        fill: none;
        stroke: #000;
        stroke-linecap: round;
        stroke-linejoin: round;
        stroke-width: 2px;
      }
    </style>
  </defs>
  <g id="_圖層_1-2" data-name="圖層 1">
    <g>
      <line class="cls-2" x1="561.7" y1="445.79" x2="451.28" y2="142.05"/>
      <line class="cls-2" x1="690.4" y1="799.79" x2="800.94" y2="1103.86"/>
      <line class="cls-2" x1="323.43" y1="261.81" x2="505.12" y2="478.58"/>
      <line class="cls-2" x1="928.79" y1="984.09" x2="746.91" y2="767.09"/>
      <line class="cls-2" x1="183.43" y1="367.07" x2="463.1" y2="528.72"/>
      <line class="cls-2" x1="788.93" y1="717.06" x2="1068.79" y2="878.84"/>
      <line class="cls-2" x1="1129.51" y1="711.82" x2="811.31" y2="655.65"/>
      <line class="cls-2" x1="122.71" y1="534.08" x2="440.79" y2="590.24"/>
      <line class="cls-2" x1="205.84" y1="697.14" x2="440.85" y2="655.66"/>
      <line class="cls-2" x1="1046.39" y1="548.76" x2="811.37" y2="590.25"/>
      <line class="cls-2" x1="183.43" y1="878.84" x2="463.25" y2="717.09"/>
      <line class="cls-2" x1="1068.79" y1="367.07" x2="789.08" y2="528.75"/>
      <line class="cls-2" x1="505.28" y1="767.12" x2="351.8" y2="950.25"/>
      <line class="cls-2" x1="900.43" y1="295.65" x2="747.08" y2="478.61"/>
      <line class="cls-2" x1="800.94" y1="142.05" x2="690.51" y2="445.8"/>
      <line class="cls-2" x1="561.82" y1="799.81" x2="451.28" y2="1103.86"/>
      <line class="cls-2" x1="626.11" y1="811.09" x2="626.11" y2="1050.21"/>
      <line class="cls-2" x1="626.11" y1="195.69" x2="626.11" y2="434.46"/>
      <line class="cls-2" x1="658.75" y1="808.26" x2="684.72" y2="955.74"/>
      <line class="cls-2" x1="593.41" y1="437.3" x2="567.5" y2="290.16"/>
      <line class="cls-2" x1="308.94" y1="507.38" x2="449.24" y2="558.5"/>
      <line class="cls-2" x1="802.82" y1="687.35" x2="943.28" y2="738.53"/>
      <line class="cls-2" x1="943.28" y1="507.38" x2="802.93" y2="558.52"/>
      <line class="cls-2" x1="308.94" y1="738.53" x2="449.34" y2="687.37"/>
      <line class="cls-2" x1="457.35" y1="915.6" x2="532.12" y2="785.94"/>
      <line class="cls-2" x1="794.87" y1="330.3" x2="720.24" y2="459.73"/>
      <line class="cls-2" x1="701.65" y1="1" x2="648.84" y2="435.84"/>
      <line class="cls-2" x1="603.44" y1="809.73" x2="550.59" y2="1244.9"/>
      <line class="cls-2" x1="756.54" y1="1184.96" x2="668.66" y2="806.25"/>
      <line class="cls-2" x1="495.7" y1="60.94" x2="583.51" y2="439.31"/>
      <line class="cls-2" x1="284.52" y1="98.31" x2="523.31" y2="465.05"/>
      <line class="cls-2" x1="967.72" y1="1147.6" x2="728.75" y2="780.58"/>
      <line class="cls-2" x1="1126.55" y1="998.87" x2="776.47" y2="735.89"/>
      <line class="cls-2" x1="125.7" y1="247.03" x2="475.55" y2="509.85"/>
      <line class="cls-2" x1="126.12" y1="471.13" x2="446" y2="568.26"/>
      <line class="cls-2" x1="1126.12" y1="774.77" x2="806.07" y2="677.59"/>
      <line class="cls-2" x1="438.28" y1="633.21" x2="1" y2="657.1"/>
      <line class="cls-2" x1="1251.24" y1="588.8" x2="813.9" y2="612.69"/>
      <line class="cls-2" x1="453.11" y1="696.86" x2="145.27" y2="828.36"/>
      <line class="cls-2" x1="1106.97" y1="417.54" x2="799.19" y2="549.02"/>
      <line class="cls-2" x1="1083.44" y1="194.71" x2="763.55" y2="494.26"/>
      <line class="cls-2" x1="488.82" y1="751.52" x2="168.81" y2="1051.19"/>
      <line class="cls-2" x1="862.82" y1="156.43" x2="711.38" y2="454.9"/>
      <line class="cls-2" x1="540.98" y1="790.76" x2="389.42" y2="1089.47"/>
      <line class="cls-2" x1="571.37" y1="802.99" x2="505.75" y2="1018.79"/>
      <line class="cls-2" x1="746.49" y1="227.11" x2="680.96" y2="442.62"/>
      <line class="cls-2" x1="908.4" y1="924.86" x2="754.55" y2="760.31"/>
      <line class="cls-2" x1="343.84" y1="321.04" x2="497.48" y2="485.37"/>
      <line class="cls-2" x1="1036.46" y1="672.47" x2="812.81" y2="645.48"/>
      <line class="cls-2" x1="215.78" y1="573.44" x2="439.31" y2="600.41"/>
      <line class="cls-2" x1="279.72" y1="849" x2="468.59" y2="725.75"/>
      <line class="cls-2" x1="972.52" y1="396.9" x2="783.76" y2="520.08"/>
      <path class="cls-1" d="m626.08,434.46s.02,0,.03,0c7.7,0,15.28.48,22.73,1.38,11.03,1.33,21.76,3.62,32.12,6.78,3.22.98,6.41,2.04,9.55,3.19,7.17,2.62,14.14,5.66,20.87,9.1,3,1.53,5.95,3.14,8.85,4.82,9.51,5.52,18.48,11.85,26.84,18.89,5.8,4.88,11.3,10.11,16.46,15.65,7.45,7.99,14.22,16.63,20.21,25.82,1.85,2.84,3.63,5.72,5.32,8.67,3.76,6.52,7.14,13.29,10.11,20.27,1.33,3.12,2.58,6.29,3.74,9.5,3.7,10.19,6.54,20.8,8.44,31.73,1.28,7.34,2.13,14.83,2.54,22.45.18,3.34.27,6.7.27,10.09,0,7.68-.47,15.26-1.36,22.7-.41,3.42-.91,6.81-1.5,10.17-1.31,7.48-3.08,14.8-5.24,21.95-1,3.29-2.08,6.54-3.25,9.75-3.78,10.36-8.44,20.3-13.9,29.72-3.78,6.53-7.95,12.82-12.46,18.83-6.59,8.77-13.93,16.93-21.92,24.42-2.48,2.33-5.03,4.59-7.64,6.78-5.77,4.85-11.83,9.35-18.16,13.49-11.92,7.79-24.77,14.27-38.35,19.22-7.06,2.57-14.32,4.74-21.74,6.46-3.27.76-6.58,1.42-9.91,2.01-10.6,1.86-21.5,2.83-32.64,2.84-.01,0-.02,0-.03,0-7.66,0-15.22-.47-22.64-1.36-11.01-1.32-21.73-3.6-32.07-6.74-3.22-.98-6.41-2.04-9.56-3.18-7.16-2.6-14.11-5.63-20.83-9.05-3-1.53-5.96-3.13-8.86-4.81-9.5-5.5-18.47-11.81-26.83-18.83-5.79-4.87-11.29-10.08-16.46-15.6-7.46-7.97-14.24-16.59-20.24-25.77-1.85-2.84-3.64-5.72-5.34-8.66-3.77-6.51-7.16-13.26-10.14-20.23-1.34-3.12-2.6-6.29-3.77-9.49-3.71-10.19-6.57-20.79-8.49-31.71-1.29-7.34-2.16-14.83-2.57-22.44-.19-3.46-.29-6.93-.29-10.44,0-7.57.46-15.03,1.33-22.37.4-3.42.9-6.81,1.48-10.17,1.3-7.49,3.05-14.82,5.21-21.98.99-3.29,2.07-6.55,3.23-9.76,3.77-10.38,8.41-20.34,13.86-29.77,3.78-6.55,7.94-12.85,12.46-18.88,6.59-8.79,13.93-16.98,21.93-24.48,2.48-2.33,5.03-4.59,7.63-6.79,5.78-4.86,11.85-9.39,18.19-13.54,11.93-7.81,24.79-14.3,38.4-19.26,7.08-2.58,14.35-4.75,21.8-6.48,3.27-.76,6.58-1.42,9.91-2.01,10.61-1.86,21.52-2.84,32.67-2.84m0-2c-11.05,0-22.16.96-33.01,2.87-3.41.6-6.78,1.28-10.01,2.03-7.43,1.72-14.85,3.92-22.04,6.55-13.58,4.95-26.63,11.5-38.81,19.47-6.37,4.17-12.55,8.77-18.39,13.68-2.62,2.21-5.22,4.52-7.71,6.86-8.09,7.59-15.55,15.92-22.16,24.74-4.56,6.08-8.79,12.5-12.59,19.08-5.53,9.58-10.24,19.7-14.01,30.09-1.15,3.16-2.24,6.48-3.27,9.87-2.2,7.28-3.97,14.75-5.27,22.21-.58,3.33-1.08,6.79-1.5,10.28-.89,7.52-1.34,15.13-1.34,22.6,0,3.41.1,6.96.29,10.54.42,7.61,1.29,15.24,2.6,22.68,1.92,10.9,4.81,21.69,8.59,32.05,1.15,3.14,2.43,6.37,3.81,9.59,2.99,6.99,6.44,13.87,10.25,20.45,1.67,2.89,3.49,5.83,5.4,8.75,6.03,9.23,12.91,17.99,20.45,26.04,5.21,5.56,10.8,10.87,16.63,15.76,8.48,7.12,17.6,13.52,27.12,19.03,2.91,1.68,5.92,3.32,8.96,4.86,6.82,3.47,13.9,6.55,21.06,9.15,3.1,1.13,6.35,2.21,9.66,3.22,10.54,3.2,21.44,5.49,32.41,6.81,7.6.91,15.3,1.38,22.88,1.38h.06c11.01,0,22.11-.97,32.95-2.87,3.41-.6,6.78-1.28,10.01-2.03,7.41-1.72,14.8-3.91,21.98-6.53,13.56-4.94,26.6-11.47,38.76-19.42,6.36-4.15,12.53-8.74,18.35-13.63,2.62-2.2,5.21-4.5,7.72-6.85,8.08-7.57,15.53-15.87,22.15-24.68,4.56-6.06,8.79-12.46,12.59-19.03,5.55-9.58,10.27-19.69,14.04-30.04,1.14-3.14,2.25-6.45,3.28-9.86,2.21-7.28,3.99-14.74,5.3-22.18.58-3.31,1.09-6.77,1.51-10.28.91-7.62,1.38-15.34,1.38-22.94,0-3.33-.09-6.76-.27-10.19-.4-7.57-1.26-15.21-2.56-22.68-1.9-10.91-4.77-21.7-8.53-32.07-1.17-3.22-2.44-6.45-3.78-9.6-2.98-7.01-6.42-13.9-10.22-20.49-1.66-2.87-3.47-5.82-5.38-8.76-6.01-9.24-12.89-18.02-20.42-26.09-5.21-5.58-10.81-10.9-16.64-15.81-8.48-7.14-17.61-13.56-27.13-19.09-2.95-1.71-5.96-3.35-8.95-4.88-6.82-3.48-13.92-6.58-21.1-9.2-3.09-1.13-6.34-2.21-9.66-3.22-10.55-3.22-21.47-5.52-32.46-6.85-7.63-.92-15.36-1.39-22.97-1.39h-.03Z"/>
    </g>
  </g>
</svg>