<?xml version="1.0" encoding="UTF-8"?>
<svg id="_圖層_2" data-name="圖層 2" xmlns="http://www.w3.org/2000/svg" xmlns:xlink="http://www.w3.org/1999/xlink" viewBox="0 0 275.99 131.54">
  <defs>
    <style>
      .cls-1 {
        opacity: .41;
      }

      .cls-1, .cls-2, .cls-3, .cls-4, .cls-5 {
        fill: #f5e7d3;
      }

      .cls-1, .cls-6, .cls-7, .cls-8, .cls-9, .cls-10, .cls-11, .cls-12, .cls-13, .cls-14, .cls-15, .cls-3, .cls-16, .cls-17, .cls-4, .cls-5 {
        stroke-miterlimit: 10;
      }

      .cls-1, .cls-6, .cls-7, .cls-8, .cls-9, .cls-10, .cls-11, .cls-12, .cls-13, .cls-14, .cls-15, .cls-3, .cls-17, .cls-4, .cls-5 {
        stroke: #2b2a2a;
      }

      .cls-18, .cls-16, .cls-17 {
        fill: none;
      }

      .cls-19 {
        clip-path: url(#clippath);
      }

      .cls-20 {
        fill: #f3e4cf;
      }

      .cls-21 {
        fill: #54adaf;
      }

      .cls-6, .cls-7, .cls-8 {
        opacity: .5;
      }

      .cls-6, .cls-9 {
        fill: #ef602c;
      }

      .cls-7, .cls-12 {
        fill: #e6bf58;
      }

      .cls-8, .cls-10, .cls-14 {
        fill: #95544a;
      }

      .cls-9 {
        opacity: .77;
      }

      .cls-22 {
        clip-path: url(#clippath-1);
      }

      .cls-10 {
        opacity: .75;
      }

      .cls-11 {
        fill: #ff6044;
      }

      .cls-13 {
        fill: #fdbf58;
      }

      .cls-15 {
        fill: #70544a;
      }

      .cls-3 {
        opacity: .49;
      }

      .cls-16 {
        stroke: #000;
      }

      .cls-16, .cls-17 {
        stroke-width: 2px;
      }

      .cls-4 {
        opacity: .45;
      }

      .cls-23 {
        opacity: .6;
      }

      .cls-24 {
        opacity: .79;
      }

      .cls-5 {
        opacity: .25;
      }
    </style>
    <clipPath id="clippath">
      <rect class="cls-18" x="2" y="2" width="271.99" height="127.54"/>
    </clipPath>
    <clipPath id="clippath-1">
      <rect class="cls-18" x="30.87" y="15.32" width="243.11" height="114"/>
    </clipPath>
  </defs>
  <g id="_圖層_1-2" data-name="圖層 1">
    <g>
      <g>
        <g>
          <rect class="cls-20" x="1" y="1" width="273.99" height="129.54"/>
          <path d="M273.99,2v127.54H2V2H273.99m2-2H0V131.54H275.99V0h0Z"/>
        </g>
        <g class="cls-19">
          <g>
            <line class="cls-17" x1="-14.51" y1="66.71" x2="56.81" y2="228.74"/>
            <line class="cls-17" x1="-2.26" y1="61.32" x2="69.02" y2="223.24"/>
            <line class="cls-17" x1="9.99" y1="55.93" x2="81.22" y2="217.75"/>
            <line class="cls-17" x1="22.24" y1="50.53" x2="93.43" y2="212.25"/>
            <line class="cls-17" x1="34.5" y1="45.14" x2="105.63" y2="206.76"/>
            <line class="cls-17" x1="46.75" y1="39.75" x2="117.84" y2="201.26"/>
            <line class="cls-17" x1="59" y1="34.36" x2="130.04" y2="195.77"/>
            <line class="cls-17" x1="71.25" y1="28.97" x2="142.25" y2="190.27"/>
            <line class="cls-17" x1="83.5" y1="23.57" x2="154.45" y2="184.78"/>
            <line class="cls-17" x1="95.75" y1="18.18" x2="166.66" y2="179.28"/>
            <line class="cls-17" x1="108" y1="12.79" x2="178.86" y2="173.79"/>
            <line class="cls-17" x1="120.25" y1="7.4" x2="191.07" y2="168.29"/>
            <line class="cls-17" x1="132.5" y1="2" x2="203.27" y2="162.8"/>
            <line class="cls-17" x1="144.75" y1="-3.39" x2="215.48" y2="157.3"/>
            <line class="cls-17" x1="157" y1="-8.78" x2="227.68" y2="151.81"/>
            <line class="cls-17" x1="169.25" y1="-14.17" x2="239.89" y2="146.31"/>
            <line class="cls-17" x1="181.5" y1="-19.56" x2="252.09" y2="140.82"/>
            <line class="cls-17" x1="193.75" y1="-24.96" x2="264.3" y2="135.32"/>
            <line class="cls-17" x1="206" y1="-30.35" x2="276.5" y2="129.83"/>
            <line class="cls-17" x1="218.25" y1="-35.74" x2="288.71" y2="124.33"/>
            <line class="cls-17" x1="230.5" y1="-41.13" x2="300.91" y2="118.84"/>
            <line class="cls-17" x1="242.75" y1="-46.53" x2="313.12" y2="113.34"/>
          </g>
        </g>
      </g>
      <g>
        <rect class="cls-2" x="236.5" y="1.78" width="37.48" height="84.47"/>
        <rect class="cls-2" x="2" y="1.78" width="117.25" height="84.47"/>
        <rect class="cls-21" x="119.25" y="1.78" width="117.25" height="84.47"/>
      </g>
      <line class="cls-16" x1="2" y1="86.25" x2="273.99" y2="86.25"/>
      <g class="cls-22">
        <g>
          <g>
            <ellipse class="cls-13" cx="213.71" cy="97.12" rx="8.62" ry="12.91" transform="translate(89.82 296.51) rotate(-82.58)"/>
            <ellipse class="cls-7" cx="214.39" cy="96.43" rx="6.92" ry="10.37" transform="translate(91.1 296.58) rotate(-82.58)"/>
            <path class="cls-3" d="M219.48,102.85c-.45,.08-.9-.03-1.01-.24s.41-.14,.86-.22,.65-.28,.76-.06-.16,.45-.61,.53Z"/>
            <polygon class="cls-3" points="222.19 92.7 222.09 94.31 220.55 93.77 221.41 92.43 222.19 92.7"/>
            <path class="cls-1" d="M209.72,90.45c.21,.78-.32,1.44-1.19,1.49-.08,0-.15,0-.23,0l.19,.71s3.21-.76,5.34-.59,5.72,1.25,5.72,1.25l.77-1.4s-3.28-1.59-6.53-1.77c-1.61-.09-3.07,0-4.13,.13,.03,.06,.05,.13,.07,.19Z"/>
          </g>
          <g>
            <path class="cls-11" d="M232.94,121.49c.71-4.1,6.94-8.18,14.96-7.43s14.72,5.28,14.97,10.12-6.04,8.14-14.06,7.39c-8.02-.75-16.68-5.41-15.87-10.07Z"/>
            <path class="cls-6" d="M235.2,122.1c.69,3.46,6.92,6.31,13.92,6.37,7,.06,11.91-1.29,12.07-4.68,.2-4.16-6.78-9.28-13.78-9.34s-12.89,4.2-12.21,7.65Z"/>
            <path class="cls-9" d="M246.89,121.1c9.78,7.94,5.15-2.35,13.77,2.61,2.94,1.69-5.3,7.33-12.33,6.67-7.04-.66-13.31-4.77-13.15-9.06,.05-1.31,2.7,.86,4.88,.61s5.5-1.9,6.83-.82Z"/>
            <path class="cls-4" d="M249.02,129.35c4.36,.21,8.12-1.3,7.61-.59-.63,.88-3.1,1.91-7.46,1.7s-7.31-1.55-8.32-2.46c-.8-.72,3.81,1.13,8.17,1.34Z"/>
          </g>
          <g>
            <path class="cls-11" d="M189.91,93.28c2.52-3.31,9.93-4.07,16.7,.3s10.63,11.47,8.63,15.88-9.12,4.44-15.88,.08-12.31-12.49-9.44-16.25Z"/>
            <path class="cls-6" d="M191.64,94.87c-.98,3.38,3.23,8.79,9.42,12.07,6.19,3.28,11.16,4.34,12.87,1.4,2.1-3.6-1.74-11.36-7.93-14.64-6.19-3.28-13.38-2.21-14.36,1.17Z"/>
            <path class="cls-9" d="M202.48,99.36c5.02,11.55,5.65,.29,11.02,8.66,1.83,2.85-8.08,4.06-14.02,.24s-9.62-10.36-7.49-14.1c.65-1.14,2,2,4.05,2.78s5.76,.85,6.44,2.42Z"/>
            <path class="cls-4" d="M200.57,107.67c3.77,2.19,7.81,2.59,7.03,2.99-.96,.5-3.63,.27-7.41-1.93s-5.78-4.74-6.25-6.01c-.38-1.01,2.86,2.76,6.63,4.95Z"/>
          </g>
          <g>
            <ellipse class="cls-15" cx="136.92" cy="125.97" rx="9" ry="13.97" transform="translate(-22.38 222.08) rotate(-73.72)"/>
            <ellipse class="cls-8" cx="138.2" cy="125.86" rx="7.23" ry="11.22" transform="translate(-21.35 223.24) rotate(-73.72)"/>
            <polygon class="cls-3" points="148.89 127.46 147.24 128.51 146.36 127.32 148.45 126.86 148.89 127.46"/>
            <path class="cls-1" d="M139.77,119.32c-.56,.64-1.69,.81-2.53,.38-.07-.04-.14-.08-.21-.13l-.52,.59s3.65,1.19,5.41,2.43,3.98,3.88,3.98,3.88l2.06-.55s-1.43-2.83-4.2-4.67c-1.38-.92-2.8-1.63-3.88-2.11-.04,.06-.08,.11-.12,.17Z"/>
          </g>
          <g>
            <path class="cls-13" d="M174.84,89.74c6.13,2.91,9.16,8.25,7.69,11.3s-7.64,3.15-13.77,.24c-6.13-2.91-9.91-7.74-8.44-10.79s8.39-3.66,14.52-.75Z"/>
            <g class="cls-24">
              <path class="cls-12" d="M160.01,91.6c-.27,3.01,3.32,7.09,8.75,9.67,5.05,2.4,10.13,2.75,12.58,1.1-12.53-2.05-19.23-8.42-21.33-10.77Z"/>
              <path class="cls-12" d="M160.31,90.49s-.02,.04-.03,.06c6.8-.61,19.28,8.41,21.78,11.18,.18-.21,.34-.44,.46-.7,1.47-3.05-1.56-8.39-7.69-11.3-6.13-2.91-13.05-2.29-14.52,.75Z"/>
            </g>
            <path class="cls-5" d="M166.92,91.8c1.75,.83,2.5,2.58,1.98,3.66s-2.36,1.29-4.11,.46-2.74-2.38-2.22-3.46,2.6-1.48,4.35-.65Z"/>
          </g>
          <g>
            <path class="cls-15" d="M201.13,97.96c-4.22,6.6-10.81,9.3-14.11,7.19-3.3-2.11-2.56-9.18,1.66-15.77s10.32-10.23,13.63-8.12,3.05,10.11-1.18,16.7Z"/>
            <g class="cls-23">
              <path class="cls-14" d="M201.07,80.75c-3.44-.73-8.65,2.78-12.38,8.62-3.48,5.43-4.59,11.18-3.03,14.22,4.12-14.03,12.41-20.79,15.42-22.85Z"/>
              <path class="cls-10" d="M202.32,81.25s-.05-.03-.07-.04c-.26,7.86-12.41,20.84-15.95,23.31,.22,.24,.46,.45,.74,.63,3.3,2.11,9.89-.59,14.11-7.19,4.22-6.6,4.48-14.59,1.18-16.7Z"/>
            </g>
            <path class="cls-5" d="M199.87,88.61c-1.2,1.88-3.32,2.5-4.5,1.74s-1.15-2.89,.05-4.77c1.2-1.88,3.13-2.8,4.31-2.04s1.34,3.18,.14,5.07Z"/>
          </g>
          <g>
            <ellipse class="cls-15" cx="140.91" cy="98.96" rx="6.38" ry="14.22" transform="translate(39.43 238.07) rotate(-88.97)"/>
            <ellipse class="cls-8" cx="142.08" cy="98.62" rx="5.12" ry="11.42" transform="translate(40.92 238.9) rotate(-88.97)"/>
            <path class="cls-3" d="M143.24,103.73c-.53-.02-.94-.17-.91-.33s.53-.03,1.06,0,.87-.08,.85,.08-.47,.27-.99,.25Z"/>
            <polygon class="cls-3" points="152.81 97.43 151.65 98.49 150.37 97.87 152.17 97.12 152.81 97.43"/>
            <path class="cls-1" d="M141.08,93.86c-.29,.55-1.3,.91-2.25,.79-.08-.01-.16-.02-.24-.04l-.27,.51s3.91,.03,6.05,.5,5.24,1.78,5.24,1.78l1.74-.81s-2.43-1.61-5.75-2.27c-1.65-.33-3.26-.51-4.47-.6-.01,.05-.03,.09-.05,.14Z"/>
          </g>
          <g>
            <path class="cls-13" d="M186.96,91.85c3.16,6.44,1.74,12.98-1.87,14.66s-9.1-2.18-12.25-8.62-2.79-13.02,.82-14.7c3.61-1.68,10.14,2.22,13.3,8.66Z"/>
            <g class="cls-24">
              <path class="cls-12" d="M172.54,83.95c-2.53,2.42-2.5,8.23,.3,13.93,2.6,5.3,6.78,8.85,10.19,9-9.42-9.79-10.44-19.57-10.49-22.93Z"/>
              <path class="cls-12" d="M173.65,83.19s-.05,.02-.07,.04c6.42,3.84,10.49,19.59,10.57,23.58,.32-.06,.64-.17,.93-.3,3.61-1.68,5.02-8.22,1.87-14.66-3.16-6.44-9.69-10.34-13.3-8.66Z"/>
            </g>
            <path class="cls-5" d="M178.44,88.55c.9,1.83,.23,3.82-1.05,4.42s-3.05-.41-3.95-2.24-.59-3.81,.69-4.4,3.41,.39,4.31,2.23Z"/>
          </g>
          <g>
            <ellipse class="cls-11" cx="156.37" cy="93.71" rx="8.27" ry="13.47" transform="translate(54.77 245.07) rotate(-87.06)"/>
            <ellipse class="cls-6" cx="157.12" cy="93.05" rx="6.65" ry="10.81" transform="translate(56.15 245.2) rotate(-87.06)"/>
            <path class="cls-3" d="M162.04,99.13c-.48,.08-.95-.02-1.05-.22s.45-.14,.92-.22,.7-.27,.8-.07-.2,.43-.68,.51Z"/>
            <polygon class="cls-3" points="165.57 89.43 165.36 90.97 163.78 90.47 164.77 89.18 165.57 89.43"/>
            <path class="cls-1" d="M152.62,87.38c.17,.74-.44,1.38-1.35,1.43-.08,0-.16,0-.24,0l.15,.68s3.43-.75,5.65-.6c2.22,.15,5.93,1.15,5.93,1.15l.9-1.34s-3.34-1.5-6.74-1.64c-1.69-.07-3.23,.03-4.35,.15,.02,.06,.04,.12,.06,.18Z"/>
          </g>
          <g>
            <ellipse class="cls-11" cx="164.67" cy="105.74" rx="7.12" ry="13.46" transform="translate(52.74 266.27) rotate(-87.82)"/>
            <ellipse class="cls-6" cx="165.43" cy="105.17" rx="5.72" ry="10.81" transform="translate(54.04 266.48) rotate(-87.82)"/>
            <path class="cls-3" d="M170.34,110.4c-.48,.07-.95-.02-1.05-.19s.45-.12,.92-.19,.7-.23,.8-.06-.2,.37-.68,.44Z"/>
            <polygon class="cls-3" points="173.87 102.06 173.67 103.38 172.08 102.95 173.08 101.84 173.87 102.06"/>
            <path class="cls-1" d="M160.93,100.3c.17,.64-.44,1.19-1.35,1.23-.08,0-.16,0-.24,0l.15,.58s3.43-.65,5.65-.52c2.22,.13,5.93,.99,5.93,.99l.9-1.16s-3.34-1.29-6.74-1.41c-1.69-.06-3.23,.03-4.35,.13,.02,.05,.04,.1,.06,.16Z"/>
          </g>
          <g>
            <ellipse class="cls-15" cx="208.07" cy="105.74" rx="6.94" ry="13.22" transform="translate(78.5 299.87) rotate(-83.22)"/>
            <ellipse class="cls-8" cx="209.34" cy="105.67" rx="5.57" ry="10.62" transform="translate(79.69 301.08) rotate(-83.22)"/>
            <path class="cls-3" d="M206.72,110.88c-.45-.14-.7-.38-.57-.53s.49,.1,.93,.24,.82,.13,.69,.28-.6,.15-1.05,.01Z"/>
            <polygon class="cls-3" points="219.61 107 217.84 107.75 217.15 106.86 219.27 106.55 219.61 107"/>
            <path class="cls-1" d="M211.85,100.86c-.65,.47-1.78,.58-2.54,.25-.07-.03-.13-.06-.18-.1l-.6,.43s3.42,.93,4.96,1.87,3.34,2.93,3.34,2.93l2.1-.38s-.99-2.11-3.44-3.51c-1.22-.7-2.51-1.24-3.5-1.61-.04,.04-.09,.08-.15,.12Z"/>
          </g>
          <g>
            <ellipse class="cls-11" cx="189.17" cy="102.47" rx="11.91" ry="13.19"/>
            <ellipse class="cls-6" cx="189.42" cy="101.17" rx="9.57" ry="10.59"/>
            <path class="cls-3" d="M196.68,108.08c-.34,.31-.77,.36-.96,.11s.28-.39,.62-.71,.41-.69,.61-.43,.07,.72-.26,1.03Z"/>
            <polygon class="cls-3" points="194.22 92.31 194.89 94.66 193.35 94.59 193.44 92.27 194.22 92.31"/>
            <path class="cls-1" d="M182.72,94.71c.54,1.02,.4,2.22-.31,2.67-.06,.04-.13,.07-.2,.1l.49,.94s2.34-2.54,4.2-3.25,5.38-.79,5.38-.79v-2.36s-3.51-.81-6.31,.4c-1.4,.6-2.57,1.4-3.41,2.05,.05,.08,.1,.16,.15,.24Z"/>
          </g>
          <g>
            <ellipse class="cls-13" cx="241.04" cy="100.29" rx="8.62" ry="12.91" transform="translate(110.48 326.37) rotate(-82.58)"/>
            <ellipse class="cls-7" cx="241.72" cy="99.6" rx="6.92" ry="10.37" transform="translate(111.75 326.44) rotate(-82.58)"/>
            <path class="cls-3" d="M246.8,106.02c-.45,.08-.9-.03-1.01-.24s.41-.14,.86-.22,.65-.28,.76-.06-.16,.45-.61,.53Z"/>
            <polygon class="cls-3" points="249.51 95.87 249.42 97.48 247.88 96.94 248.74 95.6 249.51 95.87"/>
            <path class="cls-1" d="M237.05,93.63c.21,.78-.32,1.44-1.19,1.49-.08,0-.15,0-.23,0l.19,.71s3.21-.76,5.34-.59,5.72,1.25,5.72,1.25l.77-1.4s-3.28-1.59-6.53-1.77c-1.61-.09-3.07,0-4.13,.13,.03,.06,.05,.13,.07,.19Z"/>
          </g>
        </g>
      </g>
    </g>
  </g>
</svg>