<?xml version="1.0" encoding="UTF-8"?>
<svg id="_圖層_2" data-name="圖層 2" xmlns="http://www.w3.org/2000/svg" xmlns:xlink="http://www.w3.org/1999/xlink" viewBox="0 0 882.07 658.22">
  <defs>
    <style>
      .cls-1 {
        fill: #70544a;
        opacity: .29;
        stroke: #070707;
        stroke-miterlimit: 10;
        stroke-width: 2px;
      }
    </style>
  </defs>
  <g id="_圖層_1-2" data-name="圖層 1">
    <g>
      <path class="cls-1" d="M495.16,14.89c-1.78,3.2-2.85,5.61-4.34,7.72-3.61,5.13-2.42,9.4,2.06,13.14,1.42,1.19,3.07,2.1,4.62,3.12,6.38,4.2,10.84,9.57,8.97,17.73-2.49,10.87,3.82,19.45,8.08,28.02,1.75,3.54,9.46,5.39,14.61,5.72,12.48,.81,25.1-.45,37.57,.42,25.28,1.77,49.32,8.68,69.7,23.99,6.04,4.53,8.62,13.81,12.38,21.12,1.34,2.62,1.48,5.85,2.23,9.09-14.7,0-29.53-.07-44.36,.05-3.7,.03-7.57,.16-11.03,1.25-2.67,.85-4.84,3.28-7.24,5.01,1.85,2.03,3.32,5.02,5.62,5.93,12.56,4.98,25,11,38.09,13.81,36.54,7.82,68.7,23.53,96.73,48.16,4.21,3.7,10.3,5.17,15.09,8.32,5.76,3.78,11.24,8.04,16.53,12.46,4.59,3.84,8.83,8.11,13.08,12.33,2.57,2.56,4.97,5.31,7.27,8.11,5.58,6.81,10.17,14.75,16.77,20.34,12.82,10.87,20.77,24.87,27.27,39.61,3.37,7.63,3.03,16.82,5.1,25.12,.89,3.57,3.72,6.64,5.52,10.01,2.47,4.64,4.85,9.33,7.16,14.05,1.83,3.75,3.52,7.58,5.2,11.4,2.05,4.67,3.7,9.55,6.13,14.01,1.66,3.05,3.94,6.13,6.71,8.14,3.59,2.62,7.87,4.34,11.96,6.19,8.9,4.02,8.62,11.73,8.35,19.65-.24,7.17-5.56,9.31-10.88,11.02-4.23,1.36-8.8,2.22-13.24,2.31-14.66,.29-29.33-.04-43.99,.18-10.77,.16-14.15,3.25-16.94,13.47-.74,2.71-1.93,5.82-3.94,7.56-7.86,6.83-7.98,15.51-6.95,21.67-11.42,9.47-21.01,18.3-31.53,25.84-7.23,5.18-15.67,8.7-23.71,12.67-5.85,2.89-12.29,4.7-17.83,8.04-10.1,6.11-19.73,13-30.27,20.04,10.82,14.17,24.58,19.56,40.05,23.7,14.37,3.85,28.04,10.56,41.65,16.82,5.18,2.38,5.01,9.07,0,12.46-4.31,2.92-9.22,6.09-14.17,6.72-21.86,2.75-43.79,5.61-65.78,6.61-40.39,1.83-80.84,2.28-121.26,3.52-11.81,.36-15.35,4.31-15.66,15.96-.19,7.03-5.19,11.93-14.74,13.94-32.91,6.95-66.06,7.43-99.21,2.35-14.92-2.29-29.56-6.33-44.46-8.83-8.79-1.47-16.59-1.71-23-10.63-5.64-7.85-16.55-9.54-26.85-9.84-16.72-.5-33.41-2.05-50.13-2.76-7.15-.3-14.35,.22-21.5,.69-8.21,.54-16.42,1.24-24.57,2.26-8.1,1.02-16.12,2.79-24.23,3.74-7.02,.83-14.19,1.8-21.18,1.27-16.41-1.24-32.74-3.49-49.13-5.04-13.42-1.26-18.29-5.55-16.7-17.36,.5-3.68,4.54-7.01,7.28-10.23,3.16-3.7,6.56-7.22,10.09-10.57,1.52-1.45,3.52-2.93,5.49-3.25,3.38-.54,6.91-.2,10.37-.19,8.44,.04,15.05-2.35,19.81-10.38,4.86-8.2,11.6-15.26,17.16-23.08,3.58-5.02,.87-8.51-3.97-10.61-11.69-5.09-23.41-10.13-35.2-14.98-9.87-4.06-18.89-8.79-26.01-17.42-9.4-11.39-21.6-19.5-35.88-23.95-5.27-1.64-7.28-4.63-8.17-10.22-1.15-7.26-3.85-14.37-6.79-21.16-.71-1.63-4.95-2.29-7.62-2.43-14.34-.74-28.75-.57-43.02-1.9-10.8-1.01-21.57-3.42-29.93-11.48-3.82-3.68-5.15-7.26-.39-11.23,10.17-8.5,17.79-20.26,31.18-24.62,4.59-1.5,6.1-4.39,5.68-9.01-.73-7.98,1.12-13.98,9.67-17.8,8.66-3.87,10.19-14.13,7.45-23.56-1.86-6.42-.38-13.73-1.29-20.53-1.06-7.91,2.41-12.83,8.26-17.46,5.68-4.49,11.13-9.5,15.73-15.06,3.74-4.52,5.48-10.69,9.19-15.23,5.23-6.4,12.15-11.45,17.15-17.99,21.99-28.75,52.54-46.02,83.28-63.13,6.72-3.74,13.22-7.91,19.98-11.57,16.04-8.7,32.92-15.01,51.33-16.05,17.4-.98,29.55-13.39,44.37-19.96,1.26-.56,2.63-3.95,2.06-4.9-1.19-1.97-3.46-4.18-5.6-4.55-9.93-1.75-20.03-2.58-29.95-4.4-6.38-1.17-12.81-2.9-18.75-5.45-5.05-2.16-4.64-7.26-1.61-10.64,11.94-13.34,26.76-22.27,44.11-26.94,22.46-6.04,45.46-5.39,68.3-4.5,10.7,.42,17.55-1.49,20.34-12.82,1.96-7.99,5.32-15.66,8.23-23.4,.51-1.35,1.92-2.35,2.86-3.54,3.63-4.6,7.58-8.99,10.78-13.87,3.89-5.92,5.72-11.95,1.3-19.03-2.99-4.79,.52-9.26,5.06-10.77,28.17-9.35,55.67-9.87,81.97,7.44Z"/>
      <image width="860" height="1350" transform="translate(349.03 214.46) scale(.26)" xlink:href="../../../小專/素材/圖層 0.png"/>
    </g>
  </g>
</svg>