<?xml version="1.0" encoding="UTF-8"?>
<svg id="_圖層_2" data-name="圖層 2" xmlns="http://www.w3.org/2000/svg" viewBox="0 0 140.61 55.8">
  <defs>
    <style>
      .cls-1 {
        opacity: .41;
      }

      .cls-1, .cls-2, .cls-3, .cls-4, .cls-5, .cls-6, .cls-7, .cls-8, .cls-9, .cls-10, .cls-11, .cls-12, .cls-13, .cls-14 {
        stroke: #2b2a2a;
        stroke-miterlimit: 10;
      }

      .cls-1, .cls-12, .cls-13, .cls-14 {
        fill: #f5e7d3;
      }

      .cls-2, .cls-3, .cls-4 {
        opacity: .5;
      }

      .cls-2, .cls-5 {
        fill: #ef602c;
      }

      .cls-3, .cls-8 {
        fill: #e6bf58;
      }

      .cls-4, .cls-6, .cls-10 {
        fill: #95544a;
      }

      .cls-5 {
        opacity: .77;
      }

      .cls-6 {
        opacity: .75;
      }

      .cls-7 {
        fill: #ff6044;
      }

      .cls-9 {
        fill: #fdbf58;
      }

      .cls-11 {
        fill: #70544a;
      }

      .cls-12 {
        opacity: .49;
      }

      .cls-13 {
        opacity: .45;
      }

      .cls-15 {
        opacity: .6;
      }

      .cls-16 {
        opacity: .79;
      }

      .cls-14 {
        opacity: .25;
      }
    </style>
  </defs>
  <g id="_圖層_1-2" data-name="圖層 1">
    <g>
      <g>
        <ellipse class="cls-9" cx="90.95" cy="16.97" rx="8.62" ry="12.91" transform="translate(62.38 104.97) rotate(-82.58)"/>
        <ellipse class="cls-3" cx="91.63" cy="16.28" rx="6.92" ry="10.37" transform="translate(63.66 105.04) rotate(-82.58)"/>
        <path class="cls-12" d="M96.71,22.7c-.45,.08-.9-.03-1.01-.24s.41-.14,.86-.22,.65-.28,.76-.06-.16,.45-.61,.53Z"/>
        <polygon class="cls-12" points="99.42 12.55 99.33 14.16 97.79 13.62 98.65 12.27 99.42 12.55"/>
        <path class="cls-1" d="M86.96,10.3c.21,.78-.32,1.44-1.19,1.49-.08,0-.15,0-.23,0l.19,.71s3.21-.76,5.34-.59,5.72,1.25,5.72,1.25l.77-1.4s-3.28-1.59-6.53-1.77c-1.61-.09-3.07,0-4.13,.13,.03,.06,.05,.13,.07,.19Z"/>
      </g>
      <g>
        <path class="cls-7" d="M110.17,41.34c.71-4.1,6.94-8.18,14.96-7.43s14.72,5.28,14.97,10.12-6.04,8.14-14.06,7.39c-8.02-.75-16.68-5.41-15.87-10.07Z"/>
        <path class="cls-2" d="M112.44,41.95c.69,3.46,6.92,6.31,13.92,6.37,7,.06,11.91-1.29,12.07-4.68,.2-4.16-6.78-9.28-13.78-9.34s-12.89,4.2-12.21,7.65Z"/>
        <path class="cls-5" d="M124.12,40.95c9.78,7.94,5.15-2.35,13.77,2.61,2.94,1.69-5.3,7.33-12.33,6.67-7.04-.66-13.31-4.77-13.15-9.06,.05-1.31,2.7,.86,4.88,.61s5.5-1.9,6.83-.82Z"/>
        <path class="cls-13" d="M126.26,49.2c4.36,.21,8.12-1.3,7.61-.59-.63,.88-3.1,1.91-7.46,1.7s-7.31-1.55-8.32-2.46c-.8-.72,3.81,1.13,8.17,1.34Z"/>
      </g>
      <g>
        <path class="cls-7" d="M67.15,13.13c2.52-3.31,9.93-4.07,16.7,.3s10.63,11.47,8.63,15.88-9.12,4.44-15.88,.08-12.31-12.49-9.44-16.25Z"/>
        <path class="cls-2" d="M68.88,14.72c-.98,3.38,3.23,8.79,9.42,12.07,6.19,3.28,11.16,4.34,12.87,1.4,2.1-3.6-1.74-11.36-7.93-14.64-6.19-3.28-13.38-2.21-14.36,1.17Z"/>
        <path class="cls-5" d="M79.71,19.21c5.02,11.55,5.65,.29,11.02,8.66,1.83,2.85-8.08,4.06-14.02,.24s-9.62-10.36-7.49-14.1c.65-1.14,2,2,4.05,2.78s5.76,.85,6.44,2.42Z"/>
        <path class="cls-13" d="M77.81,27.52c3.77,2.19,7.81,2.59,7.03,2.99-.96,.5-3.63,.27-7.41-1.93s-5.78-4.74-6.25-6.01c-.38-1.01,2.86,2.76,6.63,4.95Z"/>
      </g>
      <g>
        <ellipse class="cls-11" cx="14.15" cy="45.82" rx="9" ry="13.97" transform="translate(-33.79 46.56) rotate(-73.72)"/>
        <ellipse class="cls-4" cx="15.43" cy="45.71" rx="7.23" ry="11.22" transform="translate(-32.76 47.71) rotate(-73.72)"/>
        <path class="cls-12" d="M13.82,52.76c-.48-.18-.79-.5-.68-.7s.51,.12,1,.31,.86,.16,.75,.36-.58,.22-1.06,.03Z"/>
        <polygon class="cls-12" points="26.12 47.31 24.48 48.36 23.6 47.17 25.69 46.71 26.12 47.31"/>
        <path class="cls-1" d="M17,39.17c-.56,.64-1.69,.81-2.53,.38-.07-.04-.14-.08-.21-.13l-.52,.59s3.65,1.19,5.41,2.43,3.98,3.88,3.98,3.88l2.06-.55s-1.43-2.83-4.2-4.67c-1.38-.92-2.8-1.63-3.88-2.11-.04,.06-.08,.11-.12,.17Z"/>
      </g>
      <g>
        <path class="cls-9" d="M52.08,9.59c6.13,2.91,9.16,8.25,7.69,11.3s-7.64,3.15-13.77,.24c-6.13-2.91-9.91-7.74-8.44-10.79s8.39-3.66,14.52-.75Z"/>
        <g class="cls-16">
          <path class="cls-8" d="M37.25,11.45c-.27,3.01,3.32,7.09,8.75,9.67,5.05,2.4,10.13,2.75,12.58,1.1-12.53-2.05-19.23-8.42-21.33-10.77Z"/>
          <path class="cls-8" d="M37.55,10.34s-.02,.04-.03,.06c6.8-.61,19.28,8.41,21.78,11.18,.18-.21,.34-.44,.46-.7,1.47-3.05-1.56-8.39-7.69-11.3-6.13-2.91-13.05-2.29-14.52,.75Z"/>
        </g>
        <path class="cls-14" d="M44.15,11.65c1.75,.83,2.5,2.58,1.98,3.66s-2.36,1.29-4.11,.46-2.74-2.38-2.22-3.46,2.6-1.48,4.35-.65Z"/>
      </g>
      <g>
        <path class="cls-11" d="M78.37,17.81c-4.22,6.6-10.81,9.3-14.11,7.19-3.3-2.11-2.56-9.18,1.66-15.77S76.24-1.01,79.55,1.11s3.05,10.11-1.18,16.7Z"/>
        <g class="cls-15">
          <path class="cls-10" d="M78.31,.6c-3.44-.73-8.65,2.78-12.38,8.62-3.48,5.43-4.59,11.18-3.03,14.22,4.12-14.03,12.41-20.79,15.42-22.85Z"/>
          <path class="cls-6" d="M79.55,1.1s-.05-.03-.07-.04c-.26,7.86-12.41,20.84-15.95,23.31,.22,.24,.46,.45,.74,.63,3.3,2.11,9.89-.59,14.11-7.19,4.22-6.6,4.48-14.59,1.18-16.7Z"/>
        </g>
        <path class="cls-14" d="M77.11,8.46c-1.2,1.88-3.32,2.5-4.5,1.74s-1.15-2.89,.05-4.77c1.2-1.88,3.13-2.8,4.31-2.04s1.34,3.18,.14,5.07Z"/>
      </g>
      <g>
        <ellipse class="cls-11" cx="18.15" cy="18.81" rx="6.38" ry="14.22" transform="translate(-.99 36.62) rotate(-88.97)"/>
        <ellipse class="cls-4" cx="19.32" cy="18.46" rx="5.12" ry="11.42" transform="translate(.51 37.45) rotate(-88.97)"/>
        <path class="cls-12" d="M20.47,23.58c-.53-.02-.94-.17-.91-.33s.53-.03,1.06,0,.87-.08,.85,.08-.47,.27-.99,.25Z"/>
        <polygon class="cls-12" points="30.05 17.28 28.89 18.34 27.6 17.72 29.4 16.97 30.05 17.28"/>
        <path class="cls-1" d="M18.31,13.71c-.29,.55-1.3,.91-2.25,.79-.08-.01-.16-.02-.24-.04l-.27,.51s3.91,.03,6.05,.5,5.24,1.78,5.24,1.78l1.74-.81s-2.43-1.61-5.75-2.27c-1.65-.33-3.26-.51-4.47-.6-.01,.05-.03,.09-.05,.14Z"/>
      </g>
      <g>
        <path class="cls-9" d="M64.19,11.7c3.16,6.44,1.74,12.98-1.87,14.66s-9.1-2.18-12.25-8.62-2.79-13.02,.82-14.7c3.61-1.68,10.14,2.22,13.3,8.66Z"/>
        <g class="cls-16">
          <path class="cls-8" d="M49.77,3.8c-2.53,2.42-2.5,8.23,.3,13.93,2.6,5.3,6.78,8.85,10.19,9-9.42-9.79-10.44-19.57-10.49-22.93Z"/>
          <path class="cls-8" d="M50.89,3.04s-.05,.02-.07,.04c6.42,3.84,10.49,19.59,10.57,23.58,.32-.06,.64-.17,.93-.3,3.61-1.68,5.02-8.22,1.87-14.66-3.16-6.44-9.69-10.34-13.3-8.66Z"/>
        </g>
        <path class="cls-14" d="M55.68,8.4c.9,1.83,.23,3.82-1.05,4.42s-3.05-.41-3.95-2.24-.59-3.81,.69-4.4,3.41,.39,4.31,2.23Z"/>
      </g>
      <g>
        <ellipse class="cls-7" cx="33.6" cy="13.56" rx="8.27" ry="13.47" transform="translate(18.34 46.42) rotate(-87.06)"/>
        <ellipse class="cls-2" cx="34.36" cy="12.89" rx="6.65" ry="10.81" transform="translate(19.72 46.55) rotate(-87.06)"/>
        <path class="cls-12" d="M39.27,18.98c-.48,.08-.95-.02-1.05-.22s.45-.14,.92-.22,.7-.27,.8-.07-.2,.43-.68,.51Z"/>
        <polygon class="cls-12" points="42.8 9.28 42.6 10.82 41.01 10.32 42.01 9.03 42.8 9.28"/>
        <path class="cls-1" d="M29.86,7.23c.17,.74-.44,1.38-1.35,1.43-.08,0-.16,0-.24,0l.15,.68s3.43-.75,5.65-.6c2.22,.15,5.93,1.15,5.93,1.15l.9-1.34s-3.34-1.5-6.74-1.64c-1.69-.07-3.23,.03-4.35,.15,.02,.06,.04,.12,.06,.18Z"/>
      </g>
      <g>
        <ellipse class="cls-7" cx="41.91" cy="25.59" rx="7.12" ry="13.46" transform="translate(14.74 66.49) rotate(-87.82)"/>
        <ellipse class="cls-2" cx="42.66" cy="25.02" rx="5.72" ry="10.81" transform="translate(16.04 66.7) rotate(-87.82)"/>
        <path class="cls-12" d="M47.58,30.25c-.48,.07-.95-.02-1.05-.19s.45-.12,.92-.19,.7-.23,.8-.06-.2,.37-.68,.44Z"/>
        <polygon class="cls-12" points="51.11 21.91 50.9 23.23 49.32 22.8 50.31 21.69 51.11 21.91"/>
        <path class="cls-1" d="M38.16,20.15c.17,.64-.44,1.19-1.35,1.23-.08,0-.16,0-.24,0l.15,.58s3.43-.65,5.65-.52c2.22,.13,5.93,.99,5.93,.99l.9-1.16s-3.34-1.29-6.74-1.41c-1.69-.06-3.23,.03-4.35,.13,.02,.05,.04,.1,.06,.16Z"/>
      </g>
      <g>
        <ellipse class="cls-11" cx="85.3" cy="25.59" rx="6.94" ry="13.22" transform="translate(49.82 107.27) rotate(-83.22)"/>
        <ellipse class="cls-4" cx="86.58" cy="25.52" rx="5.57" ry="10.62" transform="translate(51.01 108.48) rotate(-83.22)"/>
        <path class="cls-12" d="M83.95,30.73c-.45-.14-.7-.38-.57-.53s.49,.1,.93,.24,.82,.13,.69,.28-.6,.15-1.05,.01Z"/>
        <polygon class="cls-12" points="96.85 26.85 95.08 27.6 94.39 26.71 96.51 26.4 96.85 26.85"/>
        <path class="cls-1" d="M89.08,20.71c-.65,.47-1.78,.58-2.54,.25-.07-.03-.13-.06-.18-.1l-.6,.43s3.42,.93,4.96,1.87,3.34,2.93,3.34,2.93l2.1-.38s-.99-2.11-3.44-3.51c-1.22-.7-2.51-1.24-3.5-1.61-.04,.04-.09,.08-.15,.12Z"/>
      </g>
      <g>
        <ellipse class="cls-7" cx="66.41" cy="22.32" rx="11.91" ry="13.19"/>
        <ellipse class="cls-2" cx="66.66" cy="21.02" rx="9.57" ry="10.59"/>
        <path class="cls-12" d="M73.92,27.93c-.34,.31-.77,.36-.96,.11s.28-.39,.62-.71,.41-.69,.61-.43,.07,.72-.26,1.03Z"/>
        <polygon class="cls-12" points="71.46 12.16 72.13 14.51 70.58 14.44 70.68 12.12 71.46 12.16"/>
        <path class="cls-1" d="M59.95,14.56c.54,1.02,.4,2.22-.31,2.67-.06,.04-.13,.07-.2,.1l.49,.94s2.34-2.54,4.2-3.25,5.38-.79,5.38-.79v-2.36s-3.51-.81-6.31,.4c-1.4,.6-2.57,1.4-3.41,2.05,.05,.08,.1,.16,.15,.24Z"/>
      </g>
      <g>
        <ellipse class="cls-9" cx="118.28" cy="20.14" rx="8.62" ry="12.91" transform="translate(83.04 134.83) rotate(-82.58)"/>
        <ellipse class="cls-3" cx="118.95" cy="19.45" rx="6.92" ry="10.37" transform="translate(84.31 134.9) rotate(-82.58)"/>
        <path class="cls-12" d="M124.04,25.87c-.45,.08-.9-.03-1.01-.24s.41-.14,.86-.22,.65-.28,.76-.06-.16,.45-.61,.53Z"/>
        <polygon class="cls-12" points="126.75 15.72 126.66 17.33 125.11 16.79 125.98 15.45 126.75 15.72"/>
        <path class="cls-1" d="M114.29,13.47c.21,.78-.32,1.44-1.19,1.49-.08,0-.15,0-.23,0l.19,.71s3.21-.76,5.34-.59,5.72,1.25,5.72,1.25l.77-1.4s-3.28-1.59-6.53-1.77c-1.61-.09-3.07,0-4.13,.13,.03,.06,.05,.13,.07,.19Z"/>
      </g>
    </g>
  </g>
</svg>